G04 #@! TF.GenerationSoftware,KiCad,Pcbnew,(5.1.4)-1*
G04 #@! TF.CreationDate,2019-12-01T17:39:01+00:00*
G04 #@! TF.ProjectId,kb,6b622e6b-6963-4616-945f-706362585858,rev?*
G04 #@! TF.SameCoordinates,Original*
G04 #@! TF.FileFunction,Legend,Top*
G04 #@! TF.FilePolarity,Positive*
%FSLAX46Y46*%
G04 Gerber Fmt 4.6, Leading zero omitted, Abs format (unit mm)*
G04 Created by KiCad (PCBNEW (5.1.4)-1) date 2019-12-01 17:39:01*
%MOMM*%
%LPD*%
G04 APERTURE LIST*
%ADD10C,1.000000*%
%ADD11C,0.010000*%
%ADD12C,0.203200*%
%ADD13C,0.120000*%
%ADD14C,0.150000*%
%ADD15C,0.101600*%
G04 APERTURE END LIST*
D10*
X239083333Y41083333D02*
X239083333Y48083333D01*
X243083333Y41083333D02*
X240083333Y45083333D01*
X243083333Y48083333D02*
X239083333Y44083333D01*
X248750000Y41416666D02*
X248083333Y41083333D01*
X246750000Y41083333D01*
X246083333Y41416666D01*
X245750000Y42083333D01*
X245750000Y44750000D01*
X246083333Y45416666D01*
X246750000Y45750000D01*
X248083333Y45750000D01*
X248750000Y45416666D01*
X249083333Y44750000D01*
X249083333Y44083333D01*
X245750000Y43416666D01*
X251416666Y45750000D02*
X253083333Y41083333D01*
X254750000Y45750000D02*
X253083333Y41083333D01*
X252416666Y39416666D01*
X252083333Y39083333D01*
X251416666Y38750000D01*
X257416666Y41083333D02*
X257416666Y48083333D01*
X257416666Y45416666D02*
X258083333Y45750000D01*
X259416666Y45750000D01*
X260083333Y45416666D01*
X260416666Y45083333D01*
X260750000Y44416666D01*
X260750000Y42416666D01*
X260416666Y41750000D01*
X260083333Y41416666D01*
X259416666Y41083333D01*
X258083333Y41083333D01*
X257416666Y41416666D01*
X264750000Y41083333D02*
X264083333Y41416666D01*
X263750000Y41750000D01*
X263416666Y42416666D01*
X263416666Y44416666D01*
X263750000Y45083333D01*
X264083333Y45416666D01*
X264750000Y45750000D01*
X265750000Y45750000D01*
X266416666Y45416666D01*
X266750000Y45083333D01*
X267083333Y44416666D01*
X267083333Y42416666D01*
X266750000Y41750000D01*
X266416666Y41416666D01*
X265750000Y41083333D01*
X264750000Y41083333D01*
X273083333Y41083333D02*
X273083333Y44750000D01*
X272750000Y45416666D01*
X272083333Y45750000D01*
X270750000Y45750000D01*
X270083333Y45416666D01*
X273083333Y41416666D02*
X272416666Y41083333D01*
X270750000Y41083333D01*
X270083333Y41416666D01*
X269750000Y42083333D01*
X269750000Y42750000D01*
X270083333Y43416666D01*
X270750000Y43750000D01*
X272416666Y43750000D01*
X273083333Y44083333D01*
X276416666Y41083333D02*
X276416666Y45750000D01*
X276416666Y44416666D02*
X276750000Y45083333D01*
X277083333Y45416666D01*
X277750000Y45750000D01*
X278416666Y45750000D01*
X283750000Y41083333D02*
X283750000Y48083333D01*
X283750000Y41416666D02*
X283083333Y41083333D01*
X281750000Y41083333D01*
X281083333Y41416666D01*
X280750000Y41750000D01*
X280416666Y42416666D01*
X280416666Y44416666D01*
X280750000Y45083333D01*
X281083333Y45416666D01*
X281750000Y45750000D01*
X283083333Y45750000D01*
X283750000Y45416666D01*
X292416666Y41083333D02*
X292416666Y48083333D01*
X294750000Y43083333D01*
X297083333Y48083333D01*
X297083333Y41083333D01*
X300416666Y41083333D02*
X300416666Y48083333D01*
X301083333Y43750000D02*
X303083333Y41083333D01*
X303083333Y45750000D02*
X300416666Y43083333D01*
X306083333Y41750000D02*
X306416666Y41416666D01*
X306083333Y41083333D01*
X305750000Y41416666D01*
X306083333Y41750000D01*
X306083333Y41083333D01*
X309416666Y41083333D02*
X309416666Y48083333D01*
D11*
G36*
X232450127Y27283147D02*
G01*
X232469553Y27275175D01*
X232930741Y26995726D01*
X233289541Y26600689D01*
X233532629Y26118497D01*
X233646685Y25577578D01*
X233618387Y25006363D01*
X233591874Y24880037D01*
X233392649Y24326550D01*
X233095732Y23866948D01*
X232722972Y23513031D01*
X232296216Y23276603D01*
X231837311Y23169463D01*
X231368105Y23203414D01*
X230910446Y23390256D01*
X230874743Y23412317D01*
X230462628Y23770246D01*
X230177127Y24233469D01*
X230055153Y24679420D01*
X230310118Y24679420D01*
X230320459Y24380169D01*
X230470758Y24131290D01*
X230725340Y23973352D01*
X231036118Y23939323D01*
X231296621Y24016764D01*
X231437247Y24151089D01*
X231551725Y24346737D01*
X231598897Y24637393D01*
X231513835Y24889925D01*
X231332783Y25083191D01*
X231091986Y25196051D01*
X230827691Y25207366D01*
X230576140Y25095994D01*
X230462145Y24982249D01*
X230310118Y24679420D01*
X230055153Y24679420D01*
X230025750Y24786917D01*
X230002484Y25163000D01*
X230048108Y25700630D01*
X230188634Y26145007D01*
X230446968Y26556143D01*
X230606091Y26744453D01*
X231033720Y27119030D01*
X231492591Y27336232D01*
X231969221Y27392218D01*
X232450127Y27283147D01*
X232450127Y27283147D01*
G37*
X232450127Y27283147D02*
X232469553Y27275175D01*
X232930741Y26995726D01*
X233289541Y26600689D01*
X233532629Y26118497D01*
X233646685Y25577578D01*
X233618387Y25006363D01*
X233591874Y24880037D01*
X233392649Y24326550D01*
X233095732Y23866948D01*
X232722972Y23513031D01*
X232296216Y23276603D01*
X231837311Y23169463D01*
X231368105Y23203414D01*
X230910446Y23390256D01*
X230874743Y23412317D01*
X230462628Y23770246D01*
X230177127Y24233469D01*
X230055153Y24679420D01*
X230310118Y24679420D01*
X230320459Y24380169D01*
X230470758Y24131290D01*
X230725340Y23973352D01*
X231036118Y23939323D01*
X231296621Y24016764D01*
X231437247Y24151089D01*
X231551725Y24346737D01*
X231598897Y24637393D01*
X231513835Y24889925D01*
X231332783Y25083191D01*
X231091986Y25196051D01*
X230827691Y25207366D01*
X230576140Y25095994D01*
X230462145Y24982249D01*
X230310118Y24679420D01*
X230055153Y24679420D01*
X230025750Y24786917D01*
X230002484Y25163000D01*
X230048108Y25700630D01*
X230188634Y26145007D01*
X230446968Y26556143D01*
X230606091Y26744453D01*
X231033720Y27119030D01*
X231492591Y27336232D01*
X231969221Y27392218D01*
X232450127Y27283147D01*
G36*
X236416890Y26591643D02*
G01*
X236878611Y26326597D01*
X237169612Y26013584D01*
X237389858Y25587231D01*
X237529497Y25092198D01*
X237578678Y24573147D01*
X237527547Y24074738D01*
X237438380Y23789005D01*
X237163622Y23301627D01*
X236800563Y22910169D01*
X236376250Y22629601D01*
X235917729Y22474894D01*
X235452045Y22461019D01*
X235166621Y22531525D01*
X234711808Y22782090D01*
X234357837Y23144429D01*
X234109614Y23590781D01*
X233992129Y24020000D01*
X234255780Y24020000D01*
X234273387Y23729537D01*
X234409912Y23458555D01*
X234584576Y23305864D01*
X234790177Y23205483D01*
X234937504Y23189915D01*
X235114111Y23257912D01*
X235191278Y23297202D01*
X235424791Y23494746D01*
X235530436Y23749111D01*
X235519013Y24019933D01*
X235401319Y24266847D01*
X235188154Y24449487D01*
X234890317Y24527489D01*
X234862007Y24528000D01*
X234629091Y24457699D01*
X234408500Y24285067D01*
X234268744Y24067517D01*
X234255780Y24020000D01*
X233992129Y24020000D01*
X233972041Y24093387D01*
X233950026Y24624486D01*
X234048471Y25156318D01*
X234272282Y25661123D01*
X234548395Y26030665D01*
X234995165Y26420678D01*
X235459742Y26644717D01*
X235935769Y26701974D01*
X236416890Y26591643D01*
X236416890Y26591643D01*
G37*
X236416890Y26591643D02*
X236878611Y26326597D01*
X237169612Y26013584D01*
X237389858Y25587231D01*
X237529497Y25092198D01*
X237578678Y24573147D01*
X237527547Y24074738D01*
X237438380Y23789005D01*
X237163622Y23301627D01*
X236800563Y22910169D01*
X236376250Y22629601D01*
X235917729Y22474894D01*
X235452045Y22461019D01*
X235166621Y22531525D01*
X234711808Y22782090D01*
X234357837Y23144429D01*
X234109614Y23590781D01*
X233992129Y24020000D01*
X234255780Y24020000D01*
X234273387Y23729537D01*
X234409912Y23458555D01*
X234584576Y23305864D01*
X234790177Y23205483D01*
X234937504Y23189915D01*
X235114111Y23257912D01*
X235191278Y23297202D01*
X235424791Y23494746D01*
X235530436Y23749111D01*
X235519013Y24019933D01*
X235401319Y24266847D01*
X235188154Y24449487D01*
X234890317Y24527489D01*
X234862007Y24528000D01*
X234629091Y24457699D01*
X234408500Y24285067D01*
X234268744Y24067517D01*
X234255780Y24020000D01*
X233992129Y24020000D01*
X233972041Y24093387D01*
X233950026Y24624486D01*
X234048471Y25156318D01*
X234272282Y25661123D01*
X234548395Y26030665D01*
X234995165Y26420678D01*
X235459742Y26644717D01*
X235935769Y26701974D01*
X236416890Y26591643D01*
G36*
X233110822Y22864958D02*
G01*
X233502885Y22785546D01*
X233890452Y22659051D01*
X234237336Y22496277D01*
X234507350Y22308028D01*
X234664307Y22105108D01*
X234689333Y21990175D01*
X234627216Y21777920D01*
X234464341Y21675844D01*
X234235921Y21693204D01*
X234012000Y21812131D01*
X233673326Y21989479D01*
X233238423Y22110764D01*
X232776320Y22156840D01*
X232769214Y22156861D01*
X232489288Y22191114D01*
X232294198Y22279516D01*
X232282381Y22290381D01*
X232168640Y22435006D01*
X232172171Y22489440D01*
X232256218Y22489440D01*
X232328790Y22366550D01*
X232566707Y22278203D01*
X232970210Y22224238D01*
X232991767Y22222651D01*
X233429901Y22164705D01*
X233773320Y22050688D01*
X233943283Y21959513D01*
X234248702Y21803171D01*
X234451225Y21771351D01*
X234562690Y21864037D01*
X234588195Y21958590D01*
X234536681Y22149070D01*
X234351293Y22333203D01*
X234067431Y22500108D01*
X233720494Y22638902D01*
X233345880Y22738702D01*
X232978988Y22788627D01*
X232655218Y22777794D01*
X232409968Y22695321D01*
X232348746Y22647032D01*
X232256218Y22489440D01*
X232172171Y22489440D01*
X232177218Y22567234D01*
X232269525Y22712651D01*
X232457955Y22839315D01*
X232750449Y22886483D01*
X233110822Y22864958D01*
X233110822Y22864958D01*
G37*
X233110822Y22864958D02*
X233502885Y22785546D01*
X233890452Y22659051D01*
X234237336Y22496277D01*
X234507350Y22308028D01*
X234664307Y22105108D01*
X234689333Y21990175D01*
X234627216Y21777920D01*
X234464341Y21675844D01*
X234235921Y21693204D01*
X234012000Y21812131D01*
X233673326Y21989479D01*
X233238423Y22110764D01*
X232776320Y22156840D01*
X232769214Y22156861D01*
X232489288Y22191114D01*
X232294198Y22279516D01*
X232282381Y22290381D01*
X232168640Y22435006D01*
X232172171Y22489440D01*
X232256218Y22489440D01*
X232328790Y22366550D01*
X232566707Y22278203D01*
X232970210Y22224238D01*
X232991767Y22222651D01*
X233429901Y22164705D01*
X233773320Y22050688D01*
X233943283Y21959513D01*
X234248702Y21803171D01*
X234451225Y21771351D01*
X234562690Y21864037D01*
X234588195Y21958590D01*
X234536681Y22149070D01*
X234351293Y22333203D01*
X234067431Y22500108D01*
X233720494Y22638902D01*
X233345880Y22738702D01*
X232978988Y22788627D01*
X232655218Y22777794D01*
X232409968Y22695321D01*
X232348746Y22647032D01*
X232256218Y22489440D01*
X232172171Y22489440D01*
X232177218Y22567234D01*
X232269525Y22712651D01*
X232457955Y22839315D01*
X232750449Y22886483D01*
X233110822Y22864958D01*
G36*
X234654311Y21538664D02*
G01*
X234591597Y21504001D01*
X234520000Y21480000D01*
X234288128Y21426632D01*
X234139000Y21412213D01*
X234047022Y21421336D01*
X234109736Y21455999D01*
X234181333Y21480000D01*
X234413205Y21533369D01*
X234562333Y21547788D01*
X234654311Y21538664D01*
X234654311Y21538664D01*
G37*
X234654311Y21538664D02*
X234591597Y21504001D01*
X234520000Y21480000D01*
X234288128Y21426632D01*
X234139000Y21412213D01*
X234047022Y21421336D01*
X234109736Y21455999D01*
X234181333Y21480000D01*
X234413205Y21533369D01*
X234562333Y21547788D01*
X234654311Y21538664D01*
G36*
X233842646Y21363526D02*
G01*
X233709350Y21311442D01*
X233546333Y21262396D01*
X233278687Y21195534D01*
X233066001Y21155766D01*
X232996000Y21150537D01*
X232996021Y21173141D01*
X233129316Y21225225D01*
X233292333Y21274271D01*
X233559979Y21341133D01*
X233772666Y21380901D01*
X233842667Y21386130D01*
X233842646Y21363526D01*
X233842646Y21363526D01*
G37*
X233842646Y21363526D02*
X233709350Y21311442D01*
X233546333Y21262396D01*
X233278687Y21195534D01*
X233066001Y21155766D01*
X232996000Y21150537D01*
X232996021Y21173141D01*
X233129316Y21225225D01*
X233292333Y21274271D01*
X233559979Y21341133D01*
X233772666Y21380901D01*
X233842667Y21386130D01*
X233842646Y21363526D01*
G36*
X232803736Y21107820D02*
G01*
X232778485Y21069338D01*
X232692611Y21063351D01*
X232602269Y21084028D01*
X232641458Y21114504D01*
X232773782Y21124597D01*
X232803736Y21107820D01*
X232803736Y21107820D01*
G37*
X232803736Y21107820D02*
X232778485Y21069338D01*
X232692611Y21063351D01*
X232602269Y21084028D01*
X232641458Y21114504D01*
X232773782Y21124597D01*
X232803736Y21107820D01*
G36*
X235046772Y21497790D02*
G01*
X235171011Y21342783D01*
X235262735Y21168077D01*
X235282000Y21080161D01*
X235219289Y20932339D01*
X235074122Y20769030D01*
X234910946Y20654646D01*
X234837500Y20635908D01*
X234815609Y20670328D01*
X234901000Y20734506D01*
X235129475Y20918705D01*
X235189643Y21118443D01*
X235082052Y21336580D01*
X235028000Y21395333D01*
X234932011Y21514656D01*
X234938150Y21564665D01*
X234938532Y21564667D01*
X235046772Y21497790D01*
X235046772Y21497790D01*
G37*
X235046772Y21497790D02*
X235171011Y21342783D01*
X235262735Y21168077D01*
X235282000Y21080161D01*
X235219289Y20932339D01*
X235074122Y20769030D01*
X234910946Y20654646D01*
X234837500Y20635908D01*
X234815609Y20670328D01*
X234901000Y20734506D01*
X235129475Y20918705D01*
X235189643Y21118443D01*
X235082052Y21336580D01*
X235028000Y21395333D01*
X234932011Y21514656D01*
X234938150Y21564665D01*
X234938532Y21564667D01*
X235046772Y21497790D01*
G36*
X234666403Y20599820D02*
G01*
X234641152Y20561338D01*
X234555278Y20555351D01*
X234464935Y20576028D01*
X234504125Y20606504D01*
X234636449Y20616597D01*
X234666403Y20599820D01*
X234666403Y20599820D01*
G37*
X234666403Y20599820D02*
X234641152Y20561338D01*
X234555278Y20555351D01*
X234464935Y20576028D01*
X234504125Y20606504D01*
X234636449Y20616597D01*
X234666403Y20599820D01*
G36*
X234327736Y20515153D02*
G01*
X234302485Y20476671D01*
X234216611Y20470684D01*
X234126269Y20491362D01*
X234165458Y20521837D01*
X234297782Y20531931D01*
X234327736Y20515153D01*
X234327736Y20515153D01*
G37*
X234327736Y20515153D02*
X234302485Y20476671D01*
X234216611Y20470684D01*
X234126269Y20491362D01*
X234165458Y20521837D01*
X234297782Y20531931D01*
X234327736Y20515153D01*
G36*
X231421914Y22904808D02*
G01*
X231528413Y22872631D01*
X231796777Y22696372D01*
X232011894Y22403631D01*
X232155894Y22043523D01*
X232210908Y21665162D01*
X232159066Y21317665D01*
X232124206Y21235052D01*
X231996763Y20979586D01*
X232263548Y21016981D01*
X232429900Y21037393D01*
X232438527Y21024668D01*
X232318667Y20979294D01*
X232092128Y20917393D01*
X231945711Y20895773D01*
X231836783Y20901337D01*
X231856286Y20963513D01*
X231923539Y21041056D01*
X232070914Y21305397D01*
X232119122Y21628659D01*
X232081121Y21973428D01*
X231969870Y22302293D01*
X231798329Y22577841D01*
X231579456Y22762659D01*
X231326210Y22819336D01*
X231308175Y22817613D01*
X231194629Y22795250D01*
X231129676Y22735610D01*
X231099773Y22600153D01*
X231091373Y22350339D01*
X231091000Y22199667D01*
X231085518Y21876729D01*
X231054529Y21642303D01*
X230976219Y21446928D01*
X230828773Y21241141D01*
X230590379Y20975481D01*
X230516107Y20896146D01*
X230301465Y20676706D01*
X230139840Y20528172D01*
X230047648Y20461836D01*
X230041304Y20488988D01*
X230137223Y20620921D01*
X230164811Y20654500D01*
X230312087Y20823619D01*
X230520442Y21053628D01*
X230664767Y21209206D01*
X230843596Y21408572D01*
X230945732Y21568628D01*
X230992629Y21749899D01*
X231005740Y22012910D01*
X231006333Y22172832D01*
X231026033Y22562223D01*
X231093497Y22802803D01*
X231221275Y22911391D01*
X231421914Y22904808D01*
X231421914Y22904808D01*
G37*
X231421914Y22904808D02*
X231528413Y22872631D01*
X231796777Y22696372D01*
X232011894Y22403631D01*
X232155894Y22043523D01*
X232210908Y21665162D01*
X232159066Y21317665D01*
X232124206Y21235052D01*
X231996763Y20979586D01*
X232263548Y21016981D01*
X232429900Y21037393D01*
X232438527Y21024668D01*
X232318667Y20979294D01*
X232092128Y20917393D01*
X231945711Y20895773D01*
X231836783Y20901337D01*
X231856286Y20963513D01*
X231923539Y21041056D01*
X232070914Y21305397D01*
X232119122Y21628659D01*
X232081121Y21973428D01*
X231969870Y22302293D01*
X231798329Y22577841D01*
X231579456Y22762659D01*
X231326210Y22819336D01*
X231308175Y22817613D01*
X231194629Y22795250D01*
X231129676Y22735610D01*
X231099773Y22600153D01*
X231091373Y22350339D01*
X231091000Y22199667D01*
X231085518Y21876729D01*
X231054529Y21642303D01*
X230976219Y21446928D01*
X230828773Y21241141D01*
X230590379Y20975481D01*
X230516107Y20896146D01*
X230301465Y20676706D01*
X230139840Y20528172D01*
X230047648Y20461836D01*
X230041304Y20488988D01*
X230137223Y20620921D01*
X230164811Y20654500D01*
X230312087Y20823619D01*
X230520442Y21053628D01*
X230664767Y21209206D01*
X230843596Y21408572D01*
X230945732Y21568628D01*
X230992629Y21749899D01*
X231005740Y22012910D01*
X231006333Y22172832D01*
X231026033Y22562223D01*
X231093497Y22802803D01*
X231221275Y22911391D01*
X231421914Y22904808D01*
G36*
X233987721Y20431835D02*
G01*
X233960401Y20391277D01*
X233855165Y20379333D01*
X233723701Y20351231D01*
X233708276Y20234349D01*
X233721253Y20175553D01*
X233724204Y19942156D01*
X233677554Y19794553D01*
X233627906Y19579367D01*
X233673934Y19446878D01*
X233719433Y19247255D01*
X233670520Y19129378D01*
X233601906Y19030245D01*
X233606247Y19077697D01*
X233624303Y19136634D01*
X233626445Y19337112D01*
X233587973Y19449295D01*
X233552627Y19667672D01*
X233604726Y19830435D01*
X233663789Y20037812D01*
X233608704Y20209324D01*
X233605366Y20214723D01*
X233553823Y20338454D01*
X233629875Y20404144D01*
X233719860Y20430285D01*
X233899179Y20452956D01*
X233987721Y20431835D01*
X233987721Y20431835D01*
G37*
X233987721Y20431835D02*
X233960401Y20391277D01*
X233855165Y20379333D01*
X233723701Y20351231D01*
X233708276Y20234349D01*
X233721253Y20175553D01*
X233724204Y19942156D01*
X233677554Y19794553D01*
X233627906Y19579367D01*
X233673934Y19446878D01*
X233719433Y19247255D01*
X233670520Y19129378D01*
X233601906Y19030245D01*
X233606247Y19077697D01*
X233624303Y19136634D01*
X233626445Y19337112D01*
X233587973Y19449295D01*
X233552627Y19667672D01*
X233604726Y19830435D01*
X233663789Y20037812D01*
X233608704Y20209324D01*
X233605366Y20214723D01*
X233553823Y20338454D01*
X233629875Y20404144D01*
X233719860Y20430285D01*
X233899179Y20452956D01*
X233987721Y20431835D01*
D12*
X315948000Y44958000D02*
X314678000Y44958000D01*
X315948000Y52578000D02*
X315948000Y44958000D01*
X280388000Y52578000D02*
X315948000Y52578000D01*
X280388000Y34798000D02*
X280388000Y52578000D01*
X315948000Y34798000D02*
X280388000Y34798000D01*
X315948000Y42418000D02*
X315948000Y34798000D01*
X314678000Y42418000D02*
X315948000Y42418000D01*
X314678000Y44958000D02*
X314678000Y42418000D01*
D13*
X-40005000Y-22225000D02*
X-40005000Y-8255000D01*
X-26035000Y-22225000D02*
X-40005000Y-22225000D01*
X-26035000Y-8255000D02*
X-26035000Y-22225000D01*
X-40005000Y-8255000D02*
X-26035000Y-8255000D01*
X-42037000Y-3144520D02*
X-42037000Y10825480D01*
X-28067000Y-3144520D02*
X-42037000Y-3144520D01*
X-28067000Y10825480D02*
X-28067000Y-3144520D01*
X-42037000Y10825480D02*
X-28067000Y10825480D01*
X-46036000Y-59436000D02*
G75*
G03X-46036000Y-59436000I-700000J0D01*
G01*
X-47306000Y-40894000D02*
G75*
G03X-47306000Y-40894000I-700000J0D01*
G01*
X-46544000Y-22606000D02*
G75*
G03X-46544000Y-22606000I-700000J0D01*
G01*
X-46290000Y-3048000D02*
G75*
G03X-46290000Y-3048000I-700000J0D01*
G01*
X-46544000Y15748000D02*
G75*
G03X-46544000Y15748000I-700000J0D01*
G01*
X-28300000Y18250000D02*
G75*
G03X-28300000Y18250000I-700000J0D01*
G01*
X-46800000Y35750000D02*
G75*
G03X-46800000Y35750000I-700000J0D01*
G01*
X260950000Y20000000D02*
G75*
G03X260950000Y20000000I-700000J0D01*
G01*
X220664000Y35052000D02*
G75*
G03X220664000Y35052000I-700000J0D01*
G01*
X201106000Y34798000D02*
G75*
G03X201106000Y34798000I-700000J0D01*
G01*
X182310000Y35052000D02*
G75*
G03X182310000Y35052000I-700000J0D01*
G01*
X163260000Y34544000D02*
G75*
G03X163260000Y34544000I-700000J0D01*
G01*
X130240000Y35052000D02*
G75*
G03X130240000Y35052000I-700000J0D01*
G01*
X92140000Y35052000D02*
G75*
G03X92140000Y35052000I-700000J0D01*
G01*
X72836000Y34798000D02*
G75*
G03X72836000Y34798000I-700000J0D01*
G01*
X41340000Y35306000D02*
G75*
G03X41340000Y35306000I-700000J0D01*
G01*
X22036000Y35306000D02*
G75*
G03X22036000Y35306000I-700000J0D01*
G01*
X4002000Y35052000D02*
G75*
G03X4002000Y35052000I-700000J0D01*
G01*
X-15556000Y35052000D02*
G75*
G03X-15556000Y35052000I-700000J0D01*
G01*
X-26224000Y35052000D02*
G75*
G03X-26224000Y35052000I-700000J0D01*
G01*
X296864000Y16002000D02*
G75*
G03X296864000Y16002000I-700000J0D01*
G01*
X210439000Y15875000D02*
X210439000Y29845000D01*
X224409000Y15875000D02*
X210439000Y15875000D01*
X224409000Y29845000D02*
X224409000Y15875000D01*
X210439000Y29845000D02*
X224409000Y29845000D01*
X203327000Y-41275000D02*
X203327000Y-27305000D01*
X217297000Y-41275000D02*
X203327000Y-41275000D01*
X217297000Y-27305000D02*
X217297000Y-41275000D01*
X203327000Y-27305000D02*
X217297000Y-27305000D01*
X296545000Y-12573000D02*
X296545000Y1397000D01*
X310515000Y-12573000D02*
X296545000Y-12573000D01*
X310515000Y1397000D02*
X310515000Y-12573000D01*
X296545000Y1397000D02*
X310515000Y1397000D01*
X296545000Y-50673000D02*
X296545000Y-36703000D01*
X310515000Y-50673000D02*
X296545000Y-50673000D01*
X310515000Y-36703000D02*
X310515000Y-50673000D01*
X296545000Y-36703000D02*
X310515000Y-36703000D01*
X96139000Y-3175000D02*
X96139000Y10795000D01*
X110109000Y-3175000D02*
X96139000Y-3175000D01*
X110109000Y10795000D02*
X110109000Y-3175000D01*
X96139000Y10795000D02*
X110109000Y10795000D01*
X5207000Y-22225000D02*
X5207000Y-8255000D01*
X19177000Y-22225000D02*
X5207000Y-22225000D01*
X19177000Y-8255000D02*
X19177000Y-22225000D01*
X5207000Y-8255000D02*
X19177000Y-8255000D01*
X143891000Y15875000D02*
X143891000Y29845000D01*
X157861000Y15875000D02*
X143891000Y15875000D01*
X157861000Y29845000D02*
X157861000Y15875000D01*
X143891000Y29845000D02*
X157861000Y29845000D01*
X-4191000Y-41275000D02*
X-4191000Y-27305000D01*
X9779000Y-41275000D02*
X-4191000Y-41275000D01*
X9779000Y-27305000D02*
X9779000Y-41275000D01*
X-4191000Y-27305000D02*
X9779000Y-27305000D01*
X77089000Y-3175000D02*
X77089000Y10795000D01*
X91059000Y-3175000D02*
X77089000Y-3175000D01*
X91059000Y10795000D02*
X91059000Y-3175000D01*
X77089000Y10795000D02*
X91059000Y10795000D01*
X14859000Y-41275000D02*
X14859000Y-27305000D01*
X28829000Y-41275000D02*
X14859000Y-41275000D01*
X28829000Y-27305000D02*
X28829000Y-41275000D01*
X14859000Y-27305000D02*
X28829000Y-27305000D01*
X889000Y-3175000D02*
X889000Y10795000D01*
X14859000Y-3175000D02*
X889000Y-3175000D01*
X14859000Y10795000D02*
X14859000Y-3175000D01*
X889000Y10795000D02*
X14859000Y10795000D01*
X52959000Y-41275000D02*
X52959000Y-27305000D01*
X66929000Y-41275000D02*
X52959000Y-41275000D01*
X66929000Y-27305000D02*
X66929000Y-41275000D01*
X52959000Y-27305000D02*
X66929000Y-27305000D01*
X-8509000Y15875000D02*
X-8509000Y29845000D01*
X5461000Y15875000D02*
X-8509000Y15875000D01*
X5461000Y29845000D02*
X5461000Y15875000D01*
X-8509000Y29845000D02*
X5461000Y29845000D01*
X177165000Y-22225000D02*
X177165000Y-8255000D01*
X191135000Y-22225000D02*
X177165000Y-22225000D01*
X191135000Y-8255000D02*
X191135000Y-22225000D01*
X177165000Y-8255000D02*
X191135000Y-8255000D01*
X10541000Y15875000D02*
X10541000Y29845000D01*
X24511000Y15875000D02*
X10541000Y15875000D01*
X24511000Y29845000D02*
X24511000Y15875000D01*
X10541000Y29845000D02*
X24511000Y29845000D01*
X58039000Y-3175000D02*
X58039000Y10795000D01*
X72009000Y-3175000D02*
X58039000Y-3175000D01*
X72009000Y10795000D02*
X72009000Y-3175000D01*
X58039000Y10795000D02*
X72009000Y10795000D01*
X74549000Y-60325000D02*
X74549000Y-46355000D01*
X88519000Y-60325000D02*
X74549000Y-60325000D01*
X88519000Y-46355000D02*
X88519000Y-60325000D01*
X74549000Y-46355000D02*
X88519000Y-46355000D01*
X67691000Y15875000D02*
X67691000Y29845000D01*
X81661000Y15875000D02*
X67691000Y15875000D01*
X81661000Y29845000D02*
X81661000Y15875000D01*
X67691000Y29845000D02*
X81661000Y29845000D01*
X86741000Y15875000D02*
X86741000Y29845000D01*
X100711000Y15875000D02*
X86741000Y15875000D01*
X100711000Y29845000D02*
X100711000Y15875000D01*
X86741000Y29845000D02*
X100711000Y29845000D01*
X191389000Y-3175000D02*
X191389000Y10795000D01*
X205359000Y-3175000D02*
X191389000Y-3175000D01*
X205359000Y10795000D02*
X205359000Y-3175000D01*
X191389000Y10795000D02*
X205359000Y10795000D01*
X169799000Y-60325000D02*
X169799000Y-46355000D01*
X183769000Y-60325000D02*
X169799000Y-60325000D01*
X183769000Y-46355000D02*
X183769000Y-60325000D01*
X169799000Y-46355000D02*
X183769000Y-46355000D01*
X217551000Y-60325000D02*
X217551000Y-46355000D01*
X231521000Y-60325000D02*
X217551000Y-60325000D01*
X231521000Y-46355000D02*
X231521000Y-60325000D01*
X217551000Y-46355000D02*
X231521000Y-46355000D01*
X145923000Y-60325000D02*
X145923000Y-46355000D01*
X159893000Y-60325000D02*
X145923000Y-60325000D01*
X159893000Y-46355000D02*
X159893000Y-60325000D01*
X145923000Y-46355000D02*
X159893000Y-46355000D01*
X38989000Y-3175000D02*
X38989000Y10795000D01*
X52959000Y-3175000D02*
X38989000Y-3175000D01*
X52959000Y10795000D02*
X52959000Y-3175000D01*
X38989000Y10795000D02*
X52959000Y10795000D01*
X-18161000Y-3175000D02*
X-18161000Y10795000D01*
X-4191000Y-3175000D02*
X-18161000Y-3175000D01*
X-4191000Y10795000D02*
X-4191000Y-3175000D01*
X-18161000Y10795000D02*
X-4191000Y10795000D01*
X153289000Y-3175000D02*
X153289000Y10795000D01*
X167259000Y-3175000D02*
X153289000Y-3175000D01*
X167259000Y10795000D02*
X167259000Y-3175000D01*
X153289000Y10795000D02*
X167259000Y10795000D01*
X-27559000Y15875000D02*
X-27559000Y29845000D01*
X-13589000Y15875000D02*
X-27559000Y15875000D01*
X-13589000Y29845000D02*
X-13589000Y15875000D01*
X-27559000Y29845000D02*
X-13589000Y29845000D01*
X134239000Y-3175000D02*
X134239000Y10795000D01*
X148209000Y-3175000D02*
X134239000Y-3175000D01*
X148209000Y10795000D02*
X148209000Y-3175000D01*
X134239000Y10795000D02*
X148209000Y10795000D01*
X258191000Y-60325000D02*
X258191000Y-46355000D01*
X272161000Y-60325000D02*
X258191000Y-60325000D01*
X272161000Y-46355000D02*
X272161000Y-60325000D01*
X258191000Y-46355000D02*
X272161000Y-46355000D01*
X239141000Y-60325000D02*
X239141000Y-46355000D01*
X253111000Y-60325000D02*
X239141000Y-60325000D01*
X253111000Y-46355000D02*
X253111000Y-60325000D01*
X239141000Y-46355000D02*
X253111000Y-46355000D01*
X239141000Y15875000D02*
X239141000Y29845000D01*
X253111000Y15875000D02*
X239141000Y15875000D01*
X253111000Y29845000D02*
X253111000Y15875000D01*
X239141000Y29845000D02*
X253111000Y29845000D01*
X277241000Y15875000D02*
X277241000Y29845000D01*
X291211000Y15875000D02*
X277241000Y15875000D01*
X291211000Y29845000D02*
X291211000Y15875000D01*
X277241000Y29845000D02*
X291211000Y29845000D01*
X258191000Y15875000D02*
X258191000Y29845000D01*
X272161000Y15875000D02*
X258191000Y15875000D01*
X272161000Y29845000D02*
X272161000Y15875000D01*
X258191000Y29845000D02*
X272161000Y29845000D01*
X296291000Y15875000D02*
X296291000Y29845000D01*
X310261000Y15875000D02*
X296291000Y15875000D01*
X310261000Y29845000D02*
X310261000Y15875000D01*
X296291000Y29845000D02*
X310261000Y29845000D01*
X124841000Y15875000D02*
X124841000Y29845000D01*
X138811000Y15875000D02*
X124841000Y15875000D01*
X138811000Y29845000D02*
X138811000Y15875000D01*
X124841000Y29845000D02*
X138811000Y29845000D01*
X277241000Y-60325000D02*
X277241000Y-46355000D01*
X291211000Y-60325000D02*
X277241000Y-60325000D01*
X291211000Y-46355000D02*
X291211000Y-60325000D01*
X277241000Y-46355000D02*
X291211000Y-46355000D01*
X91059000Y-41275000D02*
X91059000Y-27305000D01*
X105029000Y-41275000D02*
X91059000Y-41275000D01*
X105029000Y-27305000D02*
X105029000Y-41275000D01*
X91059000Y-27305000D02*
X105029000Y-27305000D01*
X277241000Y-3175000D02*
X277241000Y10795000D01*
X291211000Y-3175000D02*
X277241000Y-3175000D01*
X291211000Y10795000D02*
X291211000Y-3175000D01*
X277241000Y10795000D02*
X291211000Y10795000D01*
X258191000Y-3175000D02*
X258191000Y10795000D01*
X272161000Y-3175000D02*
X258191000Y-3175000D01*
X272161000Y10795000D02*
X272161000Y-3175000D01*
X258191000Y10795000D02*
X272161000Y10795000D01*
X239141000Y-3175000D02*
X239141000Y10795000D01*
X253111000Y-3175000D02*
X239141000Y-3175000D01*
X253111000Y10795000D02*
X253111000Y-3175000D01*
X239141000Y10795000D02*
X253111000Y10795000D01*
X277241000Y-22225000D02*
X277241000Y-8255000D01*
X291211000Y-22225000D02*
X277241000Y-22225000D01*
X291211000Y-8255000D02*
X291211000Y-22225000D01*
X277241000Y-8255000D02*
X291211000Y-8255000D01*
X258191000Y-22225000D02*
X258191000Y-8255000D01*
X272161000Y-22225000D02*
X258191000Y-22225000D01*
X272161000Y-8255000D02*
X272161000Y-22225000D01*
X258191000Y-8255000D02*
X272161000Y-8255000D01*
X239141000Y-22225000D02*
X239141000Y-8255000D01*
X253111000Y-22225000D02*
X239141000Y-22225000D01*
X253111000Y-8255000D02*
X253111000Y-22225000D01*
X239141000Y-8255000D02*
X253111000Y-8255000D01*
X277241000Y-41275000D02*
X277241000Y-27305000D01*
X291211000Y-41275000D02*
X277241000Y-41275000D01*
X291211000Y-27305000D02*
X291211000Y-41275000D01*
X277241000Y-27305000D02*
X291211000Y-27305000D01*
X258191000Y-41275000D02*
X258191000Y-27305000D01*
X272161000Y-41275000D02*
X258191000Y-41275000D01*
X272161000Y-27305000D02*
X272161000Y-41275000D01*
X258191000Y-27305000D02*
X272161000Y-27305000D01*
X239141000Y-41275000D02*
X239141000Y-27305000D01*
X253111000Y-41275000D02*
X239141000Y-41275000D01*
X253111000Y-27305000D02*
X253111000Y-41275000D01*
X239141000Y-27305000D02*
X253111000Y-27305000D01*
X162941000Y15875000D02*
X162941000Y29845000D01*
X176911000Y15875000D02*
X162941000Y15875000D01*
X176911000Y29845000D02*
X176911000Y15875000D01*
X162941000Y29845000D02*
X176911000Y29845000D01*
X110109000Y-41275000D02*
X110109000Y-27305000D01*
X124079000Y-41275000D02*
X110109000Y-41275000D01*
X124079000Y-27305000D02*
X124079000Y-41275000D01*
X110109000Y-27305000D02*
X124079000Y-27305000D01*
X-44831000Y-41275000D02*
X-44831000Y-27305000D01*
X-30861000Y-41275000D02*
X-44831000Y-41275000D01*
X-30861000Y-27305000D02*
X-30861000Y-41275000D01*
X-44831000Y-27305000D02*
X-30861000Y-27305000D01*
X172339000Y-3175000D02*
X172339000Y10795000D01*
X186309000Y-3175000D02*
X172339000Y-3175000D01*
X186309000Y10795000D02*
X186309000Y-3175000D01*
X172339000Y10795000D02*
X186309000Y10795000D01*
X-20955000Y-60325000D02*
X-20955000Y-46355000D01*
X-6985000Y-60325000D02*
X-20955000Y-60325000D01*
X-6985000Y-46355000D02*
X-6985000Y-60325000D01*
X-20955000Y-46355000D02*
X-6985000Y-46355000D01*
X-44831000Y-60325000D02*
X-44831000Y-46355000D01*
X-30861000Y-60325000D02*
X-44831000Y-60325000D01*
X-30861000Y-46355000D02*
X-30861000Y-60325000D01*
X-44831000Y-46355000D02*
X-30861000Y-46355000D01*
X2921000Y-60325000D02*
X2921000Y-46355000D01*
X16891000Y-60325000D02*
X2921000Y-60325000D01*
X16891000Y-46355000D02*
X16891000Y-60325000D01*
X2921000Y-46355000D02*
X16891000Y-46355000D01*
X138557000Y-22225000D02*
X138557000Y-8255000D01*
X152527000Y-22225000D02*
X138557000Y-22225000D01*
X152527000Y-8255000D02*
X152527000Y-22225000D01*
X138557000Y-8255000D02*
X152527000Y-8255000D01*
X119507000Y-22225000D02*
X119507000Y-8255000D01*
X133477000Y-22225000D02*
X119507000Y-22225000D01*
X133477000Y-8255000D02*
X133477000Y-22225000D01*
X119507000Y-8255000D02*
X133477000Y-8255000D01*
X100457000Y-22225000D02*
X100457000Y-8255000D01*
X114427000Y-22225000D02*
X100457000Y-22225000D01*
X114427000Y-8255000D02*
X114427000Y-22225000D01*
X100457000Y-8255000D02*
X114427000Y-8255000D01*
X115189000Y-3175000D02*
X115189000Y10795000D01*
X129159000Y-3175000D02*
X115189000Y-3175000D01*
X129159000Y10795000D02*
X129159000Y-3175000D01*
X115189000Y10795000D02*
X129159000Y10795000D01*
X196215000Y-22225000D02*
X196215000Y-8255000D01*
X210185000Y-22225000D02*
X196215000Y-22225000D01*
X210185000Y-8255000D02*
X210185000Y-22225000D01*
X196215000Y-8255000D02*
X210185000Y-8255000D01*
X81407000Y-22225000D02*
X81407000Y-8255000D01*
X95377000Y-22225000D02*
X81407000Y-22225000D01*
X95377000Y-8255000D02*
X95377000Y-22225000D01*
X81407000Y-8255000D02*
X95377000Y-8255000D01*
X62357000Y-22225000D02*
X62357000Y-8255000D01*
X76327000Y-22225000D02*
X62357000Y-22225000D01*
X76327000Y-8255000D02*
X76327000Y-22225000D01*
X62357000Y-8255000D02*
X76327000Y-8255000D01*
X148209000Y-41275000D02*
X148209000Y-27305000D01*
X162179000Y-41275000D02*
X148209000Y-41275000D01*
X162179000Y-27305000D02*
X162179000Y-41275000D01*
X148209000Y-27305000D02*
X162179000Y-27305000D01*
X167513000Y-41275000D02*
X167513000Y-27305000D01*
X181483000Y-41275000D02*
X167513000Y-41275000D01*
X181483000Y-27305000D02*
X181483000Y-41275000D01*
X167513000Y-27305000D02*
X181483000Y-27305000D01*
X29591000Y15875000D02*
X29591000Y29845000D01*
X43561000Y15875000D02*
X29591000Y15875000D01*
X43561000Y29845000D02*
X43561000Y15875000D01*
X29591000Y29845000D02*
X43561000Y29845000D01*
X193675000Y-60325000D02*
X193675000Y-46355000D01*
X207645000Y-60325000D02*
X193675000Y-60325000D01*
X207645000Y-46355000D02*
X207645000Y-60325000D01*
X193675000Y-46355000D02*
X207645000Y-46355000D01*
X48641000Y15875000D02*
X48641000Y29845000D01*
X62611000Y15875000D02*
X48641000Y15875000D01*
X62611000Y29845000D02*
X62611000Y15875000D01*
X48641000Y29845000D02*
X62611000Y29845000D01*
X43307000Y-22225000D02*
X43307000Y-8255000D01*
X57277000Y-22225000D02*
X43307000Y-22225000D01*
X57277000Y-8255000D02*
X57277000Y-22225000D01*
X43307000Y-8255000D02*
X57277000Y-8255000D01*
X220091000Y34925000D02*
X220091000Y48895000D01*
X234061000Y34925000D02*
X220091000Y34925000D01*
X234061000Y48895000D02*
X234061000Y34925000D01*
X220091000Y48895000D02*
X234061000Y48895000D01*
X201041000Y34925000D02*
X201041000Y48895000D01*
X215011000Y34925000D02*
X201041000Y34925000D01*
X215011000Y48895000D02*
X215011000Y34925000D01*
X201041000Y48895000D02*
X215011000Y48895000D01*
X181991000Y34925000D02*
X181991000Y48895000D01*
X195961000Y34925000D02*
X181991000Y34925000D01*
X195961000Y48895000D02*
X195961000Y34925000D01*
X181991000Y48895000D02*
X195961000Y48895000D01*
X162941000Y34925000D02*
X162941000Y48895000D01*
X176911000Y34925000D02*
X162941000Y34925000D01*
X176911000Y48895000D02*
X176911000Y34925000D01*
X162941000Y48895000D02*
X176911000Y48895000D01*
X129921000Y35179000D02*
X129921000Y49149000D01*
X143891000Y35179000D02*
X129921000Y35179000D01*
X143891000Y49149000D02*
X143891000Y35179000D01*
X129921000Y49149000D02*
X143891000Y49149000D01*
X110871000Y35179000D02*
X110871000Y49149000D01*
X124841000Y35179000D02*
X110871000Y35179000D01*
X124841000Y49149000D02*
X124841000Y35179000D01*
X110871000Y49149000D02*
X124841000Y49149000D01*
X91821000Y35179000D02*
X91821000Y49149000D01*
X105791000Y35179000D02*
X91821000Y35179000D01*
X105791000Y49149000D02*
X105791000Y35179000D01*
X91821000Y49149000D02*
X105791000Y49149000D01*
X72771000Y35179000D02*
X72771000Y49149000D01*
X86741000Y35179000D02*
X72771000Y35179000D01*
X86741000Y49149000D02*
X86741000Y35179000D01*
X72771000Y49149000D02*
X86741000Y49149000D01*
X41021000Y35179000D02*
X41021000Y49149000D01*
X54991000Y35179000D02*
X41021000Y35179000D01*
X54991000Y49149000D02*
X54991000Y35179000D01*
X41021000Y49149000D02*
X54991000Y49149000D01*
X21971000Y35179000D02*
X21971000Y49149000D01*
X35941000Y35179000D02*
X21971000Y35179000D01*
X35941000Y49149000D02*
X35941000Y35179000D01*
X21971000Y49149000D02*
X35941000Y49149000D01*
X2921000Y35179000D02*
X2921000Y49149000D01*
X16891000Y35179000D02*
X2921000Y35179000D01*
X16891000Y49149000D02*
X16891000Y35179000D01*
X2921000Y49149000D02*
X16891000Y49149000D01*
X-16129000Y35179000D02*
X-16129000Y49149000D01*
X-2159000Y35179000D02*
X-16129000Y35179000D01*
X-2159000Y49149000D02*
X-2159000Y35179000D01*
X-16129000Y49149000D02*
X-2159000Y49149000D01*
X-46609000Y35179000D02*
X-46609000Y49149000D01*
X-32639000Y35179000D02*
X-46609000Y35179000D01*
X-32639000Y49149000D02*
X-32639000Y35179000D01*
X-46609000Y49149000D02*
X-32639000Y49149000D01*
X181991000Y15875000D02*
X181991000Y29845000D01*
X195961000Y15875000D02*
X181991000Y15875000D01*
X195961000Y29845000D02*
X195961000Y15875000D01*
X181991000Y29845000D02*
X195961000Y29845000D01*
X217551000Y-12573000D02*
X217551000Y1397000D01*
X231521000Y-12573000D02*
X217551000Y-12573000D01*
X231521000Y1397000D02*
X231521000Y-12573000D01*
X217551000Y1397000D02*
X231521000Y1397000D01*
X105791000Y15875000D02*
X105791000Y29845000D01*
X119761000Y15875000D02*
X105791000Y15875000D01*
X119761000Y29845000D02*
X119761000Y15875000D01*
X105791000Y29845000D02*
X119761000Y29845000D01*
X19939000Y-3175000D02*
X19939000Y10795000D01*
X33909000Y-3175000D02*
X19939000Y-3175000D01*
X33909000Y10795000D02*
X33909000Y-3175000D01*
X19939000Y10795000D02*
X33909000Y10795000D01*
X24257000Y-22225000D02*
X24257000Y-8255000D01*
X38227000Y-22225000D02*
X24257000Y-22225000D01*
X38227000Y-8255000D02*
X38227000Y-22225000D01*
X24257000Y-8255000D02*
X38227000Y-8255000D01*
X129159000Y-41275000D02*
X129159000Y-27305000D01*
X143129000Y-41275000D02*
X129159000Y-41275000D01*
X143129000Y-27305000D02*
X143129000Y-41275000D01*
X129159000Y-27305000D02*
X143129000Y-27305000D01*
X157607000Y-22225000D02*
X157607000Y-8255000D01*
X171577000Y-22225000D02*
X157607000Y-22225000D01*
X171577000Y-8255000D02*
X171577000Y-22225000D01*
X157607000Y-8255000D02*
X171577000Y-8255000D01*
X33909000Y-41275000D02*
X33909000Y-27305000D01*
X47879000Y-41275000D02*
X33909000Y-41275000D01*
X47879000Y-27305000D02*
X47879000Y-41275000D01*
X33909000Y-27305000D02*
X47879000Y-27305000D01*
X-23241000Y-41275000D02*
X-23241000Y-27305000D01*
X-9271000Y-41275000D02*
X-23241000Y-41275000D01*
X-9271000Y-27305000D02*
X-9271000Y-41275000D01*
X-23241000Y-27305000D02*
X-9271000Y-27305000D01*
X-46609000Y15875000D02*
X-46609000Y29845000D01*
X-32639000Y15875000D02*
X-46609000Y15875000D01*
X-32639000Y29845000D02*
X-32639000Y15875000D01*
X-46609000Y29845000D02*
X-32639000Y29845000D01*
X72009000Y-41275000D02*
X72009000Y-27305000D01*
X85979000Y-41275000D02*
X72009000Y-41275000D01*
X85979000Y-27305000D02*
X85979000Y-41275000D01*
X72009000Y-27305000D02*
X85979000Y-27305000D01*
X-13843000Y-22225000D02*
X-13843000Y-8255000D01*
X127000Y-22225000D02*
X-13843000Y-22225000D01*
X127000Y-8255000D02*
X127000Y-22225000D01*
X-13843000Y-8255000D02*
X127000Y-8255000D01*
D14*
X36833333Y-2952380D02*
X36833333Y-2285714D01*
X36833333Y-2380952D02*
X36880952Y-2333333D01*
X36976190Y-2285714D01*
X37119047Y-2285714D01*
X37214285Y-2333333D01*
X37261904Y-2428571D01*
X37261904Y-2952380D01*
X37261904Y-2428571D02*
X37309523Y-2333333D01*
X37404761Y-2285714D01*
X37547619Y-2285714D01*
X37642857Y-2333333D01*
X37690476Y-2428571D01*
X37690476Y-2952380D01*
X38166666Y-2285714D02*
X38166666Y-2952380D01*
X38166666Y-2380952D02*
X38214285Y-2333333D01*
X38309523Y-2285714D01*
X38452380Y-2285714D01*
X38547619Y-2333333D01*
X38595238Y-2428571D01*
X38595238Y-2952380D01*
X38928571Y-2285714D02*
X39309523Y-2285714D01*
X39071428Y-1952380D02*
X39071428Y-2809523D01*
X39119047Y-2904761D01*
X39214285Y-2952380D01*
X39309523Y-2952380D01*
X126333333Y-2952380D02*
X126333333Y-2285714D01*
X126333333Y-2380952D02*
X126380952Y-2333333D01*
X126476190Y-2285714D01*
X126619047Y-2285714D01*
X126714285Y-2333333D01*
X126761904Y-2428571D01*
X126761904Y-2952380D01*
X126761904Y-2428571D02*
X126809523Y-2333333D01*
X126904761Y-2285714D01*
X127047619Y-2285714D01*
X127142857Y-2333333D01*
X127190476Y-2428571D01*
X127190476Y-2952380D01*
X127666666Y-2285714D02*
X127666666Y-2952380D01*
X127666666Y-2380952D02*
X127714285Y-2333333D01*
X127809523Y-2285714D01*
X127952380Y-2285714D01*
X128047619Y-2333333D01*
X128095238Y-2428571D01*
X128095238Y-2952380D01*
X128428571Y-2285714D02*
X128809523Y-2285714D01*
X128571428Y-1952380D02*
X128571428Y-2809523D01*
X128619047Y-2904761D01*
X128714285Y-2952380D01*
X128809523Y-2952380D01*
D15*
X312077523Y42750619D02*
X312077523Y43476333D01*
X313347523Y43113476D02*
X312077523Y43113476D01*
X312077523Y43778714D02*
X312077523Y44564904D01*
X312561333Y44141571D01*
X312561333Y44323000D01*
X312621809Y44443952D01*
X312682285Y44504428D01*
X312803238Y44564904D01*
X313105619Y44564904D01*
X313226571Y44504428D01*
X313287047Y44443952D01*
X313347523Y44323000D01*
X313347523Y43960142D01*
X313287047Y43839190D01*
X313226571Y43778714D01*
X312198476Y45048714D02*
X312138000Y45109190D01*
X312077523Y45230142D01*
X312077523Y45532523D01*
X312138000Y45653476D01*
X312198476Y45713952D01*
X312319428Y45774428D01*
X312440380Y45774428D01*
X312621809Y45713952D01*
X313347523Y44988238D01*
X313347523Y45774428D01*
X284137523Y34132761D02*
X284137523Y34858476D01*
X285407523Y34495619D02*
X284137523Y34495619D01*
X284742285Y35281809D02*
X284742285Y35705142D01*
X285407523Y35886571D02*
X285407523Y35281809D01*
X284137523Y35281809D01*
X284137523Y35886571D01*
X284742285Y36430857D02*
X284742285Y36854190D01*
X285407523Y37035619D02*
X285407523Y36430857D01*
X284137523Y36430857D01*
X284137523Y37035619D01*
X285407523Y37579904D02*
X284137523Y37579904D01*
X285407523Y38305619D01*
X284137523Y38305619D01*
X285347047Y38849904D02*
X285407523Y39031333D01*
X285407523Y39333714D01*
X285347047Y39454666D01*
X285286571Y39515142D01*
X285165619Y39575619D01*
X285044666Y39575619D01*
X284923714Y39515142D01*
X284863238Y39454666D01*
X284802761Y39333714D01*
X284742285Y39091809D01*
X284681809Y38970857D01*
X284621333Y38910380D01*
X284500380Y38849904D01*
X284379428Y38849904D01*
X284258476Y38910380D01*
X284198000Y38970857D01*
X284137523Y39091809D01*
X284137523Y39394190D01*
X284198000Y39575619D01*
X284802761Y40361809D02*
X285407523Y40361809D01*
X284137523Y39938476D02*
X284802761Y40361809D01*
X284137523Y40785142D01*
X285528476Y40906095D02*
X285528476Y41873714D01*
X284137523Y42055142D02*
X284137523Y42841333D01*
X284621333Y42418000D01*
X284621333Y42599428D01*
X284681809Y42720380D01*
X284742285Y42780857D01*
X284863238Y42841333D01*
X285165619Y42841333D01*
X285286571Y42780857D01*
X285347047Y42720380D01*
X285407523Y42599428D01*
X285407523Y42236571D01*
X285347047Y42115619D01*
X285286571Y42055142D01*
X285286571Y43385619D02*
X285347047Y43446095D01*
X285407523Y43385619D01*
X285347047Y43325142D01*
X285286571Y43385619D01*
X285407523Y43385619D01*
X285407523Y44655619D02*
X285407523Y43929904D01*
X285407523Y44292761D02*
X284137523Y44292761D01*
X284318952Y44171809D01*
X284439904Y44050857D01*
X284500380Y43929904D01*
X284923714Y45199904D02*
X284923714Y46167523D01*
X284137523Y46651333D02*
X284137523Y47437523D01*
X284621333Y47014190D01*
X284621333Y47195619D01*
X284681809Y47316571D01*
X284742285Y47377047D01*
X284863238Y47437523D01*
X285165619Y47437523D01*
X285286571Y47377047D01*
X285347047Y47316571D01*
X285407523Y47195619D01*
X285407523Y46832761D01*
X285347047Y46711809D01*
X285286571Y46651333D01*
X285286571Y47981809D02*
X285347047Y48042285D01*
X285407523Y47981809D01*
X285347047Y47921333D01*
X285286571Y47981809D01*
X285407523Y47981809D01*
X284258476Y48526095D02*
X284198000Y48586571D01*
X284137523Y48707523D01*
X284137523Y49009904D01*
X284198000Y49130857D01*
X284258476Y49191333D01*
X284379428Y49251809D01*
X284500380Y49251809D01*
X284681809Y49191333D01*
X285407523Y48465619D01*
X285407523Y49251809D01*
X285528476Y49493714D02*
X285528476Y50461333D01*
X285407523Y50763714D02*
X284137523Y50763714D01*
X284137523Y51066095D01*
X284198000Y51247523D01*
X284318952Y51368476D01*
X284439904Y51428952D01*
X284681809Y51489428D01*
X284863238Y51489428D01*
X285105142Y51428952D01*
X285226095Y51368476D01*
X285347047Y51247523D01*
X285407523Y51066095D01*
X285407523Y50763714D01*
X285407523Y52033714D02*
X284137523Y52033714D01*
X285407523Y53243238D02*
X285407523Y52638476D01*
X284137523Y52638476D01*
D14*
X-34591428Y-7723142D02*
X-34639047Y-7770761D01*
X-34781904Y-7818380D01*
X-34877142Y-7818380D01*
X-35020000Y-7770761D01*
X-35115238Y-7675523D01*
X-35162857Y-7580285D01*
X-35210476Y-7389809D01*
X-35210476Y-7246952D01*
X-35162857Y-7056476D01*
X-35115238Y-6961238D01*
X-35020000Y-6866000D01*
X-34877142Y-6818380D01*
X-34781904Y-6818380D01*
X-34639047Y-6866000D01*
X-34591428Y-6913619D01*
X-34210476Y-7532666D02*
X-33734285Y-7532666D01*
X-34305714Y-7818380D02*
X-33972380Y-6818380D01*
X-33639047Y-7818380D01*
X-33305714Y-7818380D02*
X-33305714Y-6818380D01*
X-32924761Y-6818380D01*
X-32829523Y-6866000D01*
X-32781904Y-6913619D01*
X-32734285Y-7008857D01*
X-32734285Y-7151714D01*
X-32781904Y-7246952D01*
X-32829523Y-7294571D01*
X-32924761Y-7342190D01*
X-33305714Y-7342190D01*
X-32353333Y-7770761D02*
X-32210476Y-7818380D01*
X-31972380Y-7818380D01*
X-31877142Y-7770761D01*
X-31829523Y-7723142D01*
X-31781904Y-7627904D01*
X-31781904Y-7532666D01*
X-31829523Y-7437428D01*
X-31877142Y-7389809D01*
X-31972380Y-7342190D01*
X-32162857Y-7294571D01*
X-32258095Y-7246952D01*
X-32305714Y-7199333D01*
X-32353333Y-7104095D01*
X-32353333Y-7008857D01*
X-32305714Y-6913619D01*
X-32258095Y-6866000D01*
X-32162857Y-6818380D01*
X-31924761Y-6818380D01*
X-31781904Y-6866000D01*
X-30829523Y-7818380D02*
X-31400952Y-7818380D01*
X-31115238Y-7818380D02*
X-31115238Y-6818380D01*
X-31210476Y-6961238D01*
X-31305714Y-7056476D01*
X-31400952Y-7104095D01*
X-36742476Y12262099D02*
X-36171047Y12262099D01*
X-36456761Y11262099D02*
X-36456761Y12262099D01*
X-35885333Y11547813D02*
X-35409142Y11547813D01*
X-35980571Y11262099D02*
X-35647238Y12262099D01*
X-35313904Y11262099D01*
X-34647238Y11785908D02*
X-34504380Y11738289D01*
X-34456761Y11690670D01*
X-34409142Y11595432D01*
X-34409142Y11452575D01*
X-34456761Y11357337D01*
X-34504380Y11309718D01*
X-34599619Y11262099D01*
X-34980571Y11262099D01*
X-34980571Y12262099D01*
X-34647238Y12262099D01*
X-34552000Y12214480D01*
X-34504380Y12166860D01*
X-34456761Y12071622D01*
X-34456761Y11976384D01*
X-34504380Y11881146D01*
X-34552000Y11833527D01*
X-34647238Y11785908D01*
X-34980571Y11785908D01*
X-33456761Y11262099D02*
X-34028190Y11262099D01*
X-33742476Y11262099D02*
X-33742476Y12262099D01*
X-33837714Y12119241D01*
X-33932952Y12024003D01*
X-34028190Y11976384D01*
X-24166666Y-2952380D02*
X-24166666Y-2285714D01*
X-24166666Y-2380952D02*
X-24119047Y-2333333D01*
X-24023809Y-2285714D01*
X-23880952Y-2285714D01*
X-23785714Y-2333333D01*
X-23738095Y-2428571D01*
X-23738095Y-2952380D01*
X-23738095Y-2428571D02*
X-23690476Y-2333333D01*
X-23595238Y-2285714D01*
X-23452380Y-2285714D01*
X-23357142Y-2333333D01*
X-23309523Y-2428571D01*
X-23309523Y-2952380D01*
X-22833333Y-2285714D02*
X-22833333Y-2952380D01*
X-22833333Y-2380952D02*
X-22785714Y-2333333D01*
X-22690476Y-2285714D01*
X-22547619Y-2285714D01*
X-22452380Y-2333333D01*
X-22404761Y-2428571D01*
X-22404761Y-2952380D01*
X-22071428Y-2285714D02*
X-21690476Y-2285714D01*
X-21928571Y-1952380D02*
X-21928571Y-2809523D01*
X-21880952Y-2904761D01*
X-21785714Y-2952380D01*
X-21690476Y-2952380D01*
X-27066666Y-50852380D02*
X-27066666Y-50185714D01*
X-27066666Y-50280952D02*
X-27019047Y-50233333D01*
X-26923809Y-50185714D01*
X-26780952Y-50185714D01*
X-26685714Y-50233333D01*
X-26638095Y-50328571D01*
X-26638095Y-50852380D01*
X-26638095Y-50328571D02*
X-26590476Y-50233333D01*
X-26495238Y-50185714D01*
X-26352380Y-50185714D01*
X-26257142Y-50233333D01*
X-26209523Y-50328571D01*
X-26209523Y-50852380D01*
X-25733333Y-50185714D02*
X-25733333Y-50852380D01*
X-25733333Y-50280952D02*
X-25685714Y-50233333D01*
X-25590476Y-50185714D01*
X-25447619Y-50185714D01*
X-25352380Y-50233333D01*
X-25304761Y-50328571D01*
X-25304761Y-50852380D01*
X-24971428Y-50185714D02*
X-24590476Y-50185714D01*
X-24828571Y-49852380D02*
X-24828571Y-50709523D01*
X-24780952Y-50804761D01*
X-24685714Y-50852380D01*
X-24590476Y-50852380D01*
X49433333Y-50852380D02*
X49433333Y-50185714D01*
X49433333Y-50280952D02*
X49480952Y-50233333D01*
X49576190Y-50185714D01*
X49719047Y-50185714D01*
X49814285Y-50233333D01*
X49861904Y-50328571D01*
X49861904Y-50852380D01*
X49861904Y-50328571D02*
X49909523Y-50233333D01*
X50004761Y-50185714D01*
X50147619Y-50185714D01*
X50242857Y-50233333D01*
X50290476Y-50328571D01*
X50290476Y-50852380D01*
X50766666Y-50185714D02*
X50766666Y-50852380D01*
X50766666Y-50280952D02*
X50814285Y-50233333D01*
X50909523Y-50185714D01*
X51052380Y-50185714D01*
X51147619Y-50233333D01*
X51195238Y-50328571D01*
X51195238Y-50852380D01*
X51528571Y-50185714D02*
X51909523Y-50185714D01*
X51671428Y-49852380D02*
X51671428Y-50709523D01*
X51719047Y-50804761D01*
X51814285Y-50852380D01*
X51909523Y-50852380D01*
X106533333Y-50652380D02*
X106533333Y-49985714D01*
X106533333Y-50080952D02*
X106580952Y-50033333D01*
X106676190Y-49985714D01*
X106819047Y-49985714D01*
X106914285Y-50033333D01*
X106961904Y-50128571D01*
X106961904Y-50652380D01*
X106961904Y-50128571D02*
X107009523Y-50033333D01*
X107104761Y-49985714D01*
X107247619Y-49985714D01*
X107342857Y-50033333D01*
X107390476Y-50128571D01*
X107390476Y-50652380D01*
X107866666Y-49985714D02*
X107866666Y-50652380D01*
X107866666Y-50080952D02*
X107914285Y-50033333D01*
X108009523Y-49985714D01*
X108152380Y-49985714D01*
X108247619Y-50033333D01*
X108295238Y-50128571D01*
X108295238Y-50652380D01*
X108628571Y-49985714D02*
X109009523Y-49985714D01*
X108771428Y-49652380D02*
X108771428Y-50509523D01*
X108819047Y-50604761D01*
X108914285Y-50652380D01*
X109009523Y-50652380D01*
X211533333Y-50652380D02*
X211533333Y-49985714D01*
X211533333Y-50080952D02*
X211580952Y-50033333D01*
X211676190Y-49985714D01*
X211819047Y-49985714D01*
X211914285Y-50033333D01*
X211961904Y-50128571D01*
X211961904Y-50652380D01*
X211961904Y-50128571D02*
X212009523Y-50033333D01*
X212104761Y-49985714D01*
X212247619Y-49985714D01*
X212342857Y-50033333D01*
X212390476Y-50128571D01*
X212390476Y-50652380D01*
X212866666Y-49985714D02*
X212866666Y-50652380D01*
X212866666Y-50080952D02*
X212914285Y-50033333D01*
X213009523Y-49985714D01*
X213152380Y-49985714D01*
X213247619Y-50033333D01*
X213295238Y-50128571D01*
X213295238Y-50652380D01*
X213628571Y-49985714D02*
X214009523Y-49985714D01*
X213771428Y-49652380D02*
X213771428Y-50509523D01*
X213819047Y-50604761D01*
X213914285Y-50652380D01*
X214009523Y-50652380D01*
X272391333Y-41052380D02*
X272391333Y-40385714D01*
X272391333Y-40480952D02*
X272438952Y-40433333D01*
X272534190Y-40385714D01*
X272677047Y-40385714D01*
X272772285Y-40433333D01*
X272819904Y-40528571D01*
X272819904Y-41052380D01*
X272819904Y-40528571D02*
X272867523Y-40433333D01*
X272962761Y-40385714D01*
X273105619Y-40385714D01*
X273200857Y-40433333D01*
X273248476Y-40528571D01*
X273248476Y-41052380D01*
X273724666Y-40385714D02*
X273724666Y-41052380D01*
X273724666Y-40480952D02*
X273772285Y-40433333D01*
X273867523Y-40385714D01*
X274010380Y-40385714D01*
X274105619Y-40433333D01*
X274153238Y-40528571D01*
X274153238Y-41052380D01*
X274486571Y-40385714D02*
X274867523Y-40385714D01*
X274629428Y-40052380D02*
X274629428Y-40909523D01*
X274677047Y-41004761D01*
X274772285Y-41052380D01*
X274867523Y-41052380D01*
X273433333Y-2952380D02*
X273433333Y-2285714D01*
X273433333Y-2380952D02*
X273480952Y-2333333D01*
X273576190Y-2285714D01*
X273719047Y-2285714D01*
X273814285Y-2333333D01*
X273861904Y-2428571D01*
X273861904Y-2952380D01*
X273861904Y-2428571D02*
X273909523Y-2333333D01*
X274004761Y-2285714D01*
X274147619Y-2285714D01*
X274242857Y-2333333D01*
X274290476Y-2428571D01*
X274290476Y-2952380D01*
X274766666Y-2285714D02*
X274766666Y-2952380D01*
X274766666Y-2380952D02*
X274814285Y-2333333D01*
X274909523Y-2285714D01*
X275052380Y-2285714D01*
X275147619Y-2333333D01*
X275195238Y-2428571D01*
X275195238Y-2952380D01*
X275528571Y-2285714D02*
X275909523Y-2285714D01*
X275671428Y-1952380D02*
X275671428Y-2809523D01*
X275719047Y-2904761D01*
X275814285Y-2952380D01*
X275909523Y-2952380D01*
X302233333Y-22752380D02*
X302233333Y-22085714D01*
X302233333Y-22180952D02*
X302280952Y-22133333D01*
X302376190Y-22085714D01*
X302519047Y-22085714D01*
X302614285Y-22133333D01*
X302661904Y-22228571D01*
X302661904Y-22752380D01*
X302661904Y-22228571D02*
X302709523Y-22133333D01*
X302804761Y-22085714D01*
X302947619Y-22085714D01*
X303042857Y-22133333D01*
X303090476Y-22228571D01*
X303090476Y-22752380D01*
X303566666Y-22085714D02*
X303566666Y-22752380D01*
X303566666Y-22180952D02*
X303614285Y-22133333D01*
X303709523Y-22085714D01*
X303852380Y-22085714D01*
X303947619Y-22133333D01*
X303995238Y-22228571D01*
X303995238Y-22752380D01*
X304328571Y-22085714D02*
X304709523Y-22085714D01*
X304471428Y-21752380D02*
X304471428Y-22609523D01*
X304519047Y-22704761D01*
X304614285Y-22752380D01*
X304709523Y-22752380D01*
X303983333Y44847619D02*
X303983333Y45514285D01*
X303983333Y45419047D02*
X304030952Y45466666D01*
X304126190Y45514285D01*
X304269047Y45514285D01*
X304364285Y45466666D01*
X304411904Y45371428D01*
X304411904Y44847619D01*
X304411904Y45371428D02*
X304459523Y45466666D01*
X304554761Y45514285D01*
X304697619Y45514285D01*
X304792857Y45466666D01*
X304840476Y45371428D01*
X304840476Y44847619D01*
X305316666Y45514285D02*
X305316666Y44847619D01*
X305316666Y45419047D02*
X305364285Y45466666D01*
X305459523Y45514285D01*
X305602380Y45514285D01*
X305697619Y45466666D01*
X305745238Y45371428D01*
X305745238Y44847619D01*
X306078571Y45514285D02*
X306459523Y45514285D01*
X306221428Y45847619D02*
X306221428Y44990476D01*
X306269047Y44895238D01*
X306364285Y44847619D01*
X306459523Y44847619D01*
X254611333Y44911619D02*
X254611333Y45578285D01*
X254611333Y45483047D02*
X254658952Y45530666D01*
X254754190Y45578285D01*
X254897047Y45578285D01*
X254992285Y45530666D01*
X255039904Y45435428D01*
X255039904Y44911619D01*
X255039904Y45435428D02*
X255087523Y45530666D01*
X255182761Y45578285D01*
X255325619Y45578285D01*
X255420857Y45530666D01*
X255468476Y45435428D01*
X255468476Y44911619D01*
X255944666Y45578285D02*
X255944666Y44911619D01*
X255944666Y45483047D02*
X255992285Y45530666D01*
X256087523Y45578285D01*
X256230380Y45578285D01*
X256325619Y45530666D01*
X256373238Y45435428D01*
X256373238Y44911619D01*
X256706571Y45578285D02*
X257087523Y45578285D01*
X256849428Y45911619D02*
X256849428Y45054476D01*
X256897047Y44959238D01*
X256992285Y44911619D01*
X257087523Y44911619D01*
X152833333Y44847619D02*
X152833333Y45514285D01*
X152833333Y45419047D02*
X152880952Y45466666D01*
X152976190Y45514285D01*
X153119047Y45514285D01*
X153214285Y45466666D01*
X153261904Y45371428D01*
X153261904Y44847619D01*
X153261904Y45371428D02*
X153309523Y45466666D01*
X153404761Y45514285D01*
X153547619Y45514285D01*
X153642857Y45466666D01*
X153690476Y45371428D01*
X153690476Y44847619D01*
X154166666Y45514285D02*
X154166666Y44847619D01*
X154166666Y45419047D02*
X154214285Y45466666D01*
X154309523Y45514285D01*
X154452380Y45514285D01*
X154547619Y45466666D01*
X154595238Y45371428D01*
X154595238Y44847619D01*
X154928571Y45514285D02*
X155309523Y45514285D01*
X155071428Y45847619D02*
X155071428Y44990476D01*
X155119047Y44895238D01*
X155214285Y44847619D01*
X155309523Y44847619D01*
X63233333Y44847619D02*
X63233333Y45514285D01*
X63233333Y45419047D02*
X63280952Y45466666D01*
X63376190Y45514285D01*
X63519047Y45514285D01*
X63614285Y45466666D01*
X63661904Y45371428D01*
X63661904Y44847619D01*
X63661904Y45371428D02*
X63709523Y45466666D01*
X63804761Y45514285D01*
X63947619Y45514285D01*
X64042857Y45466666D01*
X64090476Y45371428D01*
X64090476Y44847619D01*
X64566666Y45514285D02*
X64566666Y44847619D01*
X64566666Y45419047D02*
X64614285Y45466666D01*
X64709523Y45514285D01*
X64852380Y45514285D01*
X64947619Y45466666D01*
X64995238Y45371428D01*
X64995238Y44847619D01*
X65328571Y45514285D02*
X65709523Y45514285D01*
X65471428Y45847619D02*
X65471428Y44990476D01*
X65519047Y44895238D01*
X65614285Y44847619D01*
X65709523Y44847619D01*
X-25266666Y44747619D02*
X-25266666Y45414285D01*
X-25266666Y45319047D02*
X-25219047Y45366666D01*
X-25123809Y45414285D01*
X-24980952Y45414285D01*
X-24885714Y45366666D01*
X-24838095Y45271428D01*
X-24838095Y44747619D01*
X-24838095Y45271428D02*
X-24790476Y45366666D01*
X-24695238Y45414285D01*
X-24552380Y45414285D01*
X-24457142Y45366666D01*
X-24409523Y45271428D01*
X-24409523Y44747619D01*
X-23933333Y45414285D02*
X-23933333Y44747619D01*
X-23933333Y45319047D02*
X-23885714Y45366666D01*
X-23790476Y45414285D01*
X-23647619Y45414285D01*
X-23552380Y45366666D01*
X-23504761Y45271428D01*
X-23504761Y44747619D01*
X-23171428Y45414285D02*
X-22790476Y45414285D01*
X-23028571Y45747619D02*
X-23028571Y44890476D01*
X-22980952Y44795238D01*
X-22885714Y44747619D01*
X-22790476Y44747619D01*
X-49593142Y-57440380D02*
X-49021714Y-57440380D01*
X-49307428Y-58440380D02*
X-49307428Y-57440380D01*
X-48688380Y-58440380D02*
X-48688380Y-57440380D01*
X-48307428Y-57440380D01*
X-48212190Y-57488000D01*
X-48164571Y-57535619D01*
X-48116952Y-57630857D01*
X-48116952Y-57773714D01*
X-48164571Y-57868952D01*
X-48212190Y-57916571D01*
X-48307428Y-57964190D01*
X-48688380Y-57964190D01*
X-47116952Y-58440380D02*
X-47450285Y-57964190D01*
X-47688380Y-58440380D02*
X-47688380Y-57440380D01*
X-47307428Y-57440380D01*
X-47212190Y-57488000D01*
X-47164571Y-57535619D01*
X-47116952Y-57630857D01*
X-47116952Y-57773714D01*
X-47164571Y-57868952D01*
X-47212190Y-57916571D01*
X-47307428Y-57964190D01*
X-47688380Y-57964190D01*
X-46497904Y-57440380D02*
X-46307428Y-57440380D01*
X-46212190Y-57488000D01*
X-46116952Y-57583238D01*
X-46069333Y-57773714D01*
X-46069333Y-58107047D01*
X-46116952Y-58297523D01*
X-46212190Y-58392761D01*
X-46307428Y-58440380D01*
X-46497904Y-58440380D01*
X-46593142Y-58392761D01*
X-46688380Y-58297523D01*
X-46736000Y-58107047D01*
X-46736000Y-57773714D01*
X-46688380Y-57583238D01*
X-46593142Y-57488000D01*
X-46497904Y-57440380D01*
X-45736000Y-57440380D02*
X-45497904Y-58440380D01*
X-45307428Y-57726095D01*
X-45116952Y-58440380D01*
X-44878857Y-57440380D01*
X-44069333Y-57440380D02*
X-44259809Y-57440380D01*
X-44355047Y-57488000D01*
X-44402666Y-57535619D01*
X-44497904Y-57678476D01*
X-44545523Y-57868952D01*
X-44545523Y-58249904D01*
X-44497904Y-58345142D01*
X-44450285Y-58392761D01*
X-44355047Y-58440380D01*
X-44164571Y-58440380D01*
X-44069333Y-58392761D01*
X-44021714Y-58345142D01*
X-43974095Y-58249904D01*
X-43974095Y-58011809D01*
X-44021714Y-57916571D01*
X-44069333Y-57868952D01*
X-44164571Y-57821333D01*
X-44355047Y-57821333D01*
X-44450285Y-57868952D01*
X-44497904Y-57916571D01*
X-44545523Y-58011809D01*
X-50863142Y-38898380D02*
X-50291714Y-38898380D01*
X-50577428Y-39898380D02*
X-50577428Y-38898380D01*
X-49958380Y-39898380D02*
X-49958380Y-38898380D01*
X-49577428Y-38898380D01*
X-49482190Y-38946000D01*
X-49434571Y-38993619D01*
X-49386952Y-39088857D01*
X-49386952Y-39231714D01*
X-49434571Y-39326952D01*
X-49482190Y-39374571D01*
X-49577428Y-39422190D01*
X-49958380Y-39422190D01*
X-48386952Y-39898380D02*
X-48720285Y-39422190D01*
X-48958380Y-39898380D02*
X-48958380Y-38898380D01*
X-48577428Y-38898380D01*
X-48482190Y-38946000D01*
X-48434571Y-38993619D01*
X-48386952Y-39088857D01*
X-48386952Y-39231714D01*
X-48434571Y-39326952D01*
X-48482190Y-39374571D01*
X-48577428Y-39422190D01*
X-48958380Y-39422190D01*
X-47767904Y-38898380D02*
X-47577428Y-38898380D01*
X-47482190Y-38946000D01*
X-47386952Y-39041238D01*
X-47339333Y-39231714D01*
X-47339333Y-39565047D01*
X-47386952Y-39755523D01*
X-47482190Y-39850761D01*
X-47577428Y-39898380D01*
X-47767904Y-39898380D01*
X-47863142Y-39850761D01*
X-47958380Y-39755523D01*
X-48006000Y-39565047D01*
X-48006000Y-39231714D01*
X-47958380Y-39041238D01*
X-47863142Y-38946000D01*
X-47767904Y-38898380D01*
X-47006000Y-38898380D02*
X-46767904Y-39898380D01*
X-46577428Y-39184095D01*
X-46386952Y-39898380D01*
X-46148857Y-38898380D01*
X-45291714Y-38898380D02*
X-45767904Y-38898380D01*
X-45815523Y-39374571D01*
X-45767904Y-39326952D01*
X-45672666Y-39279333D01*
X-45434571Y-39279333D01*
X-45339333Y-39326952D01*
X-45291714Y-39374571D01*
X-45244095Y-39469809D01*
X-45244095Y-39707904D01*
X-45291714Y-39803142D01*
X-45339333Y-39850761D01*
X-45434571Y-39898380D01*
X-45672666Y-39898380D01*
X-45767904Y-39850761D01*
X-45815523Y-39803142D01*
X-50101142Y-20610380D02*
X-49529714Y-20610380D01*
X-49815428Y-21610380D02*
X-49815428Y-20610380D01*
X-49196380Y-21610380D02*
X-49196380Y-20610380D01*
X-48815428Y-20610380D01*
X-48720190Y-20658000D01*
X-48672571Y-20705619D01*
X-48624952Y-20800857D01*
X-48624952Y-20943714D01*
X-48672571Y-21038952D01*
X-48720190Y-21086571D01*
X-48815428Y-21134190D01*
X-49196380Y-21134190D01*
X-47624952Y-21610380D02*
X-47958285Y-21134190D01*
X-48196380Y-21610380D02*
X-48196380Y-20610380D01*
X-47815428Y-20610380D01*
X-47720190Y-20658000D01*
X-47672571Y-20705619D01*
X-47624952Y-20800857D01*
X-47624952Y-20943714D01*
X-47672571Y-21038952D01*
X-47720190Y-21086571D01*
X-47815428Y-21134190D01*
X-48196380Y-21134190D01*
X-47005904Y-20610380D02*
X-46815428Y-20610380D01*
X-46720190Y-20658000D01*
X-46624952Y-20753238D01*
X-46577333Y-20943714D01*
X-46577333Y-21277047D01*
X-46624952Y-21467523D01*
X-46720190Y-21562761D01*
X-46815428Y-21610380D01*
X-47005904Y-21610380D01*
X-47101142Y-21562761D01*
X-47196380Y-21467523D01*
X-47244000Y-21277047D01*
X-47244000Y-20943714D01*
X-47196380Y-20753238D01*
X-47101142Y-20658000D01*
X-47005904Y-20610380D01*
X-46244000Y-20610380D02*
X-46005904Y-21610380D01*
X-45815428Y-20896095D01*
X-45624952Y-21610380D01*
X-45386857Y-20610380D01*
X-44577333Y-20943714D02*
X-44577333Y-21610380D01*
X-44815428Y-20562761D02*
X-45053523Y-21277047D01*
X-44434476Y-21277047D01*
X-49847142Y-1052380D02*
X-49275714Y-1052380D01*
X-49561428Y-2052380D02*
X-49561428Y-1052380D01*
X-48942380Y-2052380D02*
X-48942380Y-1052380D01*
X-48561428Y-1052380D01*
X-48466190Y-1100000D01*
X-48418571Y-1147619D01*
X-48370952Y-1242857D01*
X-48370952Y-1385714D01*
X-48418571Y-1480952D01*
X-48466190Y-1528571D01*
X-48561428Y-1576190D01*
X-48942380Y-1576190D01*
X-47370952Y-2052380D02*
X-47704285Y-1576190D01*
X-47942380Y-2052380D02*
X-47942380Y-1052380D01*
X-47561428Y-1052380D01*
X-47466190Y-1100000D01*
X-47418571Y-1147619D01*
X-47370952Y-1242857D01*
X-47370952Y-1385714D01*
X-47418571Y-1480952D01*
X-47466190Y-1528571D01*
X-47561428Y-1576190D01*
X-47942380Y-1576190D01*
X-46751904Y-1052380D02*
X-46561428Y-1052380D01*
X-46466190Y-1100000D01*
X-46370952Y-1195238D01*
X-46323333Y-1385714D01*
X-46323333Y-1719047D01*
X-46370952Y-1909523D01*
X-46466190Y-2004761D01*
X-46561428Y-2052380D01*
X-46751904Y-2052380D01*
X-46847142Y-2004761D01*
X-46942380Y-1909523D01*
X-46990000Y-1719047D01*
X-46990000Y-1385714D01*
X-46942380Y-1195238D01*
X-46847142Y-1100000D01*
X-46751904Y-1052380D01*
X-45990000Y-1052380D02*
X-45751904Y-2052380D01*
X-45561428Y-1338095D01*
X-45370952Y-2052380D01*
X-45132857Y-1052380D01*
X-44847142Y-1052380D02*
X-44228095Y-1052380D01*
X-44561428Y-1433333D01*
X-44418571Y-1433333D01*
X-44323333Y-1480952D01*
X-44275714Y-1528571D01*
X-44228095Y-1623809D01*
X-44228095Y-1861904D01*
X-44275714Y-1957142D01*
X-44323333Y-2004761D01*
X-44418571Y-2052380D01*
X-44704285Y-2052380D01*
X-44799523Y-2004761D01*
X-44847142Y-1957142D01*
X-50101142Y17743619D02*
X-49529714Y17743619D01*
X-49815428Y16743619D02*
X-49815428Y17743619D01*
X-49196380Y16743619D02*
X-49196380Y17743619D01*
X-48815428Y17743619D01*
X-48720190Y17696000D01*
X-48672571Y17648380D01*
X-48624952Y17553142D01*
X-48624952Y17410285D01*
X-48672571Y17315047D01*
X-48720190Y17267428D01*
X-48815428Y17219809D01*
X-49196380Y17219809D01*
X-47624952Y16743619D02*
X-47958285Y17219809D01*
X-48196380Y16743619D02*
X-48196380Y17743619D01*
X-47815428Y17743619D01*
X-47720190Y17696000D01*
X-47672571Y17648380D01*
X-47624952Y17553142D01*
X-47624952Y17410285D01*
X-47672571Y17315047D01*
X-47720190Y17267428D01*
X-47815428Y17219809D01*
X-48196380Y17219809D01*
X-47005904Y17743619D02*
X-46815428Y17743619D01*
X-46720190Y17696000D01*
X-46624952Y17600761D01*
X-46577333Y17410285D01*
X-46577333Y17076952D01*
X-46624952Y16886476D01*
X-46720190Y16791238D01*
X-46815428Y16743619D01*
X-47005904Y16743619D01*
X-47101142Y16791238D01*
X-47196380Y16886476D01*
X-47244000Y17076952D01*
X-47244000Y17410285D01*
X-47196380Y17600761D01*
X-47101142Y17696000D01*
X-47005904Y17743619D01*
X-46244000Y17743619D02*
X-46005904Y16743619D01*
X-45815428Y17457904D01*
X-45624952Y16743619D01*
X-45386857Y17743619D01*
X-45053523Y17648380D02*
X-45005904Y17696000D01*
X-44910666Y17743619D01*
X-44672571Y17743619D01*
X-44577333Y17696000D01*
X-44529714Y17648380D01*
X-44482095Y17553142D01*
X-44482095Y17457904D01*
X-44529714Y17315047D01*
X-45101142Y16743619D01*
X-44482095Y16743619D01*
X-31857142Y20245619D02*
X-31285714Y20245619D01*
X-31571428Y19245619D02*
X-31571428Y20245619D01*
X-30952380Y19245619D02*
X-30952380Y20245619D01*
X-30571428Y20245619D01*
X-30476190Y20198000D01*
X-30428571Y20150380D01*
X-30380952Y20055142D01*
X-30380952Y19912285D01*
X-30428571Y19817047D01*
X-30476190Y19769428D01*
X-30571428Y19721809D01*
X-30952380Y19721809D01*
X-29380952Y19245619D02*
X-29714285Y19721809D01*
X-29952380Y19245619D02*
X-29952380Y20245619D01*
X-29571428Y20245619D01*
X-29476190Y20198000D01*
X-29428571Y20150380D01*
X-29380952Y20055142D01*
X-29380952Y19912285D01*
X-29428571Y19817047D01*
X-29476190Y19769428D01*
X-29571428Y19721809D01*
X-29952380Y19721809D01*
X-28761904Y20245619D02*
X-28571428Y20245619D01*
X-28476190Y20198000D01*
X-28380952Y20102761D01*
X-28333333Y19912285D01*
X-28333333Y19578952D01*
X-28380952Y19388476D01*
X-28476190Y19293238D01*
X-28571428Y19245619D01*
X-28761904Y19245619D01*
X-28857142Y19293238D01*
X-28952380Y19388476D01*
X-29000000Y19578952D01*
X-29000000Y19912285D01*
X-28952380Y20102761D01*
X-28857142Y20198000D01*
X-28761904Y20245619D01*
X-28000000Y20245619D02*
X-27761904Y19245619D01*
X-27571428Y19959904D01*
X-27380952Y19245619D01*
X-27142857Y20245619D01*
X-26238095Y19245619D02*
X-26809523Y19245619D01*
X-26523809Y19245619D02*
X-26523809Y20245619D01*
X-26619047Y20102761D01*
X-26714285Y20007523D01*
X-26809523Y19959904D01*
X-50357142Y37745619D02*
X-49785714Y37745619D01*
X-50071428Y36745619D02*
X-50071428Y37745619D01*
X-49452380Y36745619D02*
X-49452380Y37745619D01*
X-49071428Y37745619D01*
X-48976190Y37698000D01*
X-48928571Y37650380D01*
X-48880952Y37555142D01*
X-48880952Y37412285D01*
X-48928571Y37317047D01*
X-48976190Y37269428D01*
X-49071428Y37221809D01*
X-49452380Y37221809D01*
X-47880952Y36745619D02*
X-48214285Y37221809D01*
X-48452380Y36745619D02*
X-48452380Y37745619D01*
X-48071428Y37745619D01*
X-47976190Y37698000D01*
X-47928571Y37650380D01*
X-47880952Y37555142D01*
X-47880952Y37412285D01*
X-47928571Y37317047D01*
X-47976190Y37269428D01*
X-48071428Y37221809D01*
X-48452380Y37221809D01*
X-47261904Y37745619D02*
X-47071428Y37745619D01*
X-46976190Y37698000D01*
X-46880952Y37602761D01*
X-46833333Y37412285D01*
X-46833333Y37078952D01*
X-46880952Y36888476D01*
X-46976190Y36793238D01*
X-47071428Y36745619D01*
X-47261904Y36745619D01*
X-47357142Y36793238D01*
X-47452380Y36888476D01*
X-47500000Y37078952D01*
X-47500000Y37412285D01*
X-47452380Y37602761D01*
X-47357142Y37698000D01*
X-47261904Y37745619D01*
X-46500000Y37745619D02*
X-46261904Y36745619D01*
X-46071428Y37459904D01*
X-45880952Y36745619D01*
X-45642857Y37745619D01*
X-45071428Y37745619D02*
X-44976190Y37745619D01*
X-44880952Y37698000D01*
X-44833333Y37650380D01*
X-44785714Y37555142D01*
X-44738095Y37364666D01*
X-44738095Y37126571D01*
X-44785714Y36936095D01*
X-44833333Y36840857D01*
X-44880952Y36793238D01*
X-44976190Y36745619D01*
X-45071428Y36745619D01*
X-45166666Y36793238D01*
X-45214285Y36840857D01*
X-45261904Y36936095D01*
X-45309523Y37126571D01*
X-45309523Y37364666D01*
X-45261904Y37555142D01*
X-45214285Y37650380D01*
X-45166666Y37698000D01*
X-45071428Y37745619D01*
X257083333Y21995619D02*
X257654761Y21995619D01*
X257369047Y20995619D02*
X257369047Y21995619D01*
X257988095Y20995619D02*
X257988095Y21995619D01*
X258369047Y21995619D01*
X258464285Y21948000D01*
X258511904Y21900380D01*
X258559523Y21805142D01*
X258559523Y21662285D01*
X258511904Y21567047D01*
X258464285Y21519428D01*
X258369047Y21471809D01*
X257988095Y21471809D01*
X259559523Y21090857D02*
X259511904Y21043238D01*
X259369047Y20995619D01*
X259273809Y20995619D01*
X259130952Y21043238D01*
X259035714Y21138476D01*
X258988095Y21233714D01*
X258940476Y21424190D01*
X258940476Y21567047D01*
X258988095Y21757523D01*
X259035714Y21852761D01*
X259130952Y21948000D01*
X259273809Y21995619D01*
X259369047Y21995619D01*
X259511904Y21948000D01*
X259559523Y21900380D01*
X260178571Y21995619D02*
X260369047Y21995619D01*
X260464285Y21948000D01*
X260559523Y21852761D01*
X260607142Y21662285D01*
X260607142Y21328952D01*
X260559523Y21138476D01*
X260464285Y21043238D01*
X260369047Y20995619D01*
X260178571Y20995619D01*
X260083333Y21043238D01*
X259988095Y21138476D01*
X259940476Y21328952D01*
X259940476Y21662285D01*
X259988095Y21852761D01*
X260083333Y21948000D01*
X260178571Y21995619D01*
X261511904Y20995619D02*
X261035714Y20995619D01*
X261035714Y21995619D01*
X262369047Y20995619D02*
X261797619Y20995619D01*
X262083333Y20995619D02*
X262083333Y21995619D01*
X261988095Y21852761D01*
X261892857Y21757523D01*
X261797619Y21709904D01*
X262750000Y21900380D02*
X262797619Y21948000D01*
X262892857Y21995619D01*
X263130952Y21995619D01*
X263226190Y21948000D01*
X263273809Y21900380D01*
X263321428Y21805142D01*
X263321428Y21709904D01*
X263273809Y21567047D01*
X262702380Y20995619D01*
X263321428Y20995619D01*
X216797333Y37047619D02*
X217368761Y37047619D01*
X217083047Y36047619D02*
X217083047Y37047619D01*
X217702095Y36047619D02*
X217702095Y37047619D01*
X218083047Y37047619D01*
X218178285Y37000000D01*
X218225904Y36952380D01*
X218273523Y36857142D01*
X218273523Y36714285D01*
X218225904Y36619047D01*
X218178285Y36571428D01*
X218083047Y36523809D01*
X217702095Y36523809D01*
X219273523Y36142857D02*
X219225904Y36095238D01*
X219083047Y36047619D01*
X218987809Y36047619D01*
X218844952Y36095238D01*
X218749714Y36190476D01*
X218702095Y36285714D01*
X218654476Y36476190D01*
X218654476Y36619047D01*
X218702095Y36809523D01*
X218749714Y36904761D01*
X218844952Y37000000D01*
X218987809Y37047619D01*
X219083047Y37047619D01*
X219225904Y37000000D01*
X219273523Y36952380D01*
X219892571Y37047619D02*
X220083047Y37047619D01*
X220178285Y37000000D01*
X220273523Y36904761D01*
X220321142Y36714285D01*
X220321142Y36380952D01*
X220273523Y36190476D01*
X220178285Y36095238D01*
X220083047Y36047619D01*
X219892571Y36047619D01*
X219797333Y36095238D01*
X219702095Y36190476D01*
X219654476Y36380952D01*
X219654476Y36714285D01*
X219702095Y36904761D01*
X219797333Y37000000D01*
X219892571Y37047619D01*
X221225904Y36047619D02*
X220749714Y36047619D01*
X220749714Y37047619D01*
X222083047Y36047619D02*
X221511619Y36047619D01*
X221797333Y36047619D02*
X221797333Y37047619D01*
X221702095Y36904761D01*
X221606857Y36809523D01*
X221511619Y36761904D01*
X223035428Y36047619D02*
X222464000Y36047619D01*
X222749714Y36047619D02*
X222749714Y37047619D01*
X222654476Y36904761D01*
X222559238Y36809523D01*
X222464000Y36761904D01*
X197239333Y36793619D02*
X197810761Y36793619D01*
X197525047Y35793619D02*
X197525047Y36793619D01*
X198144095Y35793619D02*
X198144095Y36793619D01*
X198525047Y36793619D01*
X198620285Y36746000D01*
X198667904Y36698380D01*
X198715523Y36603142D01*
X198715523Y36460285D01*
X198667904Y36365047D01*
X198620285Y36317428D01*
X198525047Y36269809D01*
X198144095Y36269809D01*
X199715523Y35888857D02*
X199667904Y35841238D01*
X199525047Y35793619D01*
X199429809Y35793619D01*
X199286952Y35841238D01*
X199191714Y35936476D01*
X199144095Y36031714D01*
X199096476Y36222190D01*
X199096476Y36365047D01*
X199144095Y36555523D01*
X199191714Y36650761D01*
X199286952Y36746000D01*
X199429809Y36793619D01*
X199525047Y36793619D01*
X199667904Y36746000D01*
X199715523Y36698380D01*
X200334571Y36793619D02*
X200525047Y36793619D01*
X200620285Y36746000D01*
X200715523Y36650761D01*
X200763142Y36460285D01*
X200763142Y36126952D01*
X200715523Y35936476D01*
X200620285Y35841238D01*
X200525047Y35793619D01*
X200334571Y35793619D01*
X200239333Y35841238D01*
X200144095Y35936476D01*
X200096476Y36126952D01*
X200096476Y36460285D01*
X200144095Y36650761D01*
X200239333Y36746000D01*
X200334571Y36793619D01*
X201667904Y35793619D02*
X201191714Y35793619D01*
X201191714Y36793619D01*
X202525047Y35793619D02*
X201953619Y35793619D01*
X202239333Y35793619D02*
X202239333Y36793619D01*
X202144095Y36650761D01*
X202048857Y36555523D01*
X201953619Y36507904D01*
X203144095Y36793619D02*
X203239333Y36793619D01*
X203334571Y36746000D01*
X203382190Y36698380D01*
X203429809Y36603142D01*
X203477428Y36412666D01*
X203477428Y36174571D01*
X203429809Y35984095D01*
X203382190Y35888857D01*
X203334571Y35841238D01*
X203239333Y35793619D01*
X203144095Y35793619D01*
X203048857Y35841238D01*
X203001238Y35888857D01*
X202953619Y35984095D01*
X202906000Y36174571D01*
X202906000Y36412666D01*
X202953619Y36603142D01*
X203001238Y36698380D01*
X203048857Y36746000D01*
X203144095Y36793619D01*
X178919523Y37047619D02*
X179490952Y37047619D01*
X179205238Y36047619D02*
X179205238Y37047619D01*
X179824285Y36047619D02*
X179824285Y37047619D01*
X180205238Y37047619D01*
X180300476Y37000000D01*
X180348095Y36952380D01*
X180395714Y36857142D01*
X180395714Y36714285D01*
X180348095Y36619047D01*
X180300476Y36571428D01*
X180205238Y36523809D01*
X179824285Y36523809D01*
X181395714Y36142857D02*
X181348095Y36095238D01*
X181205238Y36047619D01*
X181110000Y36047619D01*
X180967142Y36095238D01*
X180871904Y36190476D01*
X180824285Y36285714D01*
X180776666Y36476190D01*
X180776666Y36619047D01*
X180824285Y36809523D01*
X180871904Y36904761D01*
X180967142Y37000000D01*
X181110000Y37047619D01*
X181205238Y37047619D01*
X181348095Y37000000D01*
X181395714Y36952380D01*
X182014761Y37047619D02*
X182205238Y37047619D01*
X182300476Y37000000D01*
X182395714Y36904761D01*
X182443333Y36714285D01*
X182443333Y36380952D01*
X182395714Y36190476D01*
X182300476Y36095238D01*
X182205238Y36047619D01*
X182014761Y36047619D01*
X181919523Y36095238D01*
X181824285Y36190476D01*
X181776666Y36380952D01*
X181776666Y36714285D01*
X181824285Y36904761D01*
X181919523Y37000000D01*
X182014761Y37047619D01*
X183348095Y36047619D02*
X182871904Y36047619D01*
X182871904Y37047619D01*
X183729047Y36047619D02*
X183919523Y36047619D01*
X184014761Y36095238D01*
X184062380Y36142857D01*
X184157619Y36285714D01*
X184205238Y36476190D01*
X184205238Y36857142D01*
X184157619Y36952380D01*
X184110000Y37000000D01*
X184014761Y37047619D01*
X183824285Y37047619D01*
X183729047Y37000000D01*
X183681428Y36952380D01*
X183633809Y36857142D01*
X183633809Y36619047D01*
X183681428Y36523809D01*
X183729047Y36476190D01*
X183824285Y36428571D01*
X184014761Y36428571D01*
X184110000Y36476190D01*
X184157619Y36523809D01*
X184205238Y36619047D01*
X159869523Y36539619D02*
X160440952Y36539619D01*
X160155238Y35539619D02*
X160155238Y36539619D01*
X160774285Y35539619D02*
X160774285Y36539619D01*
X161155238Y36539619D01*
X161250476Y36492000D01*
X161298095Y36444380D01*
X161345714Y36349142D01*
X161345714Y36206285D01*
X161298095Y36111047D01*
X161250476Y36063428D01*
X161155238Y36015809D01*
X160774285Y36015809D01*
X162345714Y35634857D02*
X162298095Y35587238D01*
X162155238Y35539619D01*
X162060000Y35539619D01*
X161917142Y35587238D01*
X161821904Y35682476D01*
X161774285Y35777714D01*
X161726666Y35968190D01*
X161726666Y36111047D01*
X161774285Y36301523D01*
X161821904Y36396761D01*
X161917142Y36492000D01*
X162060000Y36539619D01*
X162155238Y36539619D01*
X162298095Y36492000D01*
X162345714Y36444380D01*
X162964761Y36539619D02*
X163155238Y36539619D01*
X163250476Y36492000D01*
X163345714Y36396761D01*
X163393333Y36206285D01*
X163393333Y35872952D01*
X163345714Y35682476D01*
X163250476Y35587238D01*
X163155238Y35539619D01*
X162964761Y35539619D01*
X162869523Y35587238D01*
X162774285Y35682476D01*
X162726666Y35872952D01*
X162726666Y36206285D01*
X162774285Y36396761D01*
X162869523Y36492000D01*
X162964761Y36539619D01*
X164298095Y35539619D02*
X163821904Y35539619D01*
X163821904Y36539619D01*
X164774285Y36111047D02*
X164679047Y36158666D01*
X164631428Y36206285D01*
X164583809Y36301523D01*
X164583809Y36349142D01*
X164631428Y36444380D01*
X164679047Y36492000D01*
X164774285Y36539619D01*
X164964761Y36539619D01*
X165060000Y36492000D01*
X165107619Y36444380D01*
X165155238Y36349142D01*
X165155238Y36301523D01*
X165107619Y36206285D01*
X165060000Y36158666D01*
X164964761Y36111047D01*
X164774285Y36111047D01*
X164679047Y36063428D01*
X164631428Y36015809D01*
X164583809Y35920571D01*
X164583809Y35730095D01*
X164631428Y35634857D01*
X164679047Y35587238D01*
X164774285Y35539619D01*
X164964761Y35539619D01*
X165060000Y35587238D01*
X165107619Y35634857D01*
X165155238Y35730095D01*
X165155238Y35920571D01*
X165107619Y36015809D01*
X165060000Y36063428D01*
X164964761Y36111047D01*
X126849523Y37047619D02*
X127420952Y37047619D01*
X127135238Y36047619D02*
X127135238Y37047619D01*
X127754285Y36047619D02*
X127754285Y37047619D01*
X128135238Y37047619D01*
X128230476Y37000000D01*
X128278095Y36952380D01*
X128325714Y36857142D01*
X128325714Y36714285D01*
X128278095Y36619047D01*
X128230476Y36571428D01*
X128135238Y36523809D01*
X127754285Y36523809D01*
X129325714Y36142857D02*
X129278095Y36095238D01*
X129135238Y36047619D01*
X129040000Y36047619D01*
X128897142Y36095238D01*
X128801904Y36190476D01*
X128754285Y36285714D01*
X128706666Y36476190D01*
X128706666Y36619047D01*
X128754285Y36809523D01*
X128801904Y36904761D01*
X128897142Y37000000D01*
X129040000Y37047619D01*
X129135238Y37047619D01*
X129278095Y37000000D01*
X129325714Y36952380D01*
X129944761Y37047619D02*
X130135238Y37047619D01*
X130230476Y37000000D01*
X130325714Y36904761D01*
X130373333Y36714285D01*
X130373333Y36380952D01*
X130325714Y36190476D01*
X130230476Y36095238D01*
X130135238Y36047619D01*
X129944761Y36047619D01*
X129849523Y36095238D01*
X129754285Y36190476D01*
X129706666Y36380952D01*
X129706666Y36714285D01*
X129754285Y36904761D01*
X129849523Y37000000D01*
X129944761Y37047619D01*
X131278095Y36047619D02*
X130801904Y36047619D01*
X130801904Y37047619D01*
X131516190Y37047619D02*
X132182857Y37047619D01*
X131754285Y36047619D01*
X88749523Y37047619D02*
X89320952Y37047619D01*
X89035238Y36047619D02*
X89035238Y37047619D01*
X89654285Y36047619D02*
X89654285Y37047619D01*
X90035238Y37047619D01*
X90130476Y37000000D01*
X90178095Y36952380D01*
X90225714Y36857142D01*
X90225714Y36714285D01*
X90178095Y36619047D01*
X90130476Y36571428D01*
X90035238Y36523809D01*
X89654285Y36523809D01*
X91225714Y36142857D02*
X91178095Y36095238D01*
X91035238Y36047619D01*
X90940000Y36047619D01*
X90797142Y36095238D01*
X90701904Y36190476D01*
X90654285Y36285714D01*
X90606666Y36476190D01*
X90606666Y36619047D01*
X90654285Y36809523D01*
X90701904Y36904761D01*
X90797142Y37000000D01*
X90940000Y37047619D01*
X91035238Y37047619D01*
X91178095Y37000000D01*
X91225714Y36952380D01*
X91844761Y37047619D02*
X92035238Y37047619D01*
X92130476Y37000000D01*
X92225714Y36904761D01*
X92273333Y36714285D01*
X92273333Y36380952D01*
X92225714Y36190476D01*
X92130476Y36095238D01*
X92035238Y36047619D01*
X91844761Y36047619D01*
X91749523Y36095238D01*
X91654285Y36190476D01*
X91606666Y36380952D01*
X91606666Y36714285D01*
X91654285Y36904761D01*
X91749523Y37000000D01*
X91844761Y37047619D01*
X93178095Y36047619D02*
X92701904Y36047619D01*
X92701904Y37047619D01*
X93940000Y37047619D02*
X93749523Y37047619D01*
X93654285Y37000000D01*
X93606666Y36952380D01*
X93511428Y36809523D01*
X93463809Y36619047D01*
X93463809Y36238095D01*
X93511428Y36142857D01*
X93559047Y36095238D01*
X93654285Y36047619D01*
X93844761Y36047619D01*
X93940000Y36095238D01*
X93987619Y36142857D01*
X94035238Y36238095D01*
X94035238Y36476190D01*
X93987619Y36571428D01*
X93940000Y36619047D01*
X93844761Y36666666D01*
X93654285Y36666666D01*
X93559047Y36619047D01*
X93511428Y36571428D01*
X93463809Y36476190D01*
X69445523Y36793619D02*
X70016952Y36793619D01*
X69731238Y35793619D02*
X69731238Y36793619D01*
X70350285Y35793619D02*
X70350285Y36793619D01*
X70731238Y36793619D01*
X70826476Y36746000D01*
X70874095Y36698380D01*
X70921714Y36603142D01*
X70921714Y36460285D01*
X70874095Y36365047D01*
X70826476Y36317428D01*
X70731238Y36269809D01*
X70350285Y36269809D01*
X71921714Y35888857D02*
X71874095Y35841238D01*
X71731238Y35793619D01*
X71636000Y35793619D01*
X71493142Y35841238D01*
X71397904Y35936476D01*
X71350285Y36031714D01*
X71302666Y36222190D01*
X71302666Y36365047D01*
X71350285Y36555523D01*
X71397904Y36650761D01*
X71493142Y36746000D01*
X71636000Y36793619D01*
X71731238Y36793619D01*
X71874095Y36746000D01*
X71921714Y36698380D01*
X72540761Y36793619D02*
X72731238Y36793619D01*
X72826476Y36746000D01*
X72921714Y36650761D01*
X72969333Y36460285D01*
X72969333Y36126952D01*
X72921714Y35936476D01*
X72826476Y35841238D01*
X72731238Y35793619D01*
X72540761Y35793619D01*
X72445523Y35841238D01*
X72350285Y35936476D01*
X72302666Y36126952D01*
X72302666Y36460285D01*
X72350285Y36650761D01*
X72445523Y36746000D01*
X72540761Y36793619D01*
X73874095Y35793619D02*
X73397904Y35793619D01*
X73397904Y36793619D01*
X74683619Y36793619D02*
X74207428Y36793619D01*
X74159809Y36317428D01*
X74207428Y36365047D01*
X74302666Y36412666D01*
X74540761Y36412666D01*
X74636000Y36365047D01*
X74683619Y36317428D01*
X74731238Y36222190D01*
X74731238Y35984095D01*
X74683619Y35888857D01*
X74636000Y35841238D01*
X74540761Y35793619D01*
X74302666Y35793619D01*
X74207428Y35841238D01*
X74159809Y35888857D01*
X37949523Y37301619D02*
X38520952Y37301619D01*
X38235238Y36301619D02*
X38235238Y37301619D01*
X38854285Y36301619D02*
X38854285Y37301619D01*
X39235238Y37301619D01*
X39330476Y37254000D01*
X39378095Y37206380D01*
X39425714Y37111142D01*
X39425714Y36968285D01*
X39378095Y36873047D01*
X39330476Y36825428D01*
X39235238Y36777809D01*
X38854285Y36777809D01*
X40425714Y36396857D02*
X40378095Y36349238D01*
X40235238Y36301619D01*
X40140000Y36301619D01*
X39997142Y36349238D01*
X39901904Y36444476D01*
X39854285Y36539714D01*
X39806666Y36730190D01*
X39806666Y36873047D01*
X39854285Y37063523D01*
X39901904Y37158761D01*
X39997142Y37254000D01*
X40140000Y37301619D01*
X40235238Y37301619D01*
X40378095Y37254000D01*
X40425714Y37206380D01*
X41044761Y37301619D02*
X41235238Y37301619D01*
X41330476Y37254000D01*
X41425714Y37158761D01*
X41473333Y36968285D01*
X41473333Y36634952D01*
X41425714Y36444476D01*
X41330476Y36349238D01*
X41235238Y36301619D01*
X41044761Y36301619D01*
X40949523Y36349238D01*
X40854285Y36444476D01*
X40806666Y36634952D01*
X40806666Y36968285D01*
X40854285Y37158761D01*
X40949523Y37254000D01*
X41044761Y37301619D01*
X42378095Y36301619D02*
X41901904Y36301619D01*
X41901904Y37301619D01*
X43140000Y36968285D02*
X43140000Y36301619D01*
X42901904Y37349238D02*
X42663809Y36634952D01*
X43282857Y36634952D01*
X18645523Y37301619D02*
X19216952Y37301619D01*
X18931238Y36301619D02*
X18931238Y37301619D01*
X19550285Y36301619D02*
X19550285Y37301619D01*
X19931238Y37301619D01*
X20026476Y37254000D01*
X20074095Y37206380D01*
X20121714Y37111142D01*
X20121714Y36968285D01*
X20074095Y36873047D01*
X20026476Y36825428D01*
X19931238Y36777809D01*
X19550285Y36777809D01*
X21121714Y36396857D02*
X21074095Y36349238D01*
X20931238Y36301619D01*
X20836000Y36301619D01*
X20693142Y36349238D01*
X20597904Y36444476D01*
X20550285Y36539714D01*
X20502666Y36730190D01*
X20502666Y36873047D01*
X20550285Y37063523D01*
X20597904Y37158761D01*
X20693142Y37254000D01*
X20836000Y37301619D01*
X20931238Y37301619D01*
X21074095Y37254000D01*
X21121714Y37206380D01*
X21740761Y37301619D02*
X21931238Y37301619D01*
X22026476Y37254000D01*
X22121714Y37158761D01*
X22169333Y36968285D01*
X22169333Y36634952D01*
X22121714Y36444476D01*
X22026476Y36349238D01*
X21931238Y36301619D01*
X21740761Y36301619D01*
X21645523Y36349238D01*
X21550285Y36444476D01*
X21502666Y36634952D01*
X21502666Y36968285D01*
X21550285Y37158761D01*
X21645523Y37254000D01*
X21740761Y37301619D01*
X23074095Y36301619D02*
X22597904Y36301619D01*
X22597904Y37301619D01*
X23312190Y37301619D02*
X23931238Y37301619D01*
X23597904Y36920666D01*
X23740761Y36920666D01*
X23836000Y36873047D01*
X23883619Y36825428D01*
X23931238Y36730190D01*
X23931238Y36492095D01*
X23883619Y36396857D01*
X23836000Y36349238D01*
X23740761Y36301619D01*
X23455047Y36301619D01*
X23359809Y36349238D01*
X23312190Y36396857D01*
X611523Y37047619D02*
X1182952Y37047619D01*
X897238Y36047619D02*
X897238Y37047619D01*
X1516285Y36047619D02*
X1516285Y37047619D01*
X1897238Y37047619D01*
X1992476Y37000000D01*
X2040095Y36952380D01*
X2087714Y36857142D01*
X2087714Y36714285D01*
X2040095Y36619047D01*
X1992476Y36571428D01*
X1897238Y36523809D01*
X1516285Y36523809D01*
X3087714Y36142857D02*
X3040095Y36095238D01*
X2897238Y36047619D01*
X2802000Y36047619D01*
X2659142Y36095238D01*
X2563904Y36190476D01*
X2516285Y36285714D01*
X2468666Y36476190D01*
X2468666Y36619047D01*
X2516285Y36809523D01*
X2563904Y36904761D01*
X2659142Y37000000D01*
X2802000Y37047619D01*
X2897238Y37047619D01*
X3040095Y37000000D01*
X3087714Y36952380D01*
X3706761Y37047619D02*
X3897238Y37047619D01*
X3992476Y37000000D01*
X4087714Y36904761D01*
X4135333Y36714285D01*
X4135333Y36380952D01*
X4087714Y36190476D01*
X3992476Y36095238D01*
X3897238Y36047619D01*
X3706761Y36047619D01*
X3611523Y36095238D01*
X3516285Y36190476D01*
X3468666Y36380952D01*
X3468666Y36714285D01*
X3516285Y36904761D01*
X3611523Y37000000D01*
X3706761Y37047619D01*
X5040095Y36047619D02*
X4563904Y36047619D01*
X4563904Y37047619D01*
X5325809Y36952380D02*
X5373428Y37000000D01*
X5468666Y37047619D01*
X5706761Y37047619D01*
X5802000Y37000000D01*
X5849619Y36952380D01*
X5897238Y36857142D01*
X5897238Y36761904D01*
X5849619Y36619047D01*
X5278190Y36047619D01*
X5897238Y36047619D01*
X-18946476Y37047619D02*
X-18375047Y37047619D01*
X-18660761Y36047619D02*
X-18660761Y37047619D01*
X-18041714Y36047619D02*
X-18041714Y37047619D01*
X-17660761Y37047619D01*
X-17565523Y37000000D01*
X-17517904Y36952380D01*
X-17470285Y36857142D01*
X-17470285Y36714285D01*
X-17517904Y36619047D01*
X-17565523Y36571428D01*
X-17660761Y36523809D01*
X-18041714Y36523809D01*
X-16470285Y36142857D02*
X-16517904Y36095238D01*
X-16660761Y36047619D01*
X-16755999Y36047619D01*
X-16898857Y36095238D01*
X-16994095Y36190476D01*
X-17041714Y36285714D01*
X-17089333Y36476190D01*
X-17089333Y36619047D01*
X-17041714Y36809523D01*
X-16994095Y36904761D01*
X-16898857Y37000000D01*
X-16755999Y37047619D01*
X-16660761Y37047619D01*
X-16517904Y37000000D01*
X-16470285Y36952380D01*
X-15851238Y37047619D02*
X-15660761Y37047619D01*
X-15565523Y37000000D01*
X-15470285Y36904761D01*
X-15422666Y36714285D01*
X-15422666Y36380952D01*
X-15470285Y36190476D01*
X-15565523Y36095238D01*
X-15660761Y36047619D01*
X-15851238Y36047619D01*
X-15946476Y36095238D01*
X-16041714Y36190476D01*
X-16089333Y36380952D01*
X-16089333Y36714285D01*
X-16041714Y36904761D01*
X-15946476Y37000000D01*
X-15851238Y37047619D01*
X-14517904Y36047619D02*
X-14994095Y36047619D01*
X-14994095Y37047619D01*
X-13660761Y36047619D02*
X-14232190Y36047619D01*
X-13946476Y36047619D02*
X-13946476Y37047619D01*
X-14041714Y36904761D01*
X-14136952Y36809523D01*
X-14232190Y36761904D01*
X-29614476Y37047619D02*
X-29043047Y37047619D01*
X-29328761Y36047619D02*
X-29328761Y37047619D01*
X-28709714Y36047619D02*
X-28709714Y37047619D01*
X-28328761Y37047619D01*
X-28233523Y37000000D01*
X-28185904Y36952380D01*
X-28138285Y36857142D01*
X-28138285Y36714285D01*
X-28185904Y36619047D01*
X-28233523Y36571428D01*
X-28328761Y36523809D01*
X-28709714Y36523809D01*
X-27138285Y36142857D02*
X-27185904Y36095238D01*
X-27328761Y36047619D01*
X-27424000Y36047619D01*
X-27566857Y36095238D01*
X-27662095Y36190476D01*
X-27709714Y36285714D01*
X-27757333Y36476190D01*
X-27757333Y36619047D01*
X-27709714Y36809523D01*
X-27662095Y36904761D01*
X-27566857Y37000000D01*
X-27424000Y37047619D01*
X-27328761Y37047619D01*
X-27185904Y37000000D01*
X-27138285Y36952380D01*
X-26519238Y37047619D02*
X-26328761Y37047619D01*
X-26233523Y37000000D01*
X-26138285Y36904761D01*
X-26090666Y36714285D01*
X-26090666Y36380952D01*
X-26138285Y36190476D01*
X-26233523Y36095238D01*
X-26328761Y36047619D01*
X-26519238Y36047619D01*
X-26614476Y36095238D01*
X-26709714Y36190476D01*
X-26757333Y36380952D01*
X-26757333Y36714285D01*
X-26709714Y36904761D01*
X-26614476Y37000000D01*
X-26519238Y37047619D01*
X-25185904Y36047619D02*
X-25662095Y36047619D01*
X-25662095Y37047619D01*
X-24662095Y37047619D02*
X-24566857Y37047619D01*
X-24471619Y37000000D01*
X-24424000Y36952380D01*
X-24376380Y36857142D01*
X-24328761Y36666666D01*
X-24328761Y36428571D01*
X-24376380Y36238095D01*
X-24424000Y36142857D01*
X-24471619Y36095238D01*
X-24566857Y36047619D01*
X-24662095Y36047619D01*
X-24757333Y36095238D01*
X-24804952Y36142857D01*
X-24852571Y36238095D01*
X-24900190Y36428571D01*
X-24900190Y36666666D01*
X-24852571Y36857142D01*
X-24804952Y36952380D01*
X-24757333Y37000000D01*
X-24662095Y37047619D01*
X294425904Y17997619D02*
X294997333Y17997619D01*
X294711619Y16997619D02*
X294711619Y17997619D01*
X295330666Y16997619D02*
X295330666Y17997619D01*
X295711619Y17997619D01*
X295806857Y17950000D01*
X295854476Y17902380D01*
X295902095Y17807142D01*
X295902095Y17664285D01*
X295854476Y17569047D01*
X295806857Y17521428D01*
X295711619Y17473809D01*
X295330666Y17473809D01*
X296854476Y16997619D02*
X296283047Y16997619D01*
X296568761Y16997619D02*
X296568761Y17997619D01*
X296473523Y17854761D01*
X296378285Y17759523D01*
X296283047Y17711904D01*
X297187809Y17997619D02*
X297806857Y17997619D01*
X297473523Y17616666D01*
X297616380Y17616666D01*
X297711619Y17569047D01*
X297759238Y17521428D01*
X297806857Y17426190D01*
X297806857Y17188095D01*
X297759238Y17092857D01*
X297711619Y17045238D01*
X297616380Y16997619D01*
X297330666Y16997619D01*
X297235428Y17045238D01*
X297187809Y17092857D01*
X215543047Y30805428D02*
X215685904Y30757809D01*
X215733523Y30710190D01*
X215781142Y30614952D01*
X215781142Y30472095D01*
X215733523Y30376857D01*
X215685904Y30329238D01*
X215590666Y30281619D01*
X215209714Y30281619D01*
X215209714Y31281619D01*
X215543047Y31281619D01*
X215638285Y31234000D01*
X215685904Y31186380D01*
X215733523Y31091142D01*
X215733523Y30995904D01*
X215685904Y30900666D01*
X215638285Y30853047D01*
X215543047Y30805428D01*
X215209714Y30805428D01*
X216209714Y30281619D02*
X216209714Y31281619D01*
X216781142Y30281619D02*
X216352571Y30853047D01*
X216781142Y31281619D02*
X216209714Y30710190D01*
X217162095Y30329238D02*
X217304952Y30281619D01*
X217543047Y30281619D01*
X217638285Y30329238D01*
X217685904Y30376857D01*
X217733523Y30472095D01*
X217733523Y30567333D01*
X217685904Y30662571D01*
X217638285Y30710190D01*
X217543047Y30757809D01*
X217352571Y30805428D01*
X217257333Y30853047D01*
X217209714Y30900666D01*
X217162095Y30995904D01*
X217162095Y31091142D01*
X217209714Y31186380D01*
X217257333Y31234000D01*
X217352571Y31281619D01*
X217590666Y31281619D01*
X217733523Y31234000D01*
X218162095Y30281619D02*
X218162095Y31281619D01*
X218543047Y31281619D01*
X218638285Y31234000D01*
X218685904Y31186380D01*
X218733523Y31091142D01*
X218733523Y30948285D01*
X218685904Y30853047D01*
X218638285Y30805428D01*
X218543047Y30757809D01*
X218162095Y30757809D01*
X219685904Y30281619D02*
X219114476Y30281619D01*
X219400190Y30281619D02*
X219400190Y31281619D01*
X219304952Y31138761D01*
X219209714Y31043523D01*
X219114476Y30995904D01*
X208335809Y-26868380D02*
X208002476Y-26392190D01*
X207764380Y-26868380D02*
X207764380Y-25868380D01*
X208145333Y-25868380D01*
X208240571Y-25916000D01*
X208288190Y-25963619D01*
X208335809Y-26058857D01*
X208335809Y-26201714D01*
X208288190Y-26296952D01*
X208240571Y-26344571D01*
X208145333Y-26392190D01*
X207764380Y-26392190D01*
X208716761Y-26820761D02*
X208859619Y-26868380D01*
X209097714Y-26868380D01*
X209192952Y-26820761D01*
X209240571Y-26773142D01*
X209288190Y-26677904D01*
X209288190Y-26582666D01*
X209240571Y-26487428D01*
X209192952Y-26439809D01*
X209097714Y-26392190D01*
X208907238Y-26344571D01*
X208812000Y-26296952D01*
X208764380Y-26249333D01*
X208716761Y-26154095D01*
X208716761Y-26058857D01*
X208764380Y-25963619D01*
X208812000Y-25916000D01*
X208907238Y-25868380D01*
X209145333Y-25868380D01*
X209288190Y-25916000D01*
X209716761Y-26868380D02*
X209716761Y-25868380D01*
X209716761Y-26344571D02*
X210288190Y-26344571D01*
X210288190Y-26868380D02*
X210288190Y-25868380D01*
X211097714Y-26344571D02*
X210764380Y-26344571D01*
X210764380Y-26868380D02*
X210764380Y-25868380D01*
X211240571Y-25868380D01*
X211478666Y-25868380D02*
X212050095Y-25868380D01*
X211764380Y-26868380D02*
X211764380Y-25868380D01*
X212907238Y-26868380D02*
X212335809Y-26868380D01*
X212621523Y-26868380D02*
X212621523Y-25868380D01*
X212526285Y-26011238D01*
X212431047Y-26106476D01*
X212335809Y-26154095D01*
X300863333Y1833619D02*
X300863333Y2833619D01*
X301434761Y1833619D01*
X301434761Y2833619D01*
X301910952Y1833619D02*
X301910952Y2833619D01*
X302291904Y2833619D01*
X302387142Y2786000D01*
X302434761Y2738380D01*
X302482380Y2643142D01*
X302482380Y2500285D01*
X302434761Y2405047D01*
X302387142Y2357428D01*
X302291904Y2309809D01*
X301910952Y2309809D01*
X303387142Y1833619D02*
X302910952Y1833619D01*
X302910952Y2833619D01*
X303720476Y2833619D02*
X303720476Y2024095D01*
X303768095Y1928857D01*
X303815714Y1881238D01*
X303910952Y1833619D01*
X304101428Y1833619D01*
X304196666Y1881238D01*
X304244285Y1928857D01*
X304291904Y2024095D01*
X304291904Y2833619D01*
X304720476Y1881238D02*
X304863333Y1833619D01*
X305101428Y1833619D01*
X305196666Y1881238D01*
X305244285Y1928857D01*
X305291904Y2024095D01*
X305291904Y2119333D01*
X305244285Y2214571D01*
X305196666Y2262190D01*
X305101428Y2309809D01*
X304910952Y2357428D01*
X304815714Y2405047D01*
X304768095Y2452666D01*
X304720476Y2547904D01*
X304720476Y2643142D01*
X304768095Y2738380D01*
X304815714Y2786000D01*
X304910952Y2833619D01*
X305149047Y2833619D01*
X305291904Y2786000D01*
X306244285Y1833619D02*
X305672857Y1833619D01*
X305958571Y1833619D02*
X305958571Y2833619D01*
X305863333Y2690761D01*
X305768095Y2595523D01*
X305672857Y2547904D01*
X300910952Y-36266380D02*
X300910952Y-35266380D01*
X301482380Y-36266380D01*
X301482380Y-35266380D01*
X301958571Y-36266380D02*
X301958571Y-35266380D01*
X302530000Y-36266380D01*
X302530000Y-35266380D01*
X302863333Y-35266380D02*
X303434761Y-35266380D01*
X303149047Y-36266380D02*
X303149047Y-35266380D01*
X303768095Y-35742571D02*
X304101428Y-35742571D01*
X304244285Y-36266380D02*
X303768095Y-36266380D01*
X303768095Y-35266380D01*
X304244285Y-35266380D01*
X305244285Y-36266380D02*
X304910952Y-35790190D01*
X304672857Y-36266380D02*
X304672857Y-35266380D01*
X305053809Y-35266380D01*
X305149047Y-35314000D01*
X305196666Y-35361619D01*
X305244285Y-35456857D01*
X305244285Y-35599714D01*
X305196666Y-35694952D01*
X305149047Y-35742571D01*
X305053809Y-35790190D01*
X304672857Y-35790190D01*
X306196666Y-36266380D02*
X305625238Y-36266380D01*
X305910952Y-36266380D02*
X305910952Y-35266380D01*
X305815714Y-35409238D01*
X305720476Y-35504476D01*
X305625238Y-35552095D01*
X102362095Y12231619D02*
X102362095Y11422095D01*
X102409714Y11326857D01*
X102457333Y11279238D01*
X102552571Y11231619D01*
X102743047Y11231619D01*
X102838285Y11279238D01*
X102885904Y11326857D01*
X102933523Y11422095D01*
X102933523Y12231619D01*
X103933523Y11231619D02*
X103362095Y11231619D01*
X103647809Y11231619D02*
X103647809Y12231619D01*
X103552571Y12088761D01*
X103457333Y11993523D01*
X103362095Y11945904D01*
X11430095Y-7770761D02*
X11572952Y-7818380D01*
X11811047Y-7818380D01*
X11906285Y-7770761D01*
X11953904Y-7723142D01*
X12001523Y-7627904D01*
X12001523Y-7532666D01*
X11953904Y-7437428D01*
X11906285Y-7389809D01*
X11811047Y-7342190D01*
X11620571Y-7294571D01*
X11525333Y-7246952D01*
X11477714Y-7199333D01*
X11430095Y-7104095D01*
X11430095Y-7008857D01*
X11477714Y-6913619D01*
X11525333Y-6866000D01*
X11620571Y-6818380D01*
X11858666Y-6818380D01*
X12001523Y-6866000D01*
X12953904Y-7818380D02*
X12382476Y-7818380D01*
X12668190Y-7818380D02*
X12668190Y-6818380D01*
X12572952Y-6961238D01*
X12477714Y-7056476D01*
X12382476Y-7104095D01*
X148590285Y31281619D02*
X149256952Y31281619D01*
X148590285Y30281619D01*
X149256952Y30281619D01*
X149637904Y30805428D02*
X149971238Y30805428D01*
X150114095Y30281619D02*
X149637904Y30281619D01*
X149637904Y31281619D01*
X150114095Y31281619D01*
X151114095Y30281619D02*
X150780761Y30757809D01*
X150542666Y30281619D02*
X150542666Y31281619D01*
X150923619Y31281619D01*
X151018857Y31234000D01*
X151066476Y31186380D01*
X151114095Y31091142D01*
X151114095Y30948285D01*
X151066476Y30853047D01*
X151018857Y30805428D01*
X150923619Y30757809D01*
X150542666Y30757809D01*
X151733142Y31281619D02*
X151923619Y31281619D01*
X152018857Y31234000D01*
X152114095Y31138761D01*
X152161714Y30948285D01*
X152161714Y30614952D01*
X152114095Y30424476D01*
X152018857Y30329238D01*
X151923619Y30281619D01*
X151733142Y30281619D01*
X151637904Y30329238D01*
X151542666Y30424476D01*
X151495047Y30614952D01*
X151495047Y30948285D01*
X151542666Y31138761D01*
X151637904Y31234000D01*
X151733142Y31281619D01*
X153114095Y30281619D02*
X152542666Y30281619D01*
X152828380Y30281619D02*
X152828380Y31281619D01*
X152733142Y31138761D01*
X152637904Y31043523D01*
X152542666Y30995904D01*
X1984476Y-25868380D02*
X2651142Y-25868380D01*
X1984476Y-26868380D01*
X2651142Y-26868380D01*
X3555904Y-26868380D02*
X2984476Y-26868380D01*
X3270190Y-26868380D02*
X3270190Y-25868380D01*
X3174952Y-26011238D01*
X3079714Y-26106476D01*
X2984476Y-26154095D01*
X83597809Y11707809D02*
X83597809Y11231619D01*
X83264476Y12231619D02*
X83597809Y11707809D01*
X83931142Y12231619D01*
X84788285Y11231619D02*
X84216857Y11231619D01*
X84502571Y11231619D02*
X84502571Y12231619D01*
X84407333Y12088761D01*
X84312095Y11993523D01*
X84216857Y11945904D01*
X21034476Y-25868380D02*
X21701142Y-26868380D01*
X21701142Y-25868380D02*
X21034476Y-26868380D01*
X22605904Y-26868380D02*
X22034476Y-26868380D01*
X22320190Y-26868380D02*
X22320190Y-25868380D01*
X22224952Y-26011238D01*
X22129714Y-26106476D01*
X22034476Y-26154095D01*
X6969238Y12231619D02*
X7207333Y11231619D01*
X7397809Y11945904D01*
X7588285Y11231619D01*
X7826380Y12231619D01*
X8731142Y11231619D02*
X8159714Y11231619D01*
X8445428Y11231619D02*
X8445428Y12231619D01*
X8350190Y12088761D01*
X8254952Y11993523D01*
X8159714Y11945904D01*
X59134476Y-25868380D02*
X59467809Y-26868380D01*
X59801142Y-25868380D01*
X60658285Y-26868380D02*
X60086857Y-26868380D01*
X60372571Y-26868380D02*
X60372571Y-25868380D01*
X60277333Y-26011238D01*
X60182095Y-26106476D01*
X60086857Y-26154095D01*
X-3381142Y31281619D02*
X-2809714Y31281619D01*
X-3095428Y30281619D02*
X-3095428Y31281619D01*
X-2571619Y31281619D02*
X-2333523Y30281619D01*
X-2143047Y30995904D01*
X-1952571Y30281619D01*
X-1714476Y31281619D01*
X-1143047Y31281619D02*
X-952571Y31281619D01*
X-857333Y31234000D01*
X-762095Y31138761D01*
X-714476Y30948285D01*
X-714476Y30614952D01*
X-762095Y30424476D01*
X-857333Y30329238D01*
X-952571Y30281619D01*
X-1143047Y30281619D01*
X-1238285Y30329238D01*
X-1333523Y30424476D01*
X-1381142Y30614952D01*
X-1381142Y30948285D01*
X-1333523Y31138761D01*
X-1238285Y31234000D01*
X-1143047Y31281619D01*
X237904Y30281619D02*
X-333523Y30281619D01*
X-47809Y30281619D02*
X-47809Y31281619D01*
X-143047Y31138761D01*
X-238285Y31043523D01*
X-333523Y30995904D01*
X182150000Y-6818380D02*
X182721428Y-6818380D01*
X182435714Y-7818380D02*
X182435714Y-6818380D01*
X183054761Y-7818380D02*
X183054761Y-6818380D01*
X184102380Y-7723142D02*
X184054761Y-7770761D01*
X183911904Y-7818380D01*
X183816666Y-7818380D01*
X183673809Y-7770761D01*
X183578571Y-7675523D01*
X183530952Y-7580285D01*
X183483333Y-7389809D01*
X183483333Y-7246952D01*
X183530952Y-7056476D01*
X183578571Y-6961238D01*
X183673809Y-6866000D01*
X183816666Y-6818380D01*
X183911904Y-6818380D01*
X184054761Y-6866000D01*
X184102380Y-6913619D01*
X184530952Y-7818380D02*
X184530952Y-6818380D01*
X185102380Y-7818380D02*
X184673809Y-7246952D01*
X185102380Y-6818380D02*
X184530952Y-7389809D01*
X186054761Y-7818380D02*
X185483333Y-7818380D01*
X185769047Y-7818380D02*
X185769047Y-6818380D01*
X185673809Y-6961238D01*
X185578571Y-7056476D01*
X185483333Y-7104095D01*
X14835523Y31281619D02*
X15406952Y31281619D01*
X15121238Y30281619D02*
X15121238Y31281619D01*
X15740285Y30281619D02*
X15740285Y31281619D01*
X15740285Y30805428D02*
X16311714Y30805428D01*
X16311714Y30281619D02*
X16311714Y31281619D01*
X17359333Y30281619D02*
X17026000Y30757809D01*
X16787904Y30281619D02*
X16787904Y31281619D01*
X17168857Y31281619D01*
X17264095Y31234000D01*
X17311714Y31186380D01*
X17359333Y31091142D01*
X17359333Y30948285D01*
X17311714Y30853047D01*
X17264095Y30805428D01*
X17168857Y30757809D01*
X16787904Y30757809D01*
X17787904Y30805428D02*
X18121238Y30805428D01*
X18264095Y30281619D02*
X17787904Y30281619D01*
X17787904Y31281619D01*
X18264095Y31281619D01*
X18692666Y30805428D02*
X19026000Y30805428D01*
X19168857Y30281619D02*
X18692666Y30281619D01*
X18692666Y31281619D01*
X19168857Y31281619D01*
X20121238Y30281619D02*
X19549809Y30281619D01*
X19835523Y30281619D02*
X19835523Y31281619D01*
X19740285Y31138761D01*
X19645047Y31043523D01*
X19549809Y30995904D01*
X64262095Y12231619D02*
X64833523Y12231619D01*
X64547809Y11231619D02*
X64547809Y12231619D01*
X65690666Y11231619D02*
X65119238Y11231619D01*
X65404952Y11231619D02*
X65404952Y12231619D01*
X65309714Y12088761D01*
X65214476Y11993523D01*
X65119238Y11945904D01*
X78891142Y-45870761D02*
X79034000Y-45918380D01*
X79272095Y-45918380D01*
X79367333Y-45870761D01*
X79414952Y-45823142D01*
X79462571Y-45727904D01*
X79462571Y-45632666D01*
X79414952Y-45537428D01*
X79367333Y-45489809D01*
X79272095Y-45442190D01*
X79081619Y-45394571D01*
X78986380Y-45346952D01*
X78938761Y-45299333D01*
X78891142Y-45204095D01*
X78891142Y-45108857D01*
X78938761Y-45013619D01*
X78986380Y-44966000D01*
X79081619Y-44918380D01*
X79319714Y-44918380D01*
X79462571Y-44966000D01*
X79891142Y-45918380D02*
X79891142Y-44918380D01*
X80272095Y-44918380D01*
X80367333Y-44966000D01*
X80414952Y-45013619D01*
X80462571Y-45108857D01*
X80462571Y-45251714D01*
X80414952Y-45346952D01*
X80367333Y-45394571D01*
X80272095Y-45442190D01*
X79891142Y-45442190D01*
X80843523Y-45632666D02*
X81319714Y-45632666D01*
X80748285Y-45918380D02*
X81081619Y-44918380D01*
X81414952Y-45918380D01*
X82319714Y-45823142D02*
X82272095Y-45870761D01*
X82129238Y-45918380D01*
X82034000Y-45918380D01*
X81891142Y-45870761D01*
X81795904Y-45775523D01*
X81748285Y-45680285D01*
X81700666Y-45489809D01*
X81700666Y-45346952D01*
X81748285Y-45156476D01*
X81795904Y-45061238D01*
X81891142Y-44966000D01*
X82034000Y-44918380D01*
X82129238Y-44918380D01*
X82272095Y-44966000D01*
X82319714Y-45013619D01*
X82748285Y-45394571D02*
X83081619Y-45394571D01*
X83224476Y-45918380D02*
X82748285Y-45918380D01*
X82748285Y-44918380D01*
X83224476Y-44918380D01*
X84176857Y-45918380D02*
X83605428Y-45918380D01*
X83891142Y-45918380D02*
X83891142Y-44918380D01*
X83795904Y-45061238D01*
X83700666Y-45156476D01*
X83605428Y-45204095D01*
X73199809Y30329238D02*
X73342666Y30281619D01*
X73580761Y30281619D01*
X73676000Y30329238D01*
X73723619Y30376857D01*
X73771238Y30472095D01*
X73771238Y30567333D01*
X73723619Y30662571D01*
X73676000Y30710190D01*
X73580761Y30757809D01*
X73390285Y30805428D01*
X73295047Y30853047D01*
X73247428Y30900666D01*
X73199809Y30995904D01*
X73199809Y31091142D01*
X73247428Y31186380D01*
X73295047Y31234000D01*
X73390285Y31281619D01*
X73628380Y31281619D01*
X73771238Y31234000D01*
X74199809Y30281619D02*
X74199809Y31281619D01*
X74580761Y31281619D02*
X75247428Y30281619D01*
X75247428Y31281619D02*
X74580761Y30281619D01*
X76152190Y30281619D02*
X75580761Y30281619D01*
X75866476Y30281619D02*
X75866476Y31281619D01*
X75771238Y31138761D01*
X75676000Y31043523D01*
X75580761Y30995904D01*
X91106952Y30329238D02*
X91249809Y30281619D01*
X91487904Y30281619D01*
X91583142Y30329238D01*
X91630761Y30376857D01*
X91678380Y30472095D01*
X91678380Y30567333D01*
X91630761Y30662571D01*
X91583142Y30710190D01*
X91487904Y30757809D01*
X91297428Y30805428D01*
X91202190Y30853047D01*
X91154571Y30900666D01*
X91106952Y30995904D01*
X91106952Y31091142D01*
X91154571Y31186380D01*
X91202190Y31234000D01*
X91297428Y31281619D01*
X91535523Y31281619D01*
X91678380Y31234000D01*
X92106952Y30805428D02*
X92440285Y30805428D01*
X92583142Y30281619D02*
X92106952Y30281619D01*
X92106952Y31281619D01*
X92583142Y31281619D01*
X92868857Y31281619D02*
X93202190Y30281619D01*
X93535523Y31281619D01*
X93868857Y30805428D02*
X94202190Y30805428D01*
X94345047Y30281619D02*
X93868857Y30281619D01*
X93868857Y31281619D01*
X94345047Y31281619D01*
X94773619Y30281619D02*
X94773619Y31281619D01*
X95345047Y30281619D01*
X95345047Y31281619D01*
X96345047Y30281619D02*
X95773619Y30281619D01*
X96059333Y30281619D02*
X96059333Y31281619D01*
X95964095Y31138761D01*
X95868857Y31043523D01*
X95773619Y30995904D01*
X197231142Y11231619D02*
X196897809Y11707809D01*
X196659714Y11231619D02*
X196659714Y12231619D01*
X197040666Y12231619D01*
X197135904Y12184000D01*
X197183523Y12136380D01*
X197231142Y12041142D01*
X197231142Y11898285D01*
X197183523Y11803047D01*
X197135904Y11755428D01*
X197040666Y11707809D01*
X196659714Y11707809D01*
X197612095Y11279238D02*
X197754952Y11231619D01*
X197993047Y11231619D01*
X198088285Y11279238D01*
X198135904Y11326857D01*
X198183523Y11422095D01*
X198183523Y11517333D01*
X198135904Y11612571D01*
X198088285Y11660190D01*
X197993047Y11707809D01*
X197802571Y11755428D01*
X197707333Y11803047D01*
X197659714Y11850666D01*
X197612095Y11945904D01*
X197612095Y12041142D01*
X197659714Y12136380D01*
X197707333Y12184000D01*
X197802571Y12231619D01*
X198040666Y12231619D01*
X198183523Y12184000D01*
X198945428Y11755428D02*
X199088285Y11707809D01*
X199135904Y11660190D01*
X199183523Y11564952D01*
X199183523Y11422095D01*
X199135904Y11326857D01*
X199088285Y11279238D01*
X198993047Y11231619D01*
X198612095Y11231619D01*
X198612095Y12231619D01*
X198945428Y12231619D01*
X199040666Y12184000D01*
X199088285Y12136380D01*
X199135904Y12041142D01*
X199135904Y11945904D01*
X199088285Y11850666D01*
X199040666Y11803047D01*
X198945428Y11755428D01*
X198612095Y11755428D01*
X200135904Y11231619D02*
X199564476Y11231619D01*
X199850190Y11231619D02*
X199850190Y12231619D01*
X199754952Y12088761D01*
X199659714Y11993523D01*
X199564476Y11945904D01*
X175617333Y-45918380D02*
X175284000Y-45442190D01*
X175045904Y-45918380D02*
X175045904Y-44918380D01*
X175426857Y-44918380D01*
X175522095Y-44966000D01*
X175569714Y-45013619D01*
X175617333Y-45108857D01*
X175617333Y-45251714D01*
X175569714Y-45346952D01*
X175522095Y-45394571D01*
X175426857Y-45442190D01*
X175045904Y-45442190D01*
X176236380Y-44918380D02*
X176426857Y-44918380D01*
X176522095Y-44966000D01*
X176617333Y-45061238D01*
X176664952Y-45251714D01*
X176664952Y-45585047D01*
X176617333Y-45775523D01*
X176522095Y-45870761D01*
X176426857Y-45918380D01*
X176236380Y-45918380D01*
X176141142Y-45870761D01*
X176045904Y-45775523D01*
X175998285Y-45585047D01*
X175998285Y-45251714D01*
X176045904Y-45061238D01*
X176141142Y-44966000D01*
X176236380Y-44918380D01*
X177045904Y-45870761D02*
X177188761Y-45918380D01*
X177426857Y-45918380D01*
X177522095Y-45870761D01*
X177569714Y-45823142D01*
X177617333Y-45727904D01*
X177617333Y-45632666D01*
X177569714Y-45537428D01*
X177522095Y-45489809D01*
X177426857Y-45442190D01*
X177236380Y-45394571D01*
X177141142Y-45346952D01*
X177093523Y-45299333D01*
X177045904Y-45204095D01*
X177045904Y-45108857D01*
X177093523Y-45013619D01*
X177141142Y-44966000D01*
X177236380Y-44918380D01*
X177474476Y-44918380D01*
X177617333Y-44966000D01*
X178569714Y-45918380D02*
X177998285Y-45918380D01*
X178284000Y-45918380D02*
X178284000Y-44918380D01*
X178188761Y-45061238D01*
X178093523Y-45156476D01*
X177998285Y-45204095D01*
X222583619Y-45918380D02*
X222250285Y-45442190D01*
X222012190Y-45918380D02*
X222012190Y-44918380D01*
X222393142Y-44918380D01*
X222488380Y-44966000D01*
X222536000Y-45013619D01*
X222583619Y-45108857D01*
X222583619Y-45251714D01*
X222536000Y-45346952D01*
X222488380Y-45394571D01*
X222393142Y-45442190D01*
X222012190Y-45442190D01*
X223583619Y-45823142D02*
X223536000Y-45870761D01*
X223393142Y-45918380D01*
X223297904Y-45918380D01*
X223155047Y-45870761D01*
X223059809Y-45775523D01*
X223012190Y-45680285D01*
X222964571Y-45489809D01*
X222964571Y-45346952D01*
X223012190Y-45156476D01*
X223059809Y-45061238D01*
X223155047Y-44966000D01*
X223297904Y-44918380D01*
X223393142Y-44918380D01*
X223536000Y-44966000D01*
X223583619Y-45013619D01*
X223869333Y-44918380D02*
X224440761Y-44918380D01*
X224155047Y-45918380D02*
X224155047Y-44918380D01*
X225345523Y-45918380D02*
X225012190Y-45442190D01*
X224774095Y-45918380D02*
X224774095Y-44918380D01*
X225155047Y-44918380D01*
X225250285Y-44966000D01*
X225297904Y-45013619D01*
X225345523Y-45108857D01*
X225345523Y-45251714D01*
X225297904Y-45346952D01*
X225250285Y-45394571D01*
X225155047Y-45442190D01*
X224774095Y-45442190D01*
X226250285Y-45918380D02*
X225774095Y-45918380D01*
X225774095Y-44918380D01*
X227107428Y-45918380D02*
X226536000Y-45918380D01*
X226821714Y-45918380D02*
X226821714Y-44918380D01*
X226726476Y-45061238D01*
X226631238Y-45156476D01*
X226536000Y-45204095D01*
X151527047Y-45918380D02*
X151193714Y-45442190D01*
X150955619Y-45918380D02*
X150955619Y-44918380D01*
X151336571Y-44918380D01*
X151431809Y-44966000D01*
X151479428Y-45013619D01*
X151527047Y-45108857D01*
X151527047Y-45251714D01*
X151479428Y-45346952D01*
X151431809Y-45394571D01*
X151336571Y-45442190D01*
X150955619Y-45442190D01*
X151908000Y-45632666D02*
X152384190Y-45632666D01*
X151812761Y-45918380D02*
X152146095Y-44918380D01*
X152479428Y-45918380D01*
X153288952Y-45918380D02*
X152812761Y-45918380D01*
X152812761Y-44918380D01*
X153479428Y-44918380D02*
X154050857Y-44918380D01*
X153765142Y-45918380D02*
X153765142Y-44918380D01*
X154908000Y-45918380D02*
X154336571Y-45918380D01*
X154622285Y-45918380D02*
X154622285Y-44918380D01*
X154527047Y-45061238D01*
X154431809Y-45156476D01*
X154336571Y-45204095D01*
X45807333Y11231619D02*
X45474000Y11707809D01*
X45235904Y11231619D02*
X45235904Y12231619D01*
X45616857Y12231619D01*
X45712095Y12184000D01*
X45759714Y12136380D01*
X45807333Y12041142D01*
X45807333Y11898285D01*
X45759714Y11803047D01*
X45712095Y11755428D01*
X45616857Y11707809D01*
X45235904Y11707809D01*
X46759714Y11231619D02*
X46188285Y11231619D01*
X46474000Y11231619D02*
X46474000Y12231619D01*
X46378761Y12088761D01*
X46283523Y11993523D01*
X46188285Y11945904D01*
X-11271238Y11136380D02*
X-11366476Y11184000D01*
X-11461714Y11279238D01*
X-11604571Y11422095D01*
X-11699809Y11469714D01*
X-11795047Y11469714D01*
X-11747428Y11231619D02*
X-11842666Y11279238D01*
X-11937904Y11374476D01*
X-11985523Y11564952D01*
X-11985523Y11898285D01*
X-11937904Y12088761D01*
X-11842666Y12184000D01*
X-11747428Y12231619D01*
X-11556952Y12231619D01*
X-11461714Y12184000D01*
X-11366476Y12088761D01*
X-11318857Y11898285D01*
X-11318857Y11564952D01*
X-11366476Y11374476D01*
X-11461714Y11279238D01*
X-11556952Y11231619D01*
X-11747428Y11231619D01*
X-10366476Y11231619D02*
X-10937904Y11231619D01*
X-10652190Y11231619D02*
X-10652190Y12231619D01*
X-10747428Y12088761D01*
X-10842666Y11993523D01*
X-10937904Y11945904D01*
X159535904Y11231619D02*
X159535904Y12231619D01*
X159916857Y12231619D01*
X160012095Y12184000D01*
X160059714Y12136380D01*
X160107333Y12041142D01*
X160107333Y11898285D01*
X160059714Y11803047D01*
X160012095Y11755428D01*
X159916857Y11707809D01*
X159535904Y11707809D01*
X161059714Y11231619D02*
X160488285Y11231619D01*
X160774000Y11231619D02*
X160774000Y12231619D01*
X160678761Y12088761D01*
X160583523Y11993523D01*
X160488285Y11945904D01*
X-22121619Y31281619D02*
X-21931142Y31281619D01*
X-21835904Y31234000D01*
X-21740666Y31138761D01*
X-21693047Y30948285D01*
X-21693047Y30614952D01*
X-21740666Y30424476D01*
X-21835904Y30329238D01*
X-21931142Y30281619D01*
X-22121619Y30281619D01*
X-22216857Y30329238D01*
X-22312095Y30424476D01*
X-22359714Y30614952D01*
X-22359714Y30948285D01*
X-22312095Y31138761D01*
X-22216857Y31234000D01*
X-22121619Y31281619D01*
X-21264476Y30281619D02*
X-21264476Y31281619D01*
X-20693047Y30281619D01*
X-20693047Y31281619D01*
X-20216857Y30805428D02*
X-19883523Y30805428D01*
X-19740666Y30281619D02*
X-20216857Y30281619D01*
X-20216857Y31281619D01*
X-19740666Y31281619D01*
X-18788285Y30281619D02*
X-19359714Y30281619D01*
X-19074000Y30281619D02*
X-19074000Y31281619D01*
X-19169238Y31138761D01*
X-19264476Y31043523D01*
X-19359714Y30995904D01*
X140652571Y12231619D02*
X140843047Y12231619D01*
X140938285Y12184000D01*
X141033523Y12088761D01*
X141081142Y11898285D01*
X141081142Y11564952D01*
X141033523Y11374476D01*
X140938285Y11279238D01*
X140843047Y11231619D01*
X140652571Y11231619D01*
X140557333Y11279238D01*
X140462095Y11374476D01*
X140414476Y11564952D01*
X140414476Y11898285D01*
X140462095Y12088761D01*
X140557333Y12184000D01*
X140652571Y12231619D01*
X142033523Y11231619D02*
X141462095Y11231619D01*
X141747809Y11231619D02*
X141747809Y12231619D01*
X141652571Y12088761D01*
X141557333Y11993523D01*
X141462095Y11945904D01*
X261985523Y-45918380D02*
X261985523Y-44918380D01*
X262556952Y-45918380D01*
X262556952Y-44918380D01*
X262937904Y-44918380D02*
X263604571Y-44918380D01*
X262937904Y-45918380D01*
X263604571Y-45918380D01*
X263890285Y-44918380D02*
X264556952Y-44918380D01*
X263890285Y-45918380D01*
X264556952Y-45918380D01*
X264937904Y-45394571D02*
X265271238Y-45394571D01*
X265414095Y-45918380D02*
X264937904Y-45918380D01*
X264937904Y-44918380D01*
X265414095Y-44918380D01*
X266414095Y-45918380D02*
X266080761Y-45442190D01*
X265842666Y-45918380D02*
X265842666Y-44918380D01*
X266223619Y-44918380D01*
X266318857Y-44966000D01*
X266366476Y-45013619D01*
X266414095Y-45108857D01*
X266414095Y-45251714D01*
X266366476Y-45346952D01*
X266318857Y-45394571D01*
X266223619Y-45442190D01*
X265842666Y-45442190D01*
X267033142Y-44918380D02*
X267223619Y-44918380D01*
X267318857Y-44966000D01*
X267414095Y-45061238D01*
X267461714Y-45251714D01*
X267461714Y-45585047D01*
X267414095Y-45775523D01*
X267318857Y-45870761D01*
X267223619Y-45918380D01*
X267033142Y-45918380D01*
X266937904Y-45870761D01*
X266842666Y-45775523D01*
X266795047Y-45585047D01*
X266795047Y-45251714D01*
X266842666Y-45061238D01*
X266937904Y-44966000D01*
X267033142Y-44918380D01*
X268414095Y-45918380D02*
X267842666Y-45918380D01*
X268128380Y-45918380D02*
X268128380Y-44918380D01*
X268033142Y-45061238D01*
X267937904Y-45156476D01*
X267842666Y-45204095D01*
X243411714Y-45918380D02*
X243411714Y-44918380D01*
X243983142Y-45918380D01*
X243983142Y-44918380D01*
X244364095Y-44918380D02*
X245030761Y-44918380D01*
X244364095Y-45918380D01*
X245030761Y-45918380D01*
X245411714Y-45394571D02*
X245745047Y-45394571D01*
X245887904Y-45918380D02*
X245411714Y-45918380D01*
X245411714Y-44918380D01*
X245887904Y-44918380D01*
X246887904Y-45918380D02*
X246554571Y-45442190D01*
X246316476Y-45918380D02*
X246316476Y-44918380D01*
X246697428Y-44918380D01*
X246792666Y-44966000D01*
X246840285Y-45013619D01*
X246887904Y-45108857D01*
X246887904Y-45251714D01*
X246840285Y-45346952D01*
X246792666Y-45394571D01*
X246697428Y-45442190D01*
X246316476Y-45442190D01*
X247506952Y-44918380D02*
X247697428Y-44918380D01*
X247792666Y-44966000D01*
X247887904Y-45061238D01*
X247935523Y-45251714D01*
X247935523Y-45585047D01*
X247887904Y-45775523D01*
X247792666Y-45870761D01*
X247697428Y-45918380D01*
X247506952Y-45918380D01*
X247411714Y-45870761D01*
X247316476Y-45775523D01*
X247268857Y-45585047D01*
X247268857Y-45251714D01*
X247316476Y-45061238D01*
X247411714Y-44966000D01*
X247506952Y-44918380D01*
X248887904Y-45918380D02*
X248316476Y-45918380D01*
X248602190Y-45918380D02*
X248602190Y-44918380D01*
X248506952Y-45061238D01*
X248411714Y-45156476D01*
X248316476Y-45204095D01*
X243364095Y30281619D02*
X243364095Y31281619D01*
X243935523Y30281619D01*
X243935523Y31281619D01*
X244411714Y31281619D02*
X244411714Y30472095D01*
X244459333Y30376857D01*
X244506952Y30329238D01*
X244602190Y30281619D01*
X244792666Y30281619D01*
X244887904Y30329238D01*
X244935523Y30376857D01*
X244983142Y30472095D01*
X244983142Y31281619D01*
X245459333Y30281619D02*
X245459333Y31281619D01*
X245792666Y30567333D01*
X246126000Y31281619D01*
X246126000Y30281619D01*
X247078380Y30281619D02*
X246602190Y30281619D01*
X246602190Y31281619D01*
X247411714Y30281619D02*
X247411714Y31281619D01*
X247983142Y30281619D02*
X247554571Y30853047D01*
X247983142Y31281619D02*
X247411714Y30710190D01*
X248935523Y30281619D02*
X248364095Y30281619D01*
X248649809Y30281619D02*
X248649809Y31281619D01*
X248554571Y31138761D01*
X248459333Y31043523D01*
X248364095Y30995904D01*
X281678380Y30281619D02*
X281678380Y31281619D01*
X282249809Y30281619D01*
X282249809Y31281619D01*
X282678380Y30329238D02*
X282821238Y30281619D01*
X283059333Y30281619D01*
X283154571Y30329238D01*
X283202190Y30376857D01*
X283249809Y30472095D01*
X283249809Y30567333D01*
X283202190Y30662571D01*
X283154571Y30710190D01*
X283059333Y30757809D01*
X282868857Y30805428D01*
X282773619Y30853047D01*
X282726000Y30900666D01*
X282678380Y30995904D01*
X282678380Y31091142D01*
X282726000Y31186380D01*
X282773619Y31234000D01*
X282868857Y31281619D01*
X283106952Y31281619D01*
X283249809Y31234000D01*
X283535523Y31281619D02*
X284106952Y31281619D01*
X283821238Y30281619D02*
X283821238Y31281619D01*
X284392666Y30567333D02*
X284868857Y30567333D01*
X284297428Y30281619D02*
X284630761Y31281619D01*
X284964095Y30281619D01*
X285868857Y30281619D02*
X285535523Y30757809D01*
X285297428Y30281619D02*
X285297428Y31281619D01*
X285678380Y31281619D01*
X285773619Y31234000D01*
X285821238Y31186380D01*
X285868857Y31091142D01*
X285868857Y30948285D01*
X285821238Y30853047D01*
X285773619Y30805428D01*
X285678380Y30757809D01*
X285297428Y30757809D01*
X286821238Y30281619D02*
X286249809Y30281619D01*
X286535523Y30281619D02*
X286535523Y31281619D01*
X286440285Y31138761D01*
X286345047Y31043523D01*
X286249809Y30995904D01*
X262533142Y30281619D02*
X262533142Y31281619D01*
X263104571Y30281619D01*
X263104571Y31281619D01*
X263533142Y30329238D02*
X263676000Y30281619D01*
X263914095Y30281619D01*
X264009333Y30329238D01*
X264056952Y30376857D01*
X264104571Y30472095D01*
X264104571Y30567333D01*
X264056952Y30662571D01*
X264009333Y30710190D01*
X263914095Y30757809D01*
X263723619Y30805428D01*
X263628380Y30853047D01*
X263580761Y30900666D01*
X263533142Y30995904D01*
X263533142Y31091142D01*
X263580761Y31186380D01*
X263628380Y31234000D01*
X263723619Y31281619D01*
X263961714Y31281619D01*
X264104571Y31234000D01*
X265009333Y30281619D02*
X264533142Y30281619D01*
X264533142Y31281619D01*
X265295047Y30329238D02*
X265437904Y30281619D01*
X265676000Y30281619D01*
X265771238Y30329238D01*
X265818857Y30376857D01*
X265866476Y30472095D01*
X265866476Y30567333D01*
X265818857Y30662571D01*
X265771238Y30710190D01*
X265676000Y30757809D01*
X265485523Y30805428D01*
X265390285Y30853047D01*
X265342666Y30900666D01*
X265295047Y30995904D01*
X265295047Y31091142D01*
X265342666Y31186380D01*
X265390285Y31234000D01*
X265485523Y31281619D01*
X265723619Y31281619D01*
X265866476Y31234000D01*
X266295047Y30281619D02*
X266295047Y31281619D01*
X266295047Y30805428D02*
X266866476Y30805428D01*
X266866476Y30281619D02*
X266866476Y31281619D01*
X267866476Y30281619D02*
X267295047Y30281619D01*
X267580761Y30281619D02*
X267580761Y31281619D01*
X267485523Y31138761D01*
X267390285Y31043523D01*
X267295047Y30995904D01*
X300752190Y30281619D02*
X300752190Y31281619D01*
X301323619Y30281619D01*
X301323619Y31281619D01*
X301799809Y30281619D02*
X301799809Y31281619D01*
X302276000Y30281619D02*
X302276000Y31281619D01*
X302847428Y30281619D01*
X302847428Y31281619D01*
X303323619Y31281619D02*
X303323619Y30472095D01*
X303371238Y30376857D01*
X303418857Y30329238D01*
X303514095Y30281619D01*
X303704571Y30281619D01*
X303799809Y30329238D01*
X303847428Y30376857D01*
X303895047Y30472095D01*
X303895047Y31281619D01*
X304323619Y30329238D02*
X304466476Y30281619D01*
X304704571Y30281619D01*
X304799809Y30329238D01*
X304847428Y30376857D01*
X304895047Y30472095D01*
X304895047Y30567333D01*
X304847428Y30662571D01*
X304799809Y30710190D01*
X304704571Y30757809D01*
X304514095Y30805428D01*
X304418857Y30853047D01*
X304371238Y30900666D01*
X304323619Y30995904D01*
X304323619Y31091142D01*
X304371238Y31186380D01*
X304418857Y31234000D01*
X304514095Y31281619D01*
X304752190Y31281619D01*
X304895047Y31234000D01*
X305847428Y30281619D02*
X305276000Y30281619D01*
X305561714Y30281619D02*
X305561714Y31281619D01*
X305466476Y31138761D01*
X305371238Y31043523D01*
X305276000Y30995904D01*
X129849809Y30281619D02*
X129849809Y31281619D01*
X130421238Y30281619D01*
X130421238Y31281619D01*
X130897428Y30281619D02*
X130897428Y31281619D01*
X131373619Y30281619D02*
X131373619Y31281619D01*
X131945047Y30281619D01*
X131945047Y31281619D01*
X132421238Y30805428D02*
X132754571Y30805428D01*
X132897428Y30281619D02*
X132421238Y30281619D01*
X132421238Y31281619D01*
X132897428Y31281619D01*
X133849809Y30281619D02*
X133278380Y30281619D01*
X133564095Y30281619D02*
X133564095Y31281619D01*
X133468857Y31138761D01*
X133373619Y31043523D01*
X133278380Y30995904D01*
X282059333Y-45918380D02*
X282059333Y-44918380D01*
X282630761Y-45918380D01*
X282630761Y-44918380D01*
X283106952Y-45918380D02*
X283106952Y-44918380D01*
X283345047Y-44918380D01*
X283487904Y-44966000D01*
X283583142Y-45061238D01*
X283630761Y-45156476D01*
X283678380Y-45346952D01*
X283678380Y-45489809D01*
X283630761Y-45680285D01*
X283583142Y-45775523D01*
X283487904Y-45870761D01*
X283345047Y-45918380D01*
X283106952Y-45918380D01*
X284297428Y-44918380D02*
X284487904Y-44918380D01*
X284583142Y-44966000D01*
X284678380Y-45061238D01*
X284726000Y-45251714D01*
X284726000Y-45585047D01*
X284678380Y-45775523D01*
X284583142Y-45870761D01*
X284487904Y-45918380D01*
X284297428Y-45918380D01*
X284202190Y-45870761D01*
X284106952Y-45775523D01*
X284059333Y-45585047D01*
X284059333Y-45251714D01*
X284106952Y-45061238D01*
X284202190Y-44966000D01*
X284297428Y-44918380D01*
X285011714Y-44918380D02*
X285583142Y-44918380D01*
X285297428Y-45918380D02*
X285297428Y-44918380D01*
X286440285Y-45918380D02*
X285868857Y-45918380D01*
X286154571Y-45918380D02*
X286154571Y-44918380D01*
X286059333Y-45061238D01*
X285964095Y-45156476D01*
X285868857Y-45204095D01*
X96805904Y-26868380D02*
X96805904Y-25868380D01*
X97377333Y-26868380D01*
X97377333Y-25868380D01*
X98377333Y-26868380D02*
X97805904Y-26868380D01*
X98091619Y-26868380D02*
X98091619Y-25868380D01*
X97996380Y-26011238D01*
X97901142Y-26106476D01*
X97805904Y-26154095D01*
X98996380Y-25868380D02*
X99091619Y-25868380D01*
X99186857Y-25916000D01*
X99234476Y-25963619D01*
X99282095Y-26058857D01*
X99329714Y-26249333D01*
X99329714Y-26487428D01*
X99282095Y-26677904D01*
X99234476Y-26773142D01*
X99186857Y-26820761D01*
X99091619Y-26868380D01*
X98996380Y-26868380D01*
X98901142Y-26820761D01*
X98853523Y-26773142D01*
X98805904Y-26677904D01*
X98758285Y-26487428D01*
X98758285Y-26249333D01*
X98805904Y-26058857D01*
X98853523Y-25963619D01*
X98901142Y-25916000D01*
X98996380Y-25868380D01*
X283464095Y11231619D02*
X283464095Y12231619D01*
X284035523Y11231619D01*
X284035523Y12231619D01*
X284559333Y11231619D02*
X284749809Y11231619D01*
X284845047Y11279238D01*
X284892666Y11326857D01*
X284987904Y11469714D01*
X285035523Y11660190D01*
X285035523Y12041142D01*
X284987904Y12136380D01*
X284940285Y12184000D01*
X284845047Y12231619D01*
X284654571Y12231619D01*
X284559333Y12184000D01*
X284511714Y12136380D01*
X284464095Y12041142D01*
X284464095Y11803047D01*
X284511714Y11707809D01*
X284559333Y11660190D01*
X284654571Y11612571D01*
X284845047Y11612571D01*
X284940285Y11660190D01*
X284987904Y11707809D01*
X285035523Y11803047D01*
X264414095Y11231619D02*
X264414095Y12231619D01*
X264985523Y11231619D01*
X264985523Y12231619D01*
X265604571Y11803047D02*
X265509333Y11850666D01*
X265461714Y11898285D01*
X265414095Y11993523D01*
X265414095Y12041142D01*
X265461714Y12136380D01*
X265509333Y12184000D01*
X265604571Y12231619D01*
X265795047Y12231619D01*
X265890285Y12184000D01*
X265937904Y12136380D01*
X265985523Y12041142D01*
X265985523Y11993523D01*
X265937904Y11898285D01*
X265890285Y11850666D01*
X265795047Y11803047D01*
X265604571Y11803047D01*
X265509333Y11755428D01*
X265461714Y11707809D01*
X265414095Y11612571D01*
X265414095Y11422095D01*
X265461714Y11326857D01*
X265509333Y11279238D01*
X265604571Y11231619D01*
X265795047Y11231619D01*
X265890285Y11279238D01*
X265937904Y11326857D01*
X265985523Y11422095D01*
X265985523Y11612571D01*
X265937904Y11707809D01*
X265890285Y11755428D01*
X265795047Y11803047D01*
X245364095Y11231619D02*
X245364095Y12231619D01*
X245935523Y11231619D01*
X245935523Y12231619D01*
X246316476Y12231619D02*
X246983142Y12231619D01*
X246554571Y11231619D01*
X283464095Y-7818380D02*
X283464095Y-6818380D01*
X284035523Y-7818380D01*
X284035523Y-6818380D01*
X284940285Y-6818380D02*
X284749809Y-6818380D01*
X284654571Y-6866000D01*
X284606952Y-6913619D01*
X284511714Y-7056476D01*
X284464095Y-7246952D01*
X284464095Y-7627904D01*
X284511714Y-7723142D01*
X284559333Y-7770761D01*
X284654571Y-7818380D01*
X284845047Y-7818380D01*
X284940285Y-7770761D01*
X284987904Y-7723142D01*
X285035523Y-7627904D01*
X285035523Y-7389809D01*
X284987904Y-7294571D01*
X284940285Y-7246952D01*
X284845047Y-7199333D01*
X284654571Y-7199333D01*
X284559333Y-7246952D01*
X284511714Y-7294571D01*
X284464095Y-7389809D01*
X264414095Y-7818380D02*
X264414095Y-6818380D01*
X264985523Y-7818380D01*
X264985523Y-6818380D01*
X265937904Y-6818380D02*
X265461714Y-6818380D01*
X265414095Y-7294571D01*
X265461714Y-7246952D01*
X265556952Y-7199333D01*
X265795047Y-7199333D01*
X265890285Y-7246952D01*
X265937904Y-7294571D01*
X265985523Y-7389809D01*
X265985523Y-7627904D01*
X265937904Y-7723142D01*
X265890285Y-7770761D01*
X265795047Y-7818380D01*
X265556952Y-7818380D01*
X265461714Y-7770761D01*
X265414095Y-7723142D01*
X245364095Y-7818380D02*
X245364095Y-6818380D01*
X245935523Y-7818380D01*
X245935523Y-6818380D01*
X246840285Y-7151714D02*
X246840285Y-7818380D01*
X246602190Y-6770761D02*
X246364095Y-7485047D01*
X246983142Y-7485047D01*
X283464095Y-26868380D02*
X283464095Y-25868380D01*
X284035523Y-26868380D01*
X284035523Y-25868380D01*
X284416476Y-25868380D02*
X285035523Y-25868380D01*
X284702190Y-26249333D01*
X284845047Y-26249333D01*
X284940285Y-26296952D01*
X284987904Y-26344571D01*
X285035523Y-26439809D01*
X285035523Y-26677904D01*
X284987904Y-26773142D01*
X284940285Y-26820761D01*
X284845047Y-26868380D01*
X284559333Y-26868380D01*
X284464095Y-26820761D01*
X284416476Y-26773142D01*
X264414095Y-26868380D02*
X264414095Y-25868380D01*
X264985523Y-26868380D01*
X264985523Y-25868380D01*
X265414095Y-25963619D02*
X265461714Y-25916000D01*
X265556952Y-25868380D01*
X265795047Y-25868380D01*
X265890285Y-25916000D01*
X265937904Y-25963619D01*
X265985523Y-26058857D01*
X265985523Y-26154095D01*
X265937904Y-26296952D01*
X265366476Y-26868380D01*
X265985523Y-26868380D01*
X245364095Y-26868380D02*
X245364095Y-25868380D01*
X245935523Y-26868380D01*
X245935523Y-25868380D01*
X246935523Y-26868380D02*
X246364095Y-26868380D01*
X246649809Y-26868380D02*
X246649809Y-25868380D01*
X246554571Y-26011238D01*
X246459333Y-26106476D01*
X246364095Y-26154095D01*
X167354571Y30281619D02*
X167354571Y31281619D01*
X167687904Y30567333D01*
X168021238Y31281619D01*
X168021238Y30281619D01*
X168497428Y30281619D02*
X168497428Y31281619D01*
X168973619Y30281619D02*
X168973619Y31281619D01*
X169545047Y30281619D01*
X169545047Y31281619D01*
X170021238Y31281619D02*
X170021238Y30472095D01*
X170068857Y30376857D01*
X170116476Y30329238D01*
X170211714Y30281619D01*
X170402190Y30281619D01*
X170497428Y30329238D01*
X170545047Y30376857D01*
X170592666Y30472095D01*
X170592666Y31281619D01*
X171021238Y30329238D02*
X171164095Y30281619D01*
X171402190Y30281619D01*
X171497428Y30329238D01*
X171545047Y30376857D01*
X171592666Y30472095D01*
X171592666Y30567333D01*
X171545047Y30662571D01*
X171497428Y30710190D01*
X171402190Y30757809D01*
X171211714Y30805428D01*
X171116476Y30853047D01*
X171068857Y30900666D01*
X171021238Y30995904D01*
X171021238Y31091142D01*
X171068857Y31186380D01*
X171116476Y31234000D01*
X171211714Y31281619D01*
X171449809Y31281619D01*
X171592666Y31234000D01*
X172545047Y30281619D02*
X171973619Y30281619D01*
X172259333Y30281619D02*
X172259333Y31281619D01*
X172164095Y31138761D01*
X172068857Y31043523D01*
X171973619Y30995904D01*
X116284476Y-26868380D02*
X116284476Y-25868380D01*
X116617809Y-26582666D01*
X116951142Y-25868380D01*
X116951142Y-26868380D01*
X117951142Y-26868380D02*
X117379714Y-26868380D01*
X117665428Y-26868380D02*
X117665428Y-25868380D01*
X117570190Y-26011238D01*
X117474952Y-26106476D01*
X117379714Y-26154095D01*
X-39822190Y-26868380D02*
X-40298380Y-26868380D01*
X-40298380Y-25868380D01*
X-39536476Y-26820761D02*
X-39393619Y-26868380D01*
X-39155523Y-26868380D01*
X-39060285Y-26820761D01*
X-39012666Y-26773142D01*
X-38965047Y-26677904D01*
X-38965047Y-26582666D01*
X-39012666Y-26487428D01*
X-39060285Y-26439809D01*
X-39155523Y-26392190D01*
X-39346000Y-26344571D01*
X-39441238Y-26296952D01*
X-39488857Y-26249333D01*
X-39536476Y-26154095D01*
X-39536476Y-26058857D01*
X-39488857Y-25963619D01*
X-39441238Y-25916000D01*
X-39346000Y-25868380D01*
X-39107904Y-25868380D01*
X-38965047Y-25916000D01*
X-38536476Y-26868380D02*
X-38536476Y-25868380D01*
X-38536476Y-26344571D02*
X-37965047Y-26344571D01*
X-37965047Y-26868380D02*
X-37965047Y-25868380D01*
X-37155523Y-26344571D02*
X-37488857Y-26344571D01*
X-37488857Y-26868380D02*
X-37488857Y-25868380D01*
X-37012666Y-25868380D01*
X-36774571Y-25868380D02*
X-36203142Y-25868380D01*
X-36488857Y-26868380D02*
X-36488857Y-25868380D01*
X-35346000Y-26868380D02*
X-35917428Y-26868380D01*
X-35631714Y-26868380D02*
X-35631714Y-25868380D01*
X-35726952Y-26011238D01*
X-35822190Y-26106476D01*
X-35917428Y-26154095D01*
X178181142Y11231619D02*
X177704952Y11231619D01*
X177704952Y12231619D01*
X178466857Y11279238D02*
X178609714Y11231619D01*
X178847809Y11231619D01*
X178943047Y11279238D01*
X178990666Y11326857D01*
X179038285Y11422095D01*
X179038285Y11517333D01*
X178990666Y11612571D01*
X178943047Y11660190D01*
X178847809Y11707809D01*
X178657333Y11755428D01*
X178562095Y11803047D01*
X178514476Y11850666D01*
X178466857Y11945904D01*
X178466857Y12041142D01*
X178514476Y12136380D01*
X178562095Y12184000D01*
X178657333Y12231619D01*
X178895428Y12231619D01*
X179038285Y12184000D01*
X179800190Y11755428D02*
X179943047Y11707809D01*
X179990666Y11660190D01*
X180038285Y11564952D01*
X180038285Y11422095D01*
X179990666Y11326857D01*
X179943047Y11279238D01*
X179847809Y11231619D01*
X179466857Y11231619D01*
X179466857Y12231619D01*
X179800190Y12231619D01*
X179895428Y12184000D01*
X179943047Y12136380D01*
X179990666Y12041142D01*
X179990666Y11945904D01*
X179943047Y11850666D01*
X179895428Y11803047D01*
X179800190Y11755428D01*
X179466857Y11755428D01*
X180990666Y11231619D02*
X180419238Y11231619D01*
X180704952Y11231619D02*
X180704952Y12231619D01*
X180609714Y12088761D01*
X180514476Y11993523D01*
X180419238Y11945904D01*
X-15136666Y-45918380D02*
X-15612857Y-45918380D01*
X-15612857Y-44918380D01*
X-14612857Y-44918380D02*
X-14422380Y-44918380D01*
X-14327142Y-44966000D01*
X-14231904Y-45061238D01*
X-14184285Y-45251714D01*
X-14184285Y-45585047D01*
X-14231904Y-45775523D01*
X-14327142Y-45870761D01*
X-14422380Y-45918380D01*
X-14612857Y-45918380D01*
X-14708095Y-45870761D01*
X-14803333Y-45775523D01*
X-14850952Y-45585047D01*
X-14850952Y-45251714D01*
X-14803333Y-45061238D01*
X-14708095Y-44966000D01*
X-14612857Y-44918380D01*
X-13803333Y-45870761D02*
X-13660476Y-45918380D01*
X-13422380Y-45918380D01*
X-13327142Y-45870761D01*
X-13279523Y-45823142D01*
X-13231904Y-45727904D01*
X-13231904Y-45632666D01*
X-13279523Y-45537428D01*
X-13327142Y-45489809D01*
X-13422380Y-45442190D01*
X-13612857Y-45394571D01*
X-13708095Y-45346952D01*
X-13755714Y-45299333D01*
X-13803333Y-45204095D01*
X-13803333Y-45108857D01*
X-13755714Y-45013619D01*
X-13708095Y-44966000D01*
X-13612857Y-44918380D01*
X-13374761Y-44918380D01*
X-13231904Y-44966000D01*
X-12279523Y-45918380D02*
X-12850952Y-45918380D01*
X-12565238Y-45918380D02*
X-12565238Y-44918380D01*
X-12660476Y-45061238D01*
X-12755714Y-45156476D01*
X-12850952Y-45204095D01*
X-39798380Y-45918380D02*
X-40274571Y-45918380D01*
X-40274571Y-44918380D01*
X-38893619Y-45823142D02*
X-38941238Y-45870761D01*
X-39084095Y-45918380D01*
X-39179333Y-45918380D01*
X-39322190Y-45870761D01*
X-39417428Y-45775523D01*
X-39465047Y-45680285D01*
X-39512666Y-45489809D01*
X-39512666Y-45346952D01*
X-39465047Y-45156476D01*
X-39417428Y-45061238D01*
X-39322190Y-44966000D01*
X-39179333Y-44918380D01*
X-39084095Y-44918380D01*
X-38941238Y-44966000D01*
X-38893619Y-45013619D01*
X-38607904Y-44918380D02*
X-38036476Y-44918380D01*
X-38322190Y-45918380D02*
X-38322190Y-44918380D01*
X-37131714Y-45918380D02*
X-37465047Y-45442190D01*
X-37703142Y-45918380D02*
X-37703142Y-44918380D01*
X-37322190Y-44918380D01*
X-37226952Y-44966000D01*
X-37179333Y-45013619D01*
X-37131714Y-45108857D01*
X-37131714Y-45251714D01*
X-37179333Y-45346952D01*
X-37226952Y-45394571D01*
X-37322190Y-45442190D01*
X-37703142Y-45442190D01*
X-36226952Y-45918380D02*
X-36703142Y-45918380D01*
X-36703142Y-44918380D01*
X-35369809Y-45918380D02*
X-35941238Y-45918380D01*
X-35655523Y-45918380D02*
X-35655523Y-44918380D01*
X-35750761Y-45061238D01*
X-35846000Y-45156476D01*
X-35941238Y-45204095D01*
X8525047Y-45918380D02*
X8048857Y-45918380D01*
X8048857Y-44918380D01*
X8810761Y-45632666D02*
X9286952Y-45632666D01*
X8715523Y-45918380D02*
X9048857Y-44918380D01*
X9382190Y-45918380D01*
X10191714Y-45918380D02*
X9715523Y-45918380D01*
X9715523Y-44918380D01*
X10382190Y-44918380D02*
X10953619Y-44918380D01*
X10667904Y-45918380D02*
X10667904Y-44918380D01*
X11810761Y-45918380D02*
X11239333Y-45918380D01*
X11525047Y-45918380D02*
X11525047Y-44918380D01*
X11429809Y-45061238D01*
X11334571Y-45156476D01*
X11239333Y-45204095D01*
X145375333Y-7818380D02*
X144899142Y-7818380D01*
X144899142Y-6818380D01*
X146232476Y-7818380D02*
X145661047Y-7818380D01*
X145946761Y-7818380D02*
X145946761Y-6818380D01*
X145851523Y-6961238D01*
X145756285Y-7056476D01*
X145661047Y-7104095D01*
X125753904Y-7818380D02*
X125753904Y-6818380D01*
X126325333Y-7818380D02*
X125896761Y-7246952D01*
X126325333Y-6818380D02*
X125753904Y-7389809D01*
X127277714Y-7818380D02*
X126706285Y-7818380D01*
X126992000Y-7818380D02*
X126992000Y-6818380D01*
X126896761Y-6961238D01*
X126801523Y-7056476D01*
X126706285Y-7104095D01*
X107108666Y-6818380D02*
X107108666Y-7532666D01*
X107061047Y-7675523D01*
X106965809Y-7770761D01*
X106822952Y-7818380D01*
X106727714Y-7818380D01*
X108108666Y-7818380D02*
X107537238Y-7818380D01*
X107822952Y-7818380D02*
X107822952Y-6818380D01*
X107727714Y-6961238D01*
X107632476Y-7056476D01*
X107537238Y-7104095D01*
X121697809Y11231619D02*
X121697809Y12231619D01*
X122697809Y11231619D02*
X122126380Y11231619D01*
X122412095Y11231619D02*
X122412095Y12231619D01*
X122316857Y12088761D01*
X122221619Y11993523D01*
X122126380Y11945904D01*
X201009523Y-7818380D02*
X201009523Y-6818380D01*
X201009523Y-7294571D02*
X201580952Y-7294571D01*
X201580952Y-7818380D02*
X201580952Y-6818380D01*
X202009523Y-7532666D02*
X202485714Y-7532666D01*
X201914285Y-7818380D02*
X202247619Y-6818380D01*
X202580952Y-7818380D01*
X202866666Y-7770761D02*
X203009523Y-7818380D01*
X203247619Y-7818380D01*
X203342857Y-7770761D01*
X203390476Y-7723142D01*
X203438095Y-7627904D01*
X203438095Y-7532666D01*
X203390476Y-7437428D01*
X203342857Y-7389809D01*
X203247619Y-7342190D01*
X203057142Y-7294571D01*
X202961904Y-7246952D01*
X202914285Y-7199333D01*
X202866666Y-7104095D01*
X202866666Y-7008857D01*
X202914285Y-6913619D01*
X202961904Y-6866000D01*
X203057142Y-6818380D01*
X203295238Y-6818380D01*
X203438095Y-6866000D01*
X203866666Y-7818380D02*
X203866666Y-6818380D01*
X203866666Y-7294571D02*
X204438095Y-7294571D01*
X204438095Y-7818380D02*
X204438095Y-6818380D01*
X205438095Y-7818380D02*
X204866666Y-7818380D01*
X205152380Y-7818380D02*
X205152380Y-6818380D01*
X205057142Y-6961238D01*
X204961904Y-7056476D01*
X204866666Y-7104095D01*
X87630095Y-7818380D02*
X87630095Y-6818380D01*
X87630095Y-7294571D02*
X88201523Y-7294571D01*
X88201523Y-7818380D02*
X88201523Y-6818380D01*
X89201523Y-7818380D02*
X88630095Y-7818380D01*
X88915809Y-7818380D02*
X88915809Y-6818380D01*
X88820571Y-6961238D01*
X88725333Y-7056476D01*
X88630095Y-7104095D01*
X69127714Y-6866000D02*
X69032476Y-6818380D01*
X68889619Y-6818380D01*
X68746761Y-6866000D01*
X68651523Y-6961238D01*
X68603904Y-7056476D01*
X68556285Y-7246952D01*
X68556285Y-7389809D01*
X68603904Y-7580285D01*
X68651523Y-7675523D01*
X68746761Y-7770761D01*
X68889619Y-7818380D01*
X68984857Y-7818380D01*
X69127714Y-7770761D01*
X69175333Y-7723142D01*
X69175333Y-7389809D01*
X68984857Y-7389809D01*
X70127714Y-7818380D02*
X69556285Y-7818380D01*
X69842000Y-7818380D02*
X69842000Y-6818380D01*
X69746761Y-6961238D01*
X69651523Y-7056476D01*
X69556285Y-7104095D01*
X152979714Y-26344571D02*
X152646380Y-26344571D01*
X152646380Y-26868380D02*
X152646380Y-25868380D01*
X153122571Y-25868380D01*
X153455904Y-26820761D02*
X153598761Y-26868380D01*
X153836857Y-26868380D01*
X153932095Y-26820761D01*
X153979714Y-26773142D01*
X154027333Y-26677904D01*
X154027333Y-26582666D01*
X153979714Y-26487428D01*
X153932095Y-26439809D01*
X153836857Y-26392190D01*
X153646380Y-26344571D01*
X153551142Y-26296952D01*
X153503523Y-26249333D01*
X153455904Y-26154095D01*
X153455904Y-26058857D01*
X153503523Y-25963619D01*
X153551142Y-25916000D01*
X153646380Y-25868380D01*
X153884476Y-25868380D01*
X154027333Y-25916000D01*
X154313047Y-25868380D02*
X154884476Y-25868380D01*
X154598761Y-26868380D02*
X154598761Y-25868380D01*
X155408285Y-25868380D02*
X155598761Y-25868380D01*
X155694000Y-25916000D01*
X155789238Y-26011238D01*
X155836857Y-26201714D01*
X155836857Y-26535047D01*
X155789238Y-26725523D01*
X155694000Y-26820761D01*
X155598761Y-26868380D01*
X155408285Y-26868380D01*
X155313047Y-26820761D01*
X155217809Y-26725523D01*
X155170190Y-26535047D01*
X155170190Y-26201714D01*
X155217809Y-26011238D01*
X155313047Y-25916000D01*
X155408285Y-25868380D01*
X156265428Y-26868380D02*
X156265428Y-25868380D01*
X156646380Y-25868380D01*
X156741619Y-25916000D01*
X156789238Y-25963619D01*
X156836857Y-26058857D01*
X156836857Y-26201714D01*
X156789238Y-26296952D01*
X156741619Y-26344571D01*
X156646380Y-26392190D01*
X156265428Y-26392190D01*
X157789238Y-26868380D02*
X157217809Y-26868380D01*
X157503523Y-26868380D02*
X157503523Y-25868380D01*
X157408285Y-26011238D01*
X157313047Y-26106476D01*
X157217809Y-26154095D01*
X173164666Y-26344571D02*
X172831333Y-26344571D01*
X172831333Y-26868380D02*
X172831333Y-25868380D01*
X173307523Y-25868380D01*
X173640857Y-26820761D02*
X173783714Y-26868380D01*
X174021809Y-26868380D01*
X174117047Y-26820761D01*
X174164666Y-26773142D01*
X174212285Y-26677904D01*
X174212285Y-26582666D01*
X174164666Y-26487428D01*
X174117047Y-26439809D01*
X174021809Y-26392190D01*
X173831333Y-26344571D01*
X173736095Y-26296952D01*
X173688476Y-26249333D01*
X173640857Y-26154095D01*
X173640857Y-26058857D01*
X173688476Y-25963619D01*
X173736095Y-25916000D01*
X173831333Y-25868380D01*
X174069428Y-25868380D01*
X174212285Y-25916000D01*
X174640857Y-26868380D02*
X174640857Y-25868380D01*
X174640857Y-26344571D02*
X175212285Y-26344571D01*
X175212285Y-26868380D02*
X175212285Y-25868380D01*
X176212285Y-26868380D02*
X175640857Y-26868380D01*
X175926571Y-26868380D02*
X175926571Y-25868380D01*
X175831333Y-26011238D01*
X175736095Y-26106476D01*
X175640857Y-26154095D01*
X34695047Y30805428D02*
X34361714Y30805428D01*
X34361714Y30281619D02*
X34361714Y31281619D01*
X34837904Y31281619D01*
X35409333Y31281619D02*
X35599809Y31281619D01*
X35695047Y31234000D01*
X35790285Y31138761D01*
X35837904Y30948285D01*
X35837904Y30614952D01*
X35790285Y30424476D01*
X35695047Y30329238D01*
X35599809Y30281619D01*
X35409333Y30281619D01*
X35314095Y30329238D01*
X35218857Y30424476D01*
X35171238Y30614952D01*
X35171238Y30948285D01*
X35218857Y31138761D01*
X35314095Y31234000D01*
X35409333Y31281619D01*
X36266476Y31281619D02*
X36266476Y30472095D01*
X36314095Y30376857D01*
X36361714Y30329238D01*
X36456952Y30281619D01*
X36647428Y30281619D01*
X36742666Y30329238D01*
X36790285Y30376857D01*
X36837904Y30472095D01*
X36837904Y31281619D01*
X37885523Y30281619D02*
X37552190Y30757809D01*
X37314095Y30281619D02*
X37314095Y31281619D01*
X37695047Y31281619D01*
X37790285Y31234000D01*
X37837904Y31186380D01*
X37885523Y31091142D01*
X37885523Y30948285D01*
X37837904Y30853047D01*
X37790285Y30805428D01*
X37695047Y30757809D01*
X37314095Y30757809D01*
X38837904Y30281619D02*
X38266476Y30281619D01*
X38552190Y30281619D02*
X38552190Y31281619D01*
X38456952Y31138761D01*
X38361714Y31043523D01*
X38266476Y30995904D01*
X199802857Y-45394571D02*
X199469523Y-45394571D01*
X199469523Y-45918380D02*
X199469523Y-44918380D01*
X199945714Y-44918380D01*
X200326666Y-45918380D02*
X200326666Y-44918380D01*
X200898095Y-45918380D01*
X200898095Y-44918380D01*
X201898095Y-45918380D02*
X201326666Y-45918380D01*
X201612380Y-45918380D02*
X201612380Y-44918380D01*
X201517142Y-45061238D01*
X201421904Y-45156476D01*
X201326666Y-45204095D01*
X54173619Y30805428D02*
X53840285Y30805428D01*
X53840285Y30281619D02*
X53840285Y31281619D01*
X54316476Y31281619D01*
X54697428Y30281619D02*
X54697428Y31281619D01*
X55030761Y31281619D02*
X55364095Y30281619D01*
X55697428Y31281619D01*
X56030761Y30805428D02*
X56364095Y30805428D01*
X56506952Y30281619D02*
X56030761Y30281619D01*
X56030761Y31281619D01*
X56506952Y31281619D01*
X57459333Y30281619D02*
X56887904Y30281619D01*
X57173619Y30281619D02*
X57173619Y31281619D01*
X57078380Y31138761D01*
X56983142Y31043523D01*
X56887904Y30995904D01*
X49482476Y-7294571D02*
X49149142Y-7294571D01*
X49149142Y-7818380D02*
X49149142Y-6818380D01*
X49625333Y-6818380D01*
X50530095Y-7818380D02*
X49958666Y-7818380D01*
X50244380Y-7818380D02*
X50244380Y-6818380D01*
X50149142Y-6961238D01*
X50053904Y-7056476D01*
X49958666Y-7104095D01*
X50863428Y-6818380D02*
X51482476Y-6818380D01*
X51149142Y-7199333D01*
X51292000Y-7199333D01*
X51387238Y-7246952D01*
X51434857Y-7294571D01*
X51482476Y-7389809D01*
X51482476Y-7627904D01*
X51434857Y-7723142D01*
X51387238Y-7770761D01*
X51292000Y-7818380D01*
X51006285Y-7818380D01*
X50911047Y-7770761D01*
X50863428Y-7723142D01*
X226266476Y49855428D02*
X225933142Y49855428D01*
X225933142Y49331619D02*
X225933142Y50331619D01*
X226409333Y50331619D01*
X227314095Y49331619D02*
X226742666Y49331619D01*
X227028380Y49331619D02*
X227028380Y50331619D01*
X226933142Y50188761D01*
X226837904Y50093523D01*
X226742666Y50045904D01*
X227695047Y50236380D02*
X227742666Y50284000D01*
X227837904Y50331619D01*
X228076000Y50331619D01*
X228171238Y50284000D01*
X228218857Y50236380D01*
X228266476Y50141142D01*
X228266476Y50045904D01*
X228218857Y49903047D01*
X227647428Y49331619D01*
X228266476Y49331619D01*
X207216476Y49855428D02*
X206883142Y49855428D01*
X206883142Y49331619D02*
X206883142Y50331619D01*
X207359333Y50331619D01*
X208264095Y49331619D02*
X207692666Y49331619D01*
X207978380Y49331619D02*
X207978380Y50331619D01*
X207883142Y50188761D01*
X207787904Y50093523D01*
X207692666Y50045904D01*
X209216476Y49331619D02*
X208645047Y49331619D01*
X208930761Y49331619D02*
X208930761Y50331619D01*
X208835523Y50188761D01*
X208740285Y50093523D01*
X208645047Y50045904D01*
X188166476Y49855428D02*
X187833142Y49855428D01*
X187833142Y49331619D02*
X187833142Y50331619D01*
X188309333Y50331619D01*
X189214095Y49331619D02*
X188642666Y49331619D01*
X188928380Y49331619D02*
X188928380Y50331619D01*
X188833142Y50188761D01*
X188737904Y50093523D01*
X188642666Y50045904D01*
X189833142Y50331619D02*
X189928380Y50331619D01*
X190023619Y50284000D01*
X190071238Y50236380D01*
X190118857Y50141142D01*
X190166476Y49950666D01*
X190166476Y49712571D01*
X190118857Y49522095D01*
X190071238Y49426857D01*
X190023619Y49379238D01*
X189928380Y49331619D01*
X189833142Y49331619D01*
X189737904Y49379238D01*
X189690285Y49426857D01*
X189642666Y49522095D01*
X189595047Y49712571D01*
X189595047Y49950666D01*
X189642666Y50141142D01*
X189690285Y50236380D01*
X189737904Y50284000D01*
X189833142Y50331619D01*
X169592666Y49855428D02*
X169259333Y49855428D01*
X169259333Y49331619D02*
X169259333Y50331619D01*
X169735523Y50331619D01*
X170164095Y49331619D02*
X170354571Y49331619D01*
X170449809Y49379238D01*
X170497428Y49426857D01*
X170592666Y49569714D01*
X170640285Y49760190D01*
X170640285Y50141142D01*
X170592666Y50236380D01*
X170545047Y50284000D01*
X170449809Y50331619D01*
X170259333Y50331619D01*
X170164095Y50284000D01*
X170116476Y50236380D01*
X170068857Y50141142D01*
X170068857Y49903047D01*
X170116476Y49807809D01*
X170164095Y49760190D01*
X170259333Y49712571D01*
X170449809Y49712571D01*
X170545047Y49760190D01*
X170592666Y49807809D01*
X170640285Y49903047D01*
X136572666Y50109428D02*
X136239333Y50109428D01*
X136239333Y49585619D02*
X136239333Y50585619D01*
X136715523Y50585619D01*
X137239333Y50157047D02*
X137144095Y50204666D01*
X137096476Y50252285D01*
X137048857Y50347523D01*
X137048857Y50395142D01*
X137096476Y50490380D01*
X137144095Y50538000D01*
X137239333Y50585619D01*
X137429809Y50585619D01*
X137525047Y50538000D01*
X137572666Y50490380D01*
X137620285Y50395142D01*
X137620285Y50347523D01*
X137572666Y50252285D01*
X137525047Y50204666D01*
X137429809Y50157047D01*
X137239333Y50157047D01*
X137144095Y50109428D01*
X137096476Y50061809D01*
X137048857Y49966571D01*
X137048857Y49776095D01*
X137096476Y49680857D01*
X137144095Y49633238D01*
X137239333Y49585619D01*
X137429809Y49585619D01*
X137525047Y49633238D01*
X137572666Y49680857D01*
X137620285Y49776095D01*
X137620285Y49966571D01*
X137572666Y50061809D01*
X137525047Y50109428D01*
X137429809Y50157047D01*
X117522666Y50109428D02*
X117189333Y50109428D01*
X117189333Y49585619D02*
X117189333Y50585619D01*
X117665523Y50585619D01*
X117951238Y50585619D02*
X118617904Y50585619D01*
X118189333Y49585619D01*
X98472666Y50109428D02*
X98139333Y50109428D01*
X98139333Y49585619D02*
X98139333Y50585619D01*
X98615523Y50585619D01*
X99425047Y50585619D02*
X99234571Y50585619D01*
X99139333Y50538000D01*
X99091714Y50490380D01*
X98996476Y50347523D01*
X98948857Y50157047D01*
X98948857Y49776095D01*
X98996476Y49680857D01*
X99044095Y49633238D01*
X99139333Y49585619D01*
X99329809Y49585619D01*
X99425047Y49633238D01*
X99472666Y49680857D01*
X99520285Y49776095D01*
X99520285Y50014190D01*
X99472666Y50109428D01*
X99425047Y50157047D01*
X99329809Y50204666D01*
X99139333Y50204666D01*
X99044095Y50157047D01*
X98996476Y50109428D01*
X98948857Y50014190D01*
X79422666Y50109428D02*
X79089333Y50109428D01*
X79089333Y49585619D02*
X79089333Y50585619D01*
X79565523Y50585619D01*
X80422666Y50585619D02*
X79946476Y50585619D01*
X79898857Y50109428D01*
X79946476Y50157047D01*
X80041714Y50204666D01*
X80279809Y50204666D01*
X80375047Y50157047D01*
X80422666Y50109428D01*
X80470285Y50014190D01*
X80470285Y49776095D01*
X80422666Y49680857D01*
X80375047Y49633238D01*
X80279809Y49585619D01*
X80041714Y49585619D01*
X79946476Y49633238D01*
X79898857Y49680857D01*
X47672666Y50109428D02*
X47339333Y50109428D01*
X47339333Y49585619D02*
X47339333Y50585619D01*
X47815523Y50585619D01*
X48625047Y50252285D02*
X48625047Y49585619D01*
X48386952Y50633238D02*
X48148857Y49918952D01*
X48767904Y49918952D01*
X28622666Y50109428D02*
X28289333Y50109428D01*
X28289333Y49585619D02*
X28289333Y50585619D01*
X28765523Y50585619D01*
X29051238Y50585619D02*
X29670285Y50585619D01*
X29336952Y50204666D01*
X29479809Y50204666D01*
X29575047Y50157047D01*
X29622666Y50109428D01*
X29670285Y50014190D01*
X29670285Y49776095D01*
X29622666Y49680857D01*
X29575047Y49633238D01*
X29479809Y49585619D01*
X29194095Y49585619D01*
X29098857Y49633238D01*
X29051238Y49680857D01*
X9572666Y50109428D02*
X9239333Y50109428D01*
X9239333Y49585619D02*
X9239333Y50585619D01*
X9715523Y50585619D01*
X10048857Y50490380D02*
X10096476Y50538000D01*
X10191714Y50585619D01*
X10429809Y50585619D01*
X10525047Y50538000D01*
X10572666Y50490380D01*
X10620285Y50395142D01*
X10620285Y50299904D01*
X10572666Y50157047D01*
X10001238Y49585619D01*
X10620285Y49585619D01*
X-9477333Y50109428D02*
X-9810666Y50109428D01*
X-9810666Y49585619D02*
X-9810666Y50585619D01*
X-9334476Y50585619D01*
X-8429714Y49585619D02*
X-9001142Y49585619D01*
X-8715428Y49585619D02*
X-8715428Y50585619D01*
X-8810666Y50442761D01*
X-8905904Y50347523D01*
X-9001142Y50299904D01*
X-41290666Y50109428D02*
X-40957333Y50109428D01*
X-40814476Y49585619D02*
X-41290666Y49585619D01*
X-41290666Y50585619D01*
X-40814476Y50585619D01*
X-40433523Y49633238D02*
X-40290666Y49585619D01*
X-40052571Y49585619D01*
X-39957333Y49633238D01*
X-39909714Y49680857D01*
X-39862095Y49776095D01*
X-39862095Y49871333D01*
X-39909714Y49966571D01*
X-39957333Y50014190D01*
X-40052571Y50061809D01*
X-40243047Y50109428D01*
X-40338285Y50157047D01*
X-40385904Y50204666D01*
X-40433523Y50299904D01*
X-40433523Y50395142D01*
X-40385904Y50490380D01*
X-40338285Y50538000D01*
X-40243047Y50585619D01*
X-40004952Y50585619D01*
X-39862095Y50538000D01*
X-38862095Y49680857D02*
X-38909714Y49633238D01*
X-39052571Y49585619D01*
X-39147809Y49585619D01*
X-39290666Y49633238D01*
X-39385904Y49728476D01*
X-39433523Y49823714D01*
X-39481142Y50014190D01*
X-39481142Y50157047D01*
X-39433523Y50347523D01*
X-39385904Y50442761D01*
X-39290666Y50538000D01*
X-39147809Y50585619D01*
X-39052571Y50585619D01*
X-38909714Y50538000D01*
X-38862095Y50490380D01*
X-37909714Y49585619D02*
X-38481142Y49585619D01*
X-38195428Y49585619D02*
X-38195428Y50585619D01*
X-38290666Y50442761D01*
X-38385904Y50347523D01*
X-38481142Y50299904D01*
X187356952Y30805428D02*
X187690285Y30805428D01*
X187833142Y30281619D02*
X187356952Y30281619D01*
X187356952Y31281619D01*
X187833142Y31281619D01*
X188928380Y30186380D02*
X188833142Y30234000D01*
X188737904Y30329238D01*
X188595047Y30472095D01*
X188499809Y30519714D01*
X188404571Y30519714D01*
X188452190Y30281619D02*
X188356952Y30329238D01*
X188261714Y30424476D01*
X188214095Y30614952D01*
X188214095Y30948285D01*
X188261714Y31138761D01*
X188356952Y31234000D01*
X188452190Y31281619D01*
X188642666Y31281619D01*
X188737904Y31234000D01*
X188833142Y31138761D01*
X188880761Y30948285D01*
X188880761Y30614952D01*
X188833142Y30424476D01*
X188737904Y30329238D01*
X188642666Y30281619D01*
X188452190Y30281619D01*
X189785523Y30281619D02*
X189309333Y30281619D01*
X189309333Y31281619D01*
X190642666Y30281619D02*
X190071238Y30281619D01*
X190356952Y30281619D02*
X190356952Y31281619D01*
X190261714Y31138761D01*
X190166476Y31043523D01*
X190071238Y30995904D01*
X221988380Y2357428D02*
X222321714Y2357428D01*
X222464571Y1833619D02*
X221988380Y1833619D01*
X221988380Y2833619D01*
X222464571Y2833619D01*
X222893142Y1833619D02*
X222893142Y2833619D01*
X223464571Y1833619D01*
X223464571Y2833619D01*
X223797904Y2833619D02*
X224369333Y2833619D01*
X224083619Y1833619D02*
X224083619Y2833619D01*
X224702666Y2357428D02*
X225036000Y2357428D01*
X225178857Y1833619D02*
X224702666Y1833619D01*
X224702666Y2833619D01*
X225178857Y2833619D01*
X226178857Y1833619D02*
X225845523Y2309809D01*
X225607428Y1833619D02*
X225607428Y2833619D01*
X225988380Y2833619D01*
X226083619Y2786000D01*
X226131238Y2738380D01*
X226178857Y2643142D01*
X226178857Y2500285D01*
X226131238Y2405047D01*
X226083619Y2357428D01*
X225988380Y2309809D01*
X225607428Y2309809D01*
X227131238Y1833619D02*
X226559809Y1833619D01*
X226845523Y1833619D02*
X226845523Y2833619D01*
X226750285Y2690761D01*
X226655047Y2595523D01*
X226559809Y2547904D01*
X110442666Y30805428D02*
X110776000Y30805428D01*
X110918857Y30281619D02*
X110442666Y30281619D01*
X110442666Y31281619D01*
X110918857Y31281619D01*
X111347428Y30281619D02*
X111347428Y31281619D01*
X112347428Y31234000D02*
X112252190Y31281619D01*
X112109333Y31281619D01*
X111966476Y31234000D01*
X111871238Y31138761D01*
X111823619Y31043523D01*
X111776000Y30853047D01*
X111776000Y30710190D01*
X111823619Y30519714D01*
X111871238Y30424476D01*
X111966476Y30329238D01*
X112109333Y30281619D01*
X112204571Y30281619D01*
X112347428Y30329238D01*
X112395047Y30376857D01*
X112395047Y30710190D01*
X112204571Y30710190D01*
X112823619Y30281619D02*
X112823619Y31281619D01*
X112823619Y30805428D02*
X113395047Y30805428D01*
X113395047Y30281619D02*
X113395047Y31281619D01*
X113728380Y31281619D02*
X114299809Y31281619D01*
X114014095Y30281619D02*
X114014095Y31281619D01*
X115156952Y30281619D02*
X114585523Y30281619D01*
X114871238Y30281619D02*
X114871238Y31281619D01*
X114776000Y31138761D01*
X114680761Y31043523D01*
X114585523Y30995904D01*
X26233523Y11755428D02*
X26566857Y11755428D01*
X26709714Y11231619D02*
X26233523Y11231619D01*
X26233523Y12231619D01*
X26709714Y12231619D01*
X27662095Y11231619D02*
X27090666Y11231619D01*
X27376380Y11231619D02*
X27376380Y12231619D01*
X27281142Y12088761D01*
X27185904Y11993523D01*
X27090666Y11945904D01*
X30027714Y-7818380D02*
X30027714Y-6818380D01*
X30265809Y-6818380D01*
X30408666Y-6866000D01*
X30503904Y-6961238D01*
X30551523Y-7056476D01*
X30599142Y-7246952D01*
X30599142Y-7389809D01*
X30551523Y-7580285D01*
X30503904Y-7675523D01*
X30408666Y-7770761D01*
X30265809Y-7818380D01*
X30027714Y-7818380D01*
X31170571Y-7246952D02*
X31075333Y-7199333D01*
X31027714Y-7151714D01*
X30980095Y-7056476D01*
X30980095Y-7008857D01*
X31027714Y-6913619D01*
X31075333Y-6866000D01*
X31170571Y-6818380D01*
X31361047Y-6818380D01*
X31456285Y-6866000D01*
X31503904Y-6913619D01*
X31551523Y-7008857D01*
X31551523Y-7056476D01*
X31503904Y-7151714D01*
X31456285Y-7199333D01*
X31361047Y-7246952D01*
X31170571Y-7246952D01*
X31075333Y-7294571D01*
X31027714Y-7342190D01*
X30980095Y-7437428D01*
X30980095Y-7627904D01*
X31027714Y-7723142D01*
X31075333Y-7770761D01*
X31170571Y-7818380D01*
X31361047Y-7818380D01*
X31456285Y-7770761D01*
X31503904Y-7723142D01*
X31551523Y-7627904D01*
X31551523Y-7437428D01*
X31503904Y-7342190D01*
X31456285Y-7294571D01*
X31361047Y-7246952D01*
X31884857Y-6818380D02*
X32503904Y-6818380D01*
X32170571Y-7199333D01*
X32313428Y-7199333D01*
X32408666Y-7246952D01*
X32456285Y-7294571D01*
X32503904Y-7389809D01*
X32503904Y-7627904D01*
X32456285Y-7723142D01*
X32408666Y-7770761D01*
X32313428Y-7818380D01*
X32027714Y-7818380D01*
X31932476Y-7770761D01*
X31884857Y-7723142D01*
X133882095Y-26773142D02*
X133834476Y-26820761D01*
X133691619Y-26868380D01*
X133596380Y-26868380D01*
X133453523Y-26820761D01*
X133358285Y-26725523D01*
X133310666Y-26630285D01*
X133263047Y-26439809D01*
X133263047Y-26296952D01*
X133310666Y-26106476D01*
X133358285Y-26011238D01*
X133453523Y-25916000D01*
X133596380Y-25868380D01*
X133691619Y-25868380D01*
X133834476Y-25916000D01*
X133882095Y-25963619D01*
X134501142Y-25868380D02*
X134691619Y-25868380D01*
X134786857Y-25916000D01*
X134882095Y-26011238D01*
X134929714Y-26201714D01*
X134929714Y-26535047D01*
X134882095Y-26725523D01*
X134786857Y-26820761D01*
X134691619Y-26868380D01*
X134501142Y-26868380D01*
X134405904Y-26820761D01*
X134310666Y-26725523D01*
X134263047Y-26535047D01*
X134263047Y-26201714D01*
X134310666Y-26011238D01*
X134405904Y-25916000D01*
X134501142Y-25868380D01*
X135358285Y-26868380D02*
X135358285Y-25868380D01*
X135691619Y-26582666D01*
X136024952Y-25868380D01*
X136024952Y-26868380D01*
X136501142Y-26868380D02*
X136501142Y-25868380D01*
X136834476Y-26582666D01*
X137167809Y-25868380D01*
X137167809Y-26868380D01*
X137596380Y-26582666D02*
X138072571Y-26582666D01*
X137501142Y-26868380D02*
X137834476Y-25868380D01*
X138167809Y-26868380D01*
X139024952Y-26868380D02*
X138453523Y-26868380D01*
X138739238Y-26868380D02*
X138739238Y-25868380D01*
X138644000Y-26011238D01*
X138548761Y-26106476D01*
X138453523Y-26154095D01*
X162449142Y-7723142D02*
X162401523Y-7770761D01*
X162258666Y-7818380D01*
X162163428Y-7818380D01*
X162020571Y-7770761D01*
X161925333Y-7675523D01*
X161877714Y-7580285D01*
X161830095Y-7389809D01*
X161830095Y-7246952D01*
X161877714Y-7056476D01*
X161925333Y-6961238D01*
X162020571Y-6866000D01*
X162163428Y-6818380D01*
X162258666Y-6818380D01*
X162401523Y-6866000D01*
X162449142Y-6913619D01*
X163068190Y-6818380D02*
X163258666Y-6818380D01*
X163353904Y-6866000D01*
X163449142Y-6961238D01*
X163496761Y-7151714D01*
X163496761Y-7485047D01*
X163449142Y-7675523D01*
X163353904Y-7770761D01*
X163258666Y-7818380D01*
X163068190Y-7818380D01*
X162972952Y-7770761D01*
X162877714Y-7675523D01*
X162830095Y-7485047D01*
X162830095Y-7151714D01*
X162877714Y-6961238D01*
X162972952Y-6866000D01*
X163068190Y-6818380D01*
X164401523Y-7818380D02*
X163925333Y-7818380D01*
X163925333Y-6818380D01*
X164925333Y-6818380D02*
X165115809Y-6818380D01*
X165211047Y-6866000D01*
X165306285Y-6961238D01*
X165353904Y-7151714D01*
X165353904Y-7485047D01*
X165306285Y-7675523D01*
X165211047Y-7770761D01*
X165115809Y-7818380D01*
X164925333Y-7818380D01*
X164830095Y-7770761D01*
X164734857Y-7675523D01*
X164687238Y-7485047D01*
X164687238Y-7151714D01*
X164734857Y-6961238D01*
X164830095Y-6866000D01*
X164925333Y-6818380D01*
X165782476Y-7818380D02*
X165782476Y-6818380D01*
X166353904Y-7818380D01*
X166353904Y-6818380D01*
X167353904Y-7818380D02*
X166782476Y-7818380D01*
X167068190Y-7818380D02*
X167068190Y-6818380D01*
X166972952Y-6961238D01*
X166877714Y-7056476D01*
X166782476Y-7104095D01*
X40727333Y-26773142D02*
X40679714Y-26820761D01*
X40536857Y-26868380D01*
X40441619Y-26868380D01*
X40298761Y-26820761D01*
X40203523Y-26725523D01*
X40155904Y-26630285D01*
X40108285Y-26439809D01*
X40108285Y-26296952D01*
X40155904Y-26106476D01*
X40203523Y-26011238D01*
X40298761Y-25916000D01*
X40441619Y-25868380D01*
X40536857Y-25868380D01*
X40679714Y-25916000D01*
X40727333Y-25963619D01*
X41679714Y-26868380D02*
X41108285Y-26868380D01*
X41394000Y-26868380D02*
X41394000Y-25868380D01*
X41298761Y-26011238D01*
X41203523Y-26106476D01*
X41108285Y-26154095D01*
X-18065523Y-26344571D02*
X-17922666Y-26392190D01*
X-17875047Y-26439809D01*
X-17827428Y-26535047D01*
X-17827428Y-26677904D01*
X-17875047Y-26773142D01*
X-17922666Y-26820761D01*
X-18017904Y-26868380D01*
X-18398857Y-26868380D01*
X-18398857Y-25868380D01*
X-18065523Y-25868380D01*
X-17970285Y-25916000D01*
X-17922666Y-25963619D01*
X-17875047Y-26058857D01*
X-17875047Y-26154095D01*
X-17922666Y-26249333D01*
X-17970285Y-26296952D01*
X-18065523Y-26344571D01*
X-18398857Y-26344571D01*
X-17446476Y-26820761D02*
X-17303619Y-26868380D01*
X-17065523Y-26868380D01*
X-16970285Y-26820761D01*
X-16922666Y-26773142D01*
X-16875047Y-26677904D01*
X-16875047Y-26582666D01*
X-16922666Y-26487428D01*
X-16970285Y-26439809D01*
X-17065523Y-26392190D01*
X-17256000Y-26344571D01*
X-17351238Y-26296952D01*
X-17398857Y-26249333D01*
X-17446476Y-26154095D01*
X-17446476Y-26058857D01*
X-17398857Y-25963619D01*
X-17351238Y-25916000D01*
X-17256000Y-25868380D01*
X-17017904Y-25868380D01*
X-16875047Y-25916000D01*
X-15970285Y-26868380D02*
X-16446476Y-26868380D01*
X-16446476Y-25868380D01*
X-15636952Y-26868380D02*
X-15636952Y-25868380D01*
X-15636952Y-26344571D02*
X-15065523Y-26344571D01*
X-15065523Y-26868380D02*
X-15065523Y-25868380D01*
X-14065523Y-26868380D02*
X-14636952Y-26868380D01*
X-14351238Y-26868380D02*
X-14351238Y-25868380D01*
X-14446476Y-26011238D01*
X-14541714Y-26106476D01*
X-14636952Y-26154095D01*
X-41409714Y30805428D02*
X-41266857Y30757809D01*
X-41219238Y30710190D01*
X-41171619Y30614952D01*
X-41171619Y30472095D01*
X-41219238Y30376857D01*
X-41266857Y30329238D01*
X-41362095Y30281619D01*
X-41743047Y30281619D01*
X-41743047Y31281619D01*
X-41409714Y31281619D01*
X-41314476Y31234000D01*
X-41266857Y31186380D01*
X-41219238Y31091142D01*
X-41219238Y30995904D01*
X-41266857Y30900666D01*
X-41314476Y30853047D01*
X-41409714Y30805428D01*
X-41743047Y30805428D01*
X-40171619Y30376857D02*
X-40219238Y30329238D01*
X-40362095Y30281619D01*
X-40457333Y30281619D01*
X-40600190Y30329238D01*
X-40695428Y30424476D01*
X-40743047Y30519714D01*
X-40790666Y30710190D01*
X-40790666Y30853047D01*
X-40743047Y31043523D01*
X-40695428Y31138761D01*
X-40600190Y31234000D01*
X-40457333Y31281619D01*
X-40362095Y31281619D01*
X-40219238Y31234000D01*
X-40171619Y31186380D01*
X-39743047Y30281619D02*
X-39743047Y31281619D01*
X-39171619Y30281619D02*
X-39600190Y30853047D01*
X-39171619Y31281619D02*
X-39743047Y30710190D01*
X-38885904Y31281619D02*
X-38314476Y31281619D01*
X-38600190Y30281619D02*
X-38600190Y31281619D01*
X-37457333Y30281619D02*
X-38028761Y30281619D01*
X-37743047Y30281619D02*
X-37743047Y31281619D01*
X-37838285Y31138761D01*
X-37933523Y31043523D01*
X-38028761Y30995904D01*
X78589238Y-26344571D02*
X78732095Y-26392190D01*
X78779714Y-26439809D01*
X78827333Y-26535047D01*
X78827333Y-26677904D01*
X78779714Y-26773142D01*
X78732095Y-26820761D01*
X78636857Y-26868380D01*
X78255904Y-26868380D01*
X78255904Y-25868380D01*
X78589238Y-25868380D01*
X78684476Y-25916000D01*
X78732095Y-25963619D01*
X78779714Y-26058857D01*
X78779714Y-26154095D01*
X78732095Y-26249333D01*
X78684476Y-26296952D01*
X78589238Y-26344571D01*
X78255904Y-26344571D01*
X79779714Y-26868380D02*
X79208285Y-26868380D01*
X79494000Y-26868380D02*
X79494000Y-25868380D01*
X79398761Y-26011238D01*
X79303523Y-26106476D01*
X79208285Y-26154095D01*
X-7572285Y-7532666D02*
X-7096095Y-7532666D01*
X-7667523Y-7818380D02*
X-7334190Y-6818380D01*
X-7000857Y-7818380D01*
X-6143714Y-7818380D02*
X-6715142Y-7818380D01*
X-6429428Y-7818380D02*
X-6429428Y-6818380D01*
X-6524666Y-6961238D01*
X-6619904Y-7056476D01*
X-6715142Y-7104095D01*
M02*
