M48
INCH,TZ
T1C0.0669
T2C0.0866
T3C0.1201
T4C0.1575
%
G90
G05
T1
X62800Y-6000
X66800Y-6000
X38600Y1500
X42600Y1500
X102400Y1500
X106400Y1500
X44400Y16600
X48400Y16600
X61100Y1500
X65100Y1500
X47800Y-6000
X51800Y-6000
X-17600Y9000
X-13600Y9000
X-900Y-13500
X3100Y-13500
X102400Y-6000
X106400Y-6000
X16900Y16600
X20900Y16600
X-15000Y-6000
X-11000Y-6000
X102400Y-21000
X106400Y-21000
X78000Y-6000
X82000Y-6000
X23600Y1500
X27600Y1500
X1100Y1500
X5100Y1500
X102400Y-13500
X106400Y-13500
X-5600Y16600
X-1600Y16600
X109900Y9000
X113900Y9000
X59100Y-13500
X63100Y-13500
X34900Y9000
X38900Y9000
X70500Y-6000
X74500Y-6000
X44100Y-13500
X48100Y-13500
X86400Y-2200
X90400Y-2200
X83600Y9000
X87600Y9000
X49900Y9000
X53900Y9000
X77000Y-21000
X81000Y-21000
X79900Y16500
X83900Y16500
X86400Y-21000
X90400Y-21000
X-7500Y-21000
X-3500Y-21000
X51600Y-13500
X55600Y-13500
X117500Y-17200
X121500Y-17200
X109900Y1500
X113900Y1500
X51900Y16600
X55900Y16600
X-6400Y1500
X-2400Y1500
X55300Y-6000
X59300Y-6000
X-8400Y-13500
X-4400Y-13500
X57400Y9000
X61400Y9000
X109900Y-6000
X113900Y-6000
X29400Y16600
X33400Y16600
X53600Y1500
X57600Y1500
X46100Y1500
X50100Y1500
X4900Y9000
X8900Y9000
X-4700Y-6000
X-700Y-6000
X6600Y-13500
X10600Y-13500
X109900Y-13500
X113900Y-13500
X1900Y16600
X5900Y16600
X94900Y9000
X98900Y9000
X25300Y-6000
X29300Y-6000
X27400Y9000
X31400Y9000
X-2600Y9000
X1400Y9000
X64900Y9000
X68900Y9000
X72400Y9000
X76400Y9000
X117400Y9000
X121400Y9000
X12400Y9000
X16400Y9000
X87400Y16500
X91400Y16500
X67600Y-21000
X71600Y-21000
X68600Y1500
X72600Y1500
X10300Y-6000
X14300Y-6000
X117500Y-2200
X121500Y-2200
X36600Y-13500
X40600Y-13500
X64900Y16500
X68900Y16500
X16100Y1500
X20100Y1500
X1900Y-21000
X5900Y-21000
X14100Y-13500
X18100Y-13500
X2800Y-6000
X6800Y-6000
X94900Y1500
X98900Y1500
X36900Y16600
X40900Y16600
X-10100Y9000
X-6100Y9000
X40300Y-6000
X44300Y-6000
X29100Y-13500
X33100Y-13500
X31100Y1500
X35100Y1500
X94900Y-6000
X98900Y-6000
X9400Y16600
X13400Y16600
X-15800Y1512
X-11800Y1512
X94900Y-21000
X98900Y-21000
X32800Y-6000
X36800Y-6000
X30100Y-21000
X34100Y-21000
X21600Y-13500
X25600Y-13500
X94900Y-13500
X98900Y-13500
X-17600Y16600
X-13600Y16600
X102400Y9000
X106400Y9000
X66700Y-13500
X70700Y-13500
X17800Y-6000
X21800Y-6000
X76100Y1500
X80100Y1500
X-16900Y-13500
X-12900Y-13500
X42400Y9000
X46400Y9000
X8600Y1500
X12600Y1500
X80800Y-13500
X84800Y-13500
X109900Y-21000
X113900Y-21000
X19900Y9000
X23900Y9000
X72400Y16500
X76400Y16500
X58200Y-21000
X62200Y-21000
X-16900Y-21000
X-12900Y-21000
T2
X120138Y16575
X25354Y16575
X-10197Y-21102
X83740Y-21024
X119449Y-10039
X60630Y16575
X-9055Y-2244
X50197Y-2244
X42402Y-21024
X108110Y-2244
X100700Y16600
X-9488Y16535
X14961Y-2244
X19921Y-21102
X107700Y-17244
T3
X85644Y2485
X85644Y-6885
X80915Y11756
X90285Y11756
X116744Y-12515
X116744Y-21885
X116744Y2485
X116744Y-6885
X12415Y-18244
X51785Y-18244
X78115Y-10744
X87485Y-10744
T4
X-600Y9000
X66900Y9000
X74400Y9000
X119400Y9000
X14400Y9000
X89400Y16500
X69600Y-21000
X70600Y1500
X12300Y-6000
X119500Y-2200
X122744Y2485
X122744Y-6885
X38600Y-13500
X66900Y16500
X18100Y1500
X3900Y-21000
X16100Y-13500
X4800Y-6000
X96900Y1500
X38900Y16600
X-8100Y9000
X42300Y-6000
X31100Y-13500
X33100Y1500
X96900Y-6000
X11400Y16600
X-13800Y1512
X96900Y-21000
X34800Y-6000
X12415Y-24244
X32100Y-21000
X51785Y-24244
X23600Y-13500
X96900Y-13500
X-15600Y16600
X104400Y9000
X68700Y-13500
X19800Y-6000
X78100Y1500
X-14900Y-13500
X44400Y9000
X10600Y1500
X78115Y-16744
X82800Y-13500
X87485Y-16744
X111900Y-21000
X21900Y9000
X74400Y16500
X60200Y-21000
X-14900Y-21000
X64800Y-6000
X40600Y1500
X104400Y1500
X46400Y16600
X63100Y1500
X49800Y-6000
X-15600Y9000
X1100Y-13500
X104400Y-6000
X18900Y16600
X-13000Y-6000
X104400Y-21000
X80000Y-6000
X25600Y1500
X3100Y1500
X104400Y-13500
X-3600Y16600
X111900Y9000
X61100Y-13500
X36900Y9000
X72500Y-6000
X46100Y-13500
X88400Y-2200
X91644Y2485
X91644Y-6885
X80915Y5756
X85600Y9000
X90285Y5756
X51900Y9000
X79000Y-21000
X81900Y16500
X88400Y-21000
X-5500Y-21000
X53600Y-13500
X119500Y-17200
X122744Y-12515
X122744Y-21885
X111900Y1500
X53900Y16600
X-4400Y1500
X57300Y-6000
X-6400Y-13500
X59400Y9000
X111900Y-6000
X31400Y16600
X55600Y1500
X48100Y1500
X6900Y9000
X-2700Y-6000
X8600Y-13500
X111900Y-13500
X3900Y16600
X96900Y9000
X27300Y-6000
X29400Y9000
T0
M30
