M48
INCH,TZ
T1C0.0130
T2C0.0380
T3C0.0591
%
G90
G05
T1
X-16000Y14000
X-11400Y12800
X-8500Y6500
X-6700Y19200
X-6700Y18200
X-5500Y15000
X886Y19882
X1500Y14500
X5000Y-12500
X9500Y14500
X9941Y12008
X9941Y10039
X16500Y15000
X24114Y19685
X26800Y12000
X29000Y15000
X31300Y6315
X33400Y6315
X34104Y6006
X36010Y14732
X41115Y12700
X42700Y12700
X43012Y17421
X46600Y6300
X50000Y-16500
X50000Y-18500
X50295Y6299
X50700Y12700
X52000Y12700
X52219Y14896
X54700Y14100
X54985Y12700
X55300Y11700
X55800Y12700
X55900Y13500
X60728Y14075
X64001Y14761
X72144Y14790
X74000Y-16500
X74000Y-18000
X77929Y11000
X77953Y8957
X78100Y12200
X79000Y14500
X79600Y12200
X87000Y14500
X87800Y12300
X88681Y6398
X88681Y3543
X89700Y17700
X89961Y-8563
X94067Y19251
X94300Y19600
X94488Y13681
X94489Y20001
X94700Y20400
X96550Y15860
X96550Y12100
X99800Y12306
X99800Y10000
X99800Y5300
X100295Y20374
X101870Y16831
X102400Y17985
X102461Y7874
X106201Y7579
X107579Y17355
X107579Y13091
X109100Y7200
X109100Y5600
X111811Y17355
X112889Y17670
X112894Y16831
X113583Y13287
X113909Y15860
X114889Y18300
X114975Y5750
X115000Y-4500
X115000Y-16500
X115000Y-18000
X115879Y15410
X115923Y11977
X116889Y15100
X117717Y16831
X117717Y15551
X117889Y18960
X118000Y7500
X118369Y14830
X119889Y18000
X120889Y19275
X123917Y15551
T2
X110889Y20200
X110889Y14200
X111889Y20200
X111889Y14200
X112889Y20200
X112889Y14200
X113889Y20200
X113889Y14200
X114889Y20200
X114889Y14200
X115889Y20200
X115889Y14200
X116889Y20200
X116889Y14200
X117889Y20200
X117889Y14200
X118889Y20200
X118889Y14200
X119889Y20200
X119889Y14200
X120889Y20200
X120889Y14200
X121889Y20200
X121889Y14200
X122889Y20200
X122889Y14200
X123889Y20200
X123889Y14200
T3
X9100Y2500
X11600Y3500
X81300Y-12500
X83800Y-11500
X110400Y-20000
X112900Y-19000
X20400Y10000
X22900Y11000
X72900Y17500
X75400Y18500
X58700Y-20000
X61200Y-19000
X-16400Y-20000
X-13900Y-19000
X63300Y-5000
X65800Y-4000
X39100Y2500
X41600Y3500
X102900Y2500
X105400Y3500
X44900Y17600
X47400Y18600
X61600Y2500
X64100Y3500
X48300Y-5000
X50800Y-4000
X-17100Y10000
X-14600Y11000
X-400Y-12500
X2100Y-11500
X102900Y-5000
X105400Y-4000
X17400Y17600
X19900Y18600
X-14500Y-5000
X-12000Y-4000
X102900Y-20000
X105400Y-19000
X78500Y-5000
X81000Y-4000
X24100Y2500
X26600Y3500
X1600Y2500
X4100Y3500
X102900Y-12500
X105400Y-11500
X-5100Y17600
X-2600Y18600
X110400Y10000
X112900Y11000
X59600Y-12500
X62100Y-11500
X35400Y10000
X37900Y11000
X71000Y-5000
X73500Y-4000
X44600Y-12500
X47100Y-11500
X86900Y-1200
X89400Y-200
X84100Y10000
X86600Y11000
X50400Y10000
X52900Y11000
X77500Y-20000
X80000Y-19000
X80400Y17500
X82900Y18500
X86900Y-20000
X89400Y-19000
X-7000Y-20000
X-4500Y-19000
X52100Y-12500
X54600Y-11500
X118000Y-16200
X120500Y-15200
X110400Y2500
X112900Y3500
X52400Y17600
X54900Y18600
X-5900Y2500
X-3400Y3500
X55800Y-5000
X58300Y-4000
X-7900Y-12500
X-5400Y-11500
X57900Y10000
X60400Y11000
X110400Y-5000
X112900Y-4000
X29900Y17600
X32400Y18600
X54100Y2500
X56600Y3500
X46600Y2500
X49100Y3500
X5400Y10000
X7900Y11000
X-4200Y-5000
X-1700Y-4000
X7100Y-12500
X9600Y-11500
X110400Y-12500
X112900Y-11500
X2400Y17600
X4900Y18600
X95400Y10000
X97900Y11000
X25800Y-5000
X28300Y-4000
X27900Y10000
X30400Y11000
X-2100Y10000
X400Y11000
X65400Y10000
X67900Y11000
X72900Y10000
X75400Y11000
X117900Y10000
X120400Y11000
X12900Y10000
X15400Y11000
X87900Y17500
X90400Y18500
X68100Y-20000
X70600Y-19000
X69100Y2500
X71600Y3500
X10800Y-5000
X13300Y-4000
X118000Y-1200
X120500Y-200
X37100Y-12500
X39600Y-11500
X65400Y17500
X67900Y18500
X16600Y2500
X19100Y3500
X2400Y-20000
X4900Y-19000
X14600Y-12500
X17100Y-11500
X3300Y-5000
X5800Y-4000
X95400Y2500
X97900Y3500
X37400Y17600
X39900Y18600
X-9600Y10000
X-7100Y11000
X40800Y-5000
X43300Y-4000
X29600Y-12500
X32100Y-11500
X31600Y2500
X34100Y3500
X95400Y-5000
X97900Y-4000
X9900Y17600
X12400Y18600
X-15300Y2512
X-12800Y3512
X95400Y-20000
X97900Y-19000
X33300Y-5000
X35800Y-4000
X30600Y-20000
X33100Y-19000
X22100Y-12500
X24600Y-11500
X95400Y-12500
X97900Y-11500
X-17100Y17600
X-14600Y18600
X102900Y10000
X105400Y11000
X67200Y-12500
X69700Y-11500
X18300Y-5000
X20800Y-4000
X76600Y2500
X79100Y3500
X-16400Y-12500
X-13900Y-11500
X42900Y10000
X45400Y11000
T0
M30
